<svg xmlns="http://www.w3.org/2000/svg" width="364" height="364" viewBox="0 0 364 364">
  <g id="Grupo_54841" data-name="Grupo 54841" transform="translate(-1038 -5278)">
    <g id="Grupo_54762" data-name="Grupo 54762" transform="translate(1085 5322)">
      <path id="Trazado_109300" data-name="Trazado 109300" d="M2281.188,653.845c-15.36-7.526-40.338-7.526-55.8,0a25.543,25.543,0,0,0-8.981,6.718l-44.16-30.715-114.186,74.19,54.179,32.324L2215.082,672.5c1.717,3.143,5.084,6.115,10.124,8.584,15.36,7.526,40.338,7.5,55.8,0S2296.548,661.371,2281.188,653.845Z" transform="translate(-2047.741 -461.301)" fill="#7f5100" opacity="0.25" style="isolation: isolate"/>
      <g id="freepik--Clock--inject-14" transform="translate(70.285)">
        <g id="freepik--clock--inject-14-2" data-name="freepik--clock--inject-14">
          <path id="Trazado_109301" data-name="Trazado 109301" d="M2175.328,378.579h0l-2.8-1.667h0c-2.77-1.4-6.47-.99-10.449,1.574-7.971,5.155-14.116,17.039-13.657,26.571.232,4.743,2.052,7.971,4.809,9.426h0l2.8,1.667h0c2.77,1.408,6.477,1,10.462-1.568,7.971-5.155,14.116-17.039,13.651-26.571C2179.911,383.3,2178.084,380.014,2175.328,378.579Z" transform="translate(-2148.354 -376.118)" fill="#374f46"/>
          <path id="Trazado_109302" data-name="Trazado 109302" d="M2155.771,423.869l-2.6-1.561h0c-2.757-1.441-4.577-4.69-4.81-9.426a29.564,29.564,0,0,1,2.89-13.319l2.8,1.661a29.609,29.609,0,0,0-2.89,13.325C2151.36,419.172,2153.107,422.388,2155.771,423.869Z" transform="translate(-2148.333 -383.989)" fill="#1f2638"/>
          <path id="Trazado_109303" data-name="Trazado 109303" d="M2167.872,415.359c7.971-5.155,14.116-17.039,13.651-26.571s-7.307-13.04-15.325-7.885-14.116,17.039-13.651,26.571S2159.868,420.513,2167.872,415.359Z" transform="translate(-2149.74 -376.927)" fill="#456458"/>
          <path id="Trazado_109304" data-name="Trazado 109304" d="M2162.693,416.24c-4.717.226-5.487-5.075-5.593-7.367-.412-8.383,5.208-19.311,12.269-23.854a10.685,10.685,0,0,1,5.062-1.88c4.723-.233,5.487,5.075,5.6,7.367.405,8.383-5.208,19.311-12.269,23.854A10.669,10.669,0,0,1,2162.693,416.24Z" transform="translate(-2151.269 -378.473)" fill="#fafafa"/>
          <path id="Trazado_109305" data-name="Trazado 109305" d="M2174.576,404.749a.658.658,0,0,0,.405-.272,1.179,1.179,0,0,0,.166-.219,1.848,1.848,0,0,0,.352-.884V391.238c0-.279-.233-.246-.518.08a2.1,2.1,0,0,0-.511,1.109v10.628" transform="translate(-2157.108 -381.13)" fill="#374f46"/>
          <path id="Trazado_109306" data-name="Trazado 109306" d="M2171.6,411.673l-2.929,4.9a1.031,1.031,0,0,0,.04,1.063c.306.379.665.252.737.106l3.388-5.387Z" transform="translate(-2155.119 -388.055)" fill="#374f46"/>
          <path id="Trazado_109307" data-name="Trazado 109307" d="M2178.063,416.244a.306.306,0,0,0,.073-.086.664.664,0,0,0,.146-.438l-2.843-6.311c-.033-.073-.16,0-.272.166a.665.665,0,0,0-.146.438l2.85,6.3C2177.9,416.384,2177.976,416.344,2178.063,416.244Z" transform="translate(-2157.292 -387.285)" fill="#ff8c00"/>
          <path id="Trazado_109308" data-name="Trazado 109308" d="M2174.575,406.468a3.88,3.88,0,0,0-1.807,3.016c-.053,1.176.665,1.747,1.608,1.262a3.873,3.873,0,0,0,1.807-3.009C2176.243,406.561,2175.512,405.989,2174.575,406.468Z" transform="translate(-2156.536 -386.25)" fill="#ff8c00"/>
        </g>
      </g>
      <g id="freepik--Chair--inject-14" transform="translate(0 91.733)">
        <g id="freepik--chair--inject-14-2" data-name="freepik--chair--inject-14">
          <path id="Trazado_109309" data-name="Trazado 109309" d="M2101.88,676.89a.864.864,0,0,1-.87-.857V620.114a.87.87,0,0,1,1.74,0V676.02A.87.87,0,0,1,2101.88,676.89Z" transform="translate(-2062.161 -549.474)" fill="#456458"/>
          <path id="Trazado_109310" data-name="Trazado 109310" d="M2145.282,652.574a.883.883,0,0,1-.81-.551l-17.145-43.391a.876.876,0,0,1,1.621-.664l17.145,43.391a.877.877,0,0,1-.491,1.129A.893.893,0,0,1,2145.282,652.574Z" transform="translate(-2070.974 -545.506)" fill="#456458"/>
          <path id="Trazado_109311" data-name="Trazado 109311" d="M2118.01,649.266a.868.868,0,0,1-.631-.272l-31.885-33.752-31.859,33.612a.87.87,0,0,1-1.262-1.2l32.477-34.283a.865.865,0,0,1,.631-.272h0a.879.879,0,0,1,.664.272l32.55,34.423a.87.87,0,0,1-.664,1.468Z" transform="translate(-2045.761 -547.412)" fill="#456458"/>
          <path id="Trazado_109312" data-name="Trazado 109312" d="M2049.809,652.589a.869.869,0,0,1-.816-1.175l.005-.014,17.145-43.391a.873.873,0,0,1,1.614.664h0l-17.145,43.364A.87.87,0,0,1,2049.809,652.589Z" transform="translate(-2044.678 -545.521)" fill="#456458"/>
          <path id="Trazado_109313" data-name="Trazado 109313" d="M2151.687,665.523l2.265,5.979a.572.572,0,0,1,0,.153.278.278,0,0,1,0,.106.664.664,0,0,1-.339.379,1.534,1.534,0,0,1-1.382,0,.585.585,0,0,1-.266-.279h0v-.08l-2.106-5.607Z" transform="translate(-2078.561 -565.011)" fill="#ff8c00"/>
          <path id="Trazado_109314" data-name="Trazado 109314" d="M2050.849,665.523l-2.272,5.979a.572.572,0,0,0,0,.153v.113a.711.711,0,0,0,.345.379,1.519,1.519,0,0,0,1.375,0,.6.6,0,0,0,.272-.279h0v-.08l2.1-5.607Z" transform="translate(-2044.556 -565.011)" fill="#ff8c00"/>
          <path id="Trazado_109315" data-name="Trazado 109315" d="M2102.816,698.075v4.942a.5.5,0,0,1-.292.412,1.572,1.572,0,0,1-1.422,0,.5.5,0,0,1-.292-.412v-4.942A2.107,2.107,0,0,1,2102.816,698.075Z" transform="translate(-2062.094 -575.854)" fill="#ff8c00"/>
          <path id="Trazado_109316" data-name="Trazado 109316" d="M2121.126,576.754c0-1.554-1.368-3.215-4.251-5.088-5.314-3.454-20.845-12.116-28.3-16.248a.079.079,0,0,0-.06-.06c-5.739-3.487-7.486-18.347-11.459-30.955-1.329-4.291-3.009-6.723-4.975-7.865-.465-.272-2.186-1.222-2.571-1.448-3.9-2.338-9.014.472-15.385,3.986-5.865,3.215-10.456,7.307-11.379,18.241-.558,6.643,0,19.337,1.328,28.963h0c1.953,16.076,4.351,16.109,7.832,18.792,5.979,4.65,19.49,11.14,25.176,13.379,10.316,4.059,18.746-2.2,25.03-5.314a146.827,146.827,0,0,0,16.647-9.865c1.574-1.143,2.391-2.3,2.372-3.514C2121.113,579.239,2121.126,577.259,2121.126,576.754Z" transform="translate(-2042.526 -514.219)" fill="#1f2638"/>
          <path id="Trazado_109317" data-name="Trazado 109317" d="M2105.535,609.777a144.867,144.867,0,0,0,16.647-9.865c3.58-2.591,3.248-5.248-1.873-8.576-7.121-4.65-32.4-18.513-32.4-18.513s-36.688,21.649-35.107,25.648,20.546,13.8,27.7,16.607C2090.822,619.136,2099.251,612.886,2105.535,609.777Z" transform="translate(-2045.96 -533.889)" fill="#374f46"/>
          <path id="Trazado_109318" data-name="Trazado 109318" d="M2072.939,516.4c-3.866-2.026-8.881.731-15.092,4.132-3.986,2.179-7.36,4.763-9.419,9.592l-2.657-1.515c2.059-4.816,5.44-7.393,9.406-9.572,6.37-3.487,11.485-6.284,15.385-3.986C2070.933,515.282,2072.288,516.013,2072.939,516.4Z" transform="translate(-2043.615 -514.212)" fill="#456458"/>
          <path id="Trazado_109319" data-name="Trazado 109319" d="M2058.1,521.286c9.539-5.221,16.261-8.928,20.294,3.866,3.986,12.621,9.3,29.5,15.059,32.981-8.47-.844-35.353,15.179-39.943,24.432-.976-.81-1.86-1.681-1.993-1.767-3.753-3.109-5.779-30.364-4.862-41.278S2052.206,524.5,2058.1,521.286Z" transform="translate(-2043.84 -514.968)" fill="#374f46"/>
          <g id="Grupo_54752" data-name="Grupo 54752" transform="translate(2.6 1.495)" opacity="0.1">
            <path id="Trazado_109320" data-name="Trazado 109320" d="M2058.1,521.286c9.539-5.221,16.261-8.928,20.294,3.866,3.986,12.621,9.3,29.5,15.059,32.981-8.47-.844-35.353,15.179-39.943,24.432-.976-.81-1.86-1.681-1.993-1.767-3.753-3.109-5.779-30.364-4.862-41.278S2052.206,524.5,2058.1,521.286Z" transform="translate(-2046.44 -516.463)"/>
          </g>
        </g>
      </g>
      <g id="freepik--Character--inject-14" transform="translate(170.375 14.005)">
        <g id="freepik--character--inject-14-2" data-name="freepik--character--inject-14">
          <path id="Trazado_109321" data-name="Trazado 109321" d="M2368.049,683.3a3.865,3.865,0,0,0,.133,1.721,9.815,9.815,0,0,0,3.321,2.265c1.242.585,1.76,1.461,3.321,3.235a13.471,13.471,0,0,0,5.1,3.567,11.623,11.623,0,0,0,9.147.252,9.021,9.021,0,0,0,3.268-2.278,4.628,4.628,0,0,0,.053-.957Z" transform="translate(-2322.172 -493.252)" fill="#1f2638"/>
          <path id="Trazado_109322" data-name="Trazado 109322" d="M2377.6,670.853c.385,1.926,2.371,5.088,6.058,7.307,1.329.791,3.534,1.92,4.424,2.458a12.781,12.781,0,0,1,3.946,3.986c1.5,2.338-3.747,4.544-6.1,4.7-1.84.126-4.258.365-6.2-.591a15.885,15.885,0,0,1-2.7-1.687c-1.694-1.275-2.983-2.956-4.225-3.986s-3.713-1.893-4.577-3.222c-.471-.731-.578-2.557-.551-4.132,0-1.435-.226-2.757.432-3l.2.81a13.942,13.942,0,0,0,2.73-.233c.379-.073,1.063.664,1.428.445s-.186-.664.193-1.388C2373.9,670.049,2377.6,670.853,2377.6,670.853Z" transform="translate(-2322.047 -489.026)" fill="#374f46"/>
          <path id="Trazado_109323" data-name="Trazado 109323" d="M2385.84,693.707s.266-4.7,4.039-6.962,5.414-.7,6.072-.326a4.981,4.981,0,0,1,2.451,5.44A11.252,11.252,0,0,1,2385.84,693.707Z" transform="translate(-2328.159 -494.004)" fill="#fafafa"/>
          <path id="Trazado_109324" data-name="Trazado 109324" d="M2300.132,645.783a2.338,2.338,0,0,0-1.109,1.362,9.116,9.116,0,0,0,.884,3.375,13.36,13.36,0,0,1,.923,4.7,16.651,16.651,0,0,0,1.813,6.643c1.209,2.511,5.687,5.979,10.522,5.527,3.813-.372,4.185-2.272,4.039-3.142Z" transform="translate(-2299.007 -480.656)" fill="#1f2638"/>
          <path id="Trazado_109325" data-name="Trazado 109325" d="M2312.731,643.341c-.5,1.88-1.561,6.556,1.329,10.516.664.89,1.475,1.88,2.079,2.657,1.229,1.561.9,3.567.664,5.255-.405,2.657-10.07.239-11.505-1.5a13.283,13.283,0,0,1-2.77-6.184c-.405-1.993-.246-3.361-.717-4.823-.518-1.581-1.681-3.467-1.455-4.962.12-.824,1.2-2.2,2.212-3.321s1.687-2.059,2.312-1.814l-.379.6a5.978,5.978,0,0,0,1.993,1.594c.319.186.358,1.534.757,1.614s.286-1,1-1.269C2310.572,640.844,2312.731,643.341,2312.731,643.341Z" transform="translate(-2299.45 -478.42)" fill="#374f46"/>
          <path id="Trazado_109326" data-name="Trazado 109326" d="M2307.75,668.492a8.622,8.622,0,0,1,5.886-4.617c4.145-.744,5.221.864,5.686,1.428s2.524,3.859-.06,5.979A10.046,10.046,0,0,1,2307.75,668.492Z" transform="translate(-2301.942 -486.665)" fill="#fafafa"/>
          <path id="Trazado_109327" data-name="Trazado 109327" d="M2355.776,524.773s0,7.307-1.01,18.945-3.129,22.8-5.945,27.176c-4.238,6.59-22.546,23.6-34.7,37.372,0,0-7.666-1.4-9.625-6.975l24.725-36.867-4.65-35.506Z" transform="translate(-2300.851 -440.03)" fill="#456458"/>
          <path id="Trazado_109328" data-name="Trazado 109328" d="M2341.26,585.183l3.667,13.824-.266,10.336,2.79-2.863s1.581-11.685,1.03-13.95S2341.26,585.183,2341.26,585.183Z" transform="translate(-2313.193 -460.311)" fill="#374f46"/>
          <path id="Trazado_109329" data-name="Trazado 109329" d="M2373.672,541.383a9.516,9.516,0,0,1-2.923,6.091,21.965,21.965,0,0,1-4.059,3.235l2.657,18.68L2363.94,549.4C2367.886,547.72,2371.42,545.541,2373.672,541.383Z" transform="translate(-2320.807 -445.606)" fill="#374f46"/>
          <path id="Trazado_109330" data-name="Trazado 109330" d="M2330.464,525.923a133.872,133.872,0,0,0-.764,13.478,52.766,52.766,0,0,0,2.956,14.495c1.781,5.341,9.818,22.506,10.482,24.392.226.664-.1,8.483,1.442,14.76,3.76,15.331,9.645,32.55,9.645,32.55a15.15,15.15,0,0,0,10.961-2.657s-5.082-49.482-5.766-52.637-6.975-26.079-6.975-26.079,11.293-7.5,11.465-18.155Z" transform="translate(-2309.312 -440.416)" fill="#456458"/>
          <path id="Trazado_109331" data-name="Trazado 109331" d="M2336.485,408.972a3.968,3.968,0,0,0-.432.086,1.993,1.993,0,0,0-1.063-2.245,2.139,2.139,0,0,0-2.77,1.136l3.016,1.375a4.235,4.235,0,0,0-2.3,1.993c-.824,1.7.266,5.314,1.368,9.8a63.267,63.267,0,0,0,2.418,8.257c.511,1.329,1.421,1.329,1.421,1.329v-4.444l-.192-3.7s2.371-3.248,2.657-5.905c.332-3.421-.385-4.816-.385-4.816Z" transform="translate(-2310.157 -400.375)" fill="#1f2638"/>
          <path id="Trazado_109332" data-name="Trazado 109332" d="M2359.56,404.363a7.526,7.526,0,1,0,7.553,7.5,7.527,7.527,0,0,0-7.553-7.5Z" transform="translate(-2316.818 -399.605)" fill="#1f2638"/>
          <path id="Trazado_109333" data-name="Trazado 109333" d="M2337.487,422.992c-.9.771-1.621-1.229-2.371-1.993s-3.2-1.84-4.4.731,1.116,6.184,2.949,7.028a2.852,2.852,0,0,0,3.879-1.455V438.47c2.816,5.082,8.244,4.085,11.133,4.8.525-2.059.99-3.029.664-4.172v-3.64a13.668,13.668,0,0,0,3.687.2c2.431-.385,3.74-2.4,4.47-5.035,1.176-4.245,1.415-11.366-.213-19.6-2.73-2.112-11.957-1.767-17.69,1.867C2340.018,420.162,2338.377,422.215,2337.487,422.992Z" transform="translate(-2309.539 -401.402)" fill="#fce0cb"/>
          <circle id="Elipse_4144" data-name="Elipse 4144" cx="1.143" cy="1.143" r="1.143" transform="translate(35.84 18.694)" fill="#1f2638"/>
          <circle id="Elipse_4145" data-name="Elipse 4145" cx="1.143" cy="1.143" r="1.143" transform="translate(44.502 18.262)" fill="#1f2638"/>
          <path id="Trazado_109334" data-name="Trazado 109334" d="M2353.871,446.07s-5.447-1.076-7.353-2.086a6.263,6.263,0,0,1-2.657-2.591,8.492,8.492,0,0,0,1.5,3.062c1.4,1.774,8.49,3.062,8.49,3.062Z" transform="translate(-2314.065 -412.037)" fill="#fce0cb"/>
          <path id="Trazado_109335" data-name="Trazado 109335" d="M2361.472,401a.8.8,0,0,0-.033-.279.914.914,0,0,0-.179-.472c-.372-.379-1.1.578-1.362.8a9.86,9.86,0,0,1-.784.6,5.893,5.893,0,0,0-.731.438,7.928,7.928,0,0,0,0-2.743c-.113-.6-.279-1.993-1.023-2.139-.445-.093-.83.279-1.163.591-2.976,2.783-6.869,1.495-10.456,1.608-3,.1-6.643,1.329-7.971,4.238-.625,1.329-.731,2.743.5,3.667.79.6,1.561.565,1.993,1.521.106.233.8,3.076.392,3.049a3.128,3.128,0,0,0,3.321-2.292c.073-.306.246-.87.312-1.189a.664.664,0,0,1,.764-.547.764.764,0,0,1,.093.023c.91.2,1.5.571,2.365.8a17.229,17.229,0,0,0,7.56.452,9,9,0,0,0,4.75-2.551A7.133,7.133,0,0,0,2361.472,401Z" transform="translate(-2311.869 -397.201)" fill="#1f2638"/>
          <path id="Trazado_109336" data-name="Trazado 109336" d="M2352.766,421.872l-2.232,1.455a1.4,1.4,0,0,1,.405-1.893A1.329,1.329,0,0,1,2352.766,421.872Z" transform="translate(-2316.235 -405.271)" fill="#1f2638"/>
          <path id="Trazado_109337" data-name="Trazado 109337" d="M2356.482,437.713l3.68.957a1.873,1.873,0,0,1-2.222,1.443l-.063-.015A1.992,1.992,0,0,1,2356.482,437.713Z" transform="translate(-2318.284 -410.802)" fill="#b13326"/>
          <path id="Trazado_109338" data-name="Trazado 109338" d="M2358.579,440.477a1.993,1.993,0,0,0-1.96-1.754h-.159a1.993,1.993,0,0,0,1.428,1.7A1.875,1.875,0,0,0,2358.579,440.477Z" transform="translate(-2318.295 -411.141)" fill="#fce0cb"/>
          <path id="Trazado_109339" data-name="Trazado 109339" d="M2369.618,422.357l-2.438-1.123a1.289,1.289,0,0,1,1.688-.688l.052.023A1.4,1.4,0,0,1,2369.618,422.357Z" transform="translate(-2321.894 -405.005)" fill="#1f2638"/>
          <path id="Trazado_109340" data-name="Trazado 109340" d="M2360.48,424.693l.651,7.334,3.8-1.355Z" transform="translate(-2319.645 -406.431)" fill="#fce0cb"/>
          <path id="Trazado_109341" data-name="Trazado 109341" d="M2400.424,484.084c-2.816,2.305-4.49,2.743-8.3,0-3.082-2.053-15.657-10.841-15.657-10.841l-1.913-16.9c2.033.392,3.322,1.747,9.207,7.021,3.255,2.916,11.891,10.828,11.891,10.828,1.262-1.588,8.038-9.679,9.333-11.465a17.647,17.647,0,0,0,2.7-4.849c.286-.877.558-1.774.93-2.657a13.7,13.7,0,0,1,1.182-2.086c.418-.6.8-1.408,1.209-1.993a.876.876,0,0,1,.266-.292.665.665,0,0,1,.777.2,3.432,3.432,0,0,1,.438,1.993,7.092,7.092,0,0,1-.359,1.468A3.673,3.673,0,0,0,2411.9,456a2.383,2.383,0,0,0,1.661-.565,19.987,19.987,0,0,0,4.165-4.3,13.891,13.891,0,0,1,1.587-1.993,1.74,1.74,0,0,1,1.249-.345,1.839,1.839,0,0,1,1.043.664,9.525,9.525,0,0,1,1.534,3.375c.359,1.707.365,4.138-6.078,9.24-.771.611-3,2.046-3.806,3.321-1.78,2.743-9.924,15.365-11.26,17.025Z" transform="translate(-2324.369 -414.52)" fill="#fce0cb"/>
          <path id="Trazado_109342" data-name="Trazado 109342" d="M2374.55,459.613c2.418.5,4.371,2.411,7.094,4.956s14.069,12.94,14.069,12.94l4.65-5.381s1.787,5.314,6.131,7.307c0,0-3.727,6.41-6.224,8.775s-4.4,2.225-7.626.272-17.889-12.3-17.889-12.3Z" transform="translate(-2324.369 -418.154)" fill="#456458"/>
          <path id="Trazado_109343" data-name="Trazado 109343" d="M2328.827,452.923a94.116,94.116,0,0,0-10.017,4.8s2.445,14.116,4.916,20.593c2.146,5.64,2.657,28.564,2.657,28.564a73.2,73.2,0,0,0,22.964,1.222,35.61,35.61,0,0,0,11.293-3.321s.126-17.431-1.329-29.069-1-16.607-3.667-18.6c-1.72-1.282-9.3-2.956-9.3-2.956a10.548,10.548,0,0,1-1.495,3.534C2342.239,456.47,2328.827,452.923,2328.827,452.923Z" transform="translate(-2305.656 -415.908)" fill="#374f46"/>
          <path id="Trazado_109344" data-name="Trazado 109344" d="M2361.622,456.843c1.089,20.393-5.52,38.236-12.342,52.518l3.6,2.185s13.95-24.671,12.947-53.056A7.973,7.973,0,0,0,2361.622,456.843Z" transform="translate(-2315.885 -417.224)" fill="#1f2638"/>
          <path id="Trazado_109345" data-name="Trazado 109345" d="M2361.916,465.176s.086-6.377-.033-7.872l-1.993-1.521.738,7.021Z" transform="translate(-2319.447 -416.868)" fill="#ff8c00"/>
          <path id="Trazado_109346" data-name="Trazado 109346" d="M2361.916,465.176s.086-6.377-.033-7.872l-1.993-1.521.738,7.021Z" transform="translate(-2319.447 -416.868)" opacity="0.25" style="isolation: isolate"/>
          <path id="Trazado_109347" data-name="Trazado 109347" d="M2353.132,463.543l-7.7-7.36-2.923,2.073,9.619,8.157Z" transform="translate(-2313.612 -417.003)" fill="#ff8c00"/>
          <path id="Trazado_109348" data-name="Trazado 109348" d="M2353.132,463.543l-7.7-7.36-2.923,2.073,9.619,8.157Z" transform="translate(-2313.612 -417.003)" opacity="0.25" style="isolation: isolate"/>
          <path id="Trazado_109349" data-name="Trazado 109349" d="M2357.92,456.849c1.495.166,3.574,1.016,3.946.465s-.91-5.56-3.262-7.081v2.451A25.174,25.174,0,0,1,2357.92,456.849Z" transform="translate(-2318.786 -415.005)" fill="#456458"/>
          <path id="Trazado_109350" data-name="Trazado 109350" d="M2338.719,445.863v.877c.166.83,1.807,2.763,5.945,4.65s5.188,3.986,5.188,3.986a5.217,5.217,0,0,0-2.611.418c-1.88.664-5.015,3.062-5.906,3.042s-2.125-2.5-4.47-4.956c-1.993-2.066-2.976-3.321-2.976-3.321S2337.112,445.9,2338.719,445.863Z" transform="translate(-2310.718 -413.538)" fill="#456458"/>
          <path id="Trazado_109351" data-name="Trazado 109351" d="M2359.09,474.079a181.412,181.412,0,0,1,.558,22.984c-.1,2.464,3.288,7.613,4.145,7.54s2.591-4.71,2.923-7.427c-.073-6.643-3.919-19.809-5.52-23.383Z" transform="translate(-2319.178 -422.915)" fill="#ff8c00"/>
          <path id="Trazado_109352" data-name="Trazado 109352" d="M2361.315,474.079c-.04-.1-.08-.2-.12-.286l-2.106.286.086.883A3.64,3.64,0,0,0,2361.315,474.079Z" transform="translate(-2319.178 -422.915)" opacity="0.15" style="isolation: isolate"/>
          <path id="Trazado_109353" data-name="Trazado 109353" d="M2357.809,466.8a3.554,3.554,0,0,1,1.754-.452,4.11,4.11,0,0,1,1.282,1.541,4.652,4.652,0,0,1-.458,3.4,2.544,2.544,0,0,1-2.106.286,4.454,4.454,0,0,1-1.6-1.993A3.989,3.989,0,0,1,2357.809,466.8Z" transform="translate(-2318.369 -420.417)" fill="#ff8c00"/>
          <g id="freepik--Briefcase--inject-14" transform="translate(4.254 77.276)">
            <path id="Trazado_109354" data-name="Trazado 109354" d="M2305.424,543.037l1.468-27.1a2.4,2.4,0,0,1,1.07-1.734l.85-.492a.711.711,0,0,1,.744-.053h0l28.318,16.355-3.9,30.019-28.3-16.341h0A.663.663,0,0,1,2305.424,543.037Z" transform="translate(-2305.412 -513.548)" fill="#ff8c00"/>
            <path id="Trazado_109355" data-name="Trazado 109355" d="M2305.424,543.037l1.468-27.1a2.4,2.4,0,0,1,1.07-1.734l.85-.492a.711.711,0,0,1,.744-.053h0l28.318,16.355-3.9,30.019-28.3-16.341h0A.663.663,0,0,1,2305.424,543.037Z" transform="translate(-2305.412 -513.548)" opacity="0.4" style="isolation: isolate"/>
            <path id="Trazado_109356" data-name="Trazado 109356" d="M2353.223,565.69l-4.278,2.471c-.551.319-.977.06-.937-.578l1.468-27.1a2.372,2.372,0,0,1,1.07-1.74l.844-.492a.664.664,0,0,1,1.063.578l1.714,25.123A2.072,2.072,0,0,1,2353.223,565.69Z" transform="translate(-2319.711 -521.787)" fill="#ff8c00"/>
            <path id="Trazado_109357" data-name="Trazado 109357" d="M2353.223,565.69l-4.278,2.471c-.551.319-.977.06-.937-.578l1.468-27.1a2.372,2.372,0,0,1,1.07-1.74l.844-.492a.664.664,0,0,1,1.063.578l1.714,25.123A2.072,2.072,0,0,1,2353.223,565.69Z" transform="translate(-2319.711 -521.787)" opacity="0.5" style="isolation: isolate"/>
            <path id="Trazado_109358" data-name="Trazado 109358" d="M2333.225,564.254a.385.385,0,0,0,.385-.365l.75-12.694a.385.385,0,0,0-.356-.412h0a.392.392,0,0,0-.412.365l-.75,12.694a.392.392,0,0,0,.365.412Z" transform="translate(-2314.62 -526.037)" fill="#ff8c00"/>
            <path id="Trazado_109359" data-name="Trazado 109359" d="M2316.9,554.874a.392.392,0,0,0,.385-.365l.751-12.694a.392.392,0,0,0-.365-.412.4.4,0,0,0-.412.365l-.744,12.694a.386.386,0,0,0,.357.412h.029Z" transform="translate(-2309.14 -522.889)" fill="#ff8c00"/>
            <path id="Trazado_109360" data-name="Trazado 109360" d="M2331.958,544.734a2.053,2.053,0,0,0,3.076-1.661l.584-10.848a2.4,2.4,0,0,1,1.07-1.734l.844-.485a.752.752,0,0,1,.664-.093l-28.225-16.3h0a.711.711,0,0,0-.744.053l-.85.492a2.4,2.4,0,0,0-1.07,1.74l-.571,10.7a5.653,5.653,0,0,0,2.823,5.221Z" transform="translate(-2305.853 -513.532)" fill="#ff8c00"/>
            <path id="Trazado_109361" data-name="Trazado 109361" d="M2331.958,544.734a2.053,2.053,0,0,0,3.076-1.661l.584-10.848a2.4,2.4,0,0,1,1.07-1.734l.844-.485a.752.752,0,0,1,.664-.093l-28.225-16.3h0a.711.711,0,0,0-.744.053l-.85.492a2.4,2.4,0,0,0-1.07,1.74l-.571,10.7a5.653,5.653,0,0,0,2.823,5.221Z" transform="translate(-2305.853 -513.532)" opacity="0.25" style="isolation: isolate"/>
            <path id="Trazado_109362" data-name="Trazado 109362" d="M2327.638,548.845l-4.105-2.371-.173,2.272,4.112,2.378Z" transform="translate(-2311.437 -524.591)" fill="#ff8c00"/>
          </g>
          <path id="Trazado_109363" data-name="Trazado 109363" d="M2312.6,461.173c-2.192,1.275-3.395,2.033-4.909,6.4-1.329,3.913-7.028,25.508-7.367,28.69s10.768,22.366,14.408,26.691,6.709,6.258,9.3,6.258,3.547-.492,4.65-1.78-5.5-5.979-6.052-7.274a8.631,8.631,0,0,0,4.65,1.209c.478-.033,1.056-.213,1.136-.664a.838.838,0,0,0-.365-.751,3.334,3.334,0,0,0-.791-.379c-1.82-.744-3.129-2.418-4.922-3.222-.664-.312-1.435-.485-2.125-.784-1.535-.664-2.159-2.073-2.843-3.481a125.012,125.012,0,0,1-5.573-15.132l6.463-21.337C2318.953,470.725,2317.046,461.173,2312.6,461.173Z" transform="translate(-2299.448 -418.678)" fill="#fce0cb"/>
          <path id="Trazado_109364" data-name="Trazado 109364" d="M2312.418,460.193c-1.541.425-2.87.957-4.849,5.6s-6.012,22.14-6.776,24.724-1.475,5.786-.664,7.839a56.563,56.563,0,0,0,3.4,6.164,14.653,14.653,0,0,1,4.949-3.275c2.969-1.143,4.517-.339,4.517-.339l-.937-4.53L2318.7,475.6C2319.134,471.559,2319.127,461.057,2312.418,460.193Z" transform="translate(-2299.263 -418.349)" fill="#456458"/>
        </g>
      </g>
      <g id="freepik--Desk--inject-14" transform="translate(10.319 85.477)">
        <g id="freepik--desk--inject-14-2" data-name="freepik--desk--inject-14">
          <g id="freepik--desk--inject-14-3" data-name="freepik--desk--inject-14" transform="translate(0 21.329)">
            <path id="Trazado_109365" data-name="Trazado 109365" d="M2111.661,632.7l-53.6-30.869L2170.522,536.9l53.6,30.869Z" transform="translate(-2058.06 -536.903)" fill="#ff8c00"/>
            <path id="Trazado_109366" data-name="Trazado 109366" d="M2111.661,632.7l-53.6-30.869L2170.522,536.9l53.6,30.869Z" transform="translate(-2058.06 -536.903)" opacity="0.3" style="isolation: isolate"/>
            <path id="Trazado_109367" data-name="Trazado 109367" d="M2058.06,634.643v71l3.235,1.867v-52.4l47.131,27.129v52.4l3.235,1.867v-71Z" transform="translate(-2058.06 -569.717)" fill="#ff8c00"/>
            <path id="Trazado_109368" data-name="Trazado 109368" d="M2058.06,634.643v71l3.235,1.867v-52.4l47.131,27.129v52.4l3.235,1.867v-71Z" transform="translate(-2058.06 -569.717)" opacity="0.5" style="isolation: isolate"/>
            <path id="Trazado_109369" data-name="Trazado 109369" d="M2062.93,717.861l3.235-1.867V667.33l-3.235-1.867Z" transform="translate(-2059.695 -580.064)" fill="#ff8c00"/>
            <path id="Trazado_109370" data-name="Trazado 109370" d="M2062.93,717.861l3.235-1.867V667.33l-3.235-1.867Z" transform="translate(-2059.695 -580.064)" opacity="0.6" style="isolation: isolate"/>
            <path id="Trazado_109371" data-name="Trazado 109371" d="M2138.75,719.3l3.235-1.867v-52.4l105.992-61.187v52.4l3.235-1.867v-71L2138.75,648.3Z" transform="translate(-2085.149 -552.504)" fill="#ff8c00"/>
            <path id="Trazado_109372" data-name="Trazado 109372" d="M2138.75,719.3l3.235-1.867v-52.4l105.992-61.187v52.4l3.235-1.867v-71L2138.75,648.3Z" transform="translate(-2085.149 -552.504)" opacity="0.4" style="isolation: isolate"/>
            <path id="Trazado_109373" data-name="Trazado 109373" d="M2301.545,666.591l-3.235-1.867V616.06l3.235-1.867Z" transform="translate(-2138.717 -562.851)" fill="#ff8c00"/>
            <g id="Grupo_54753" data-name="Grupo 54753" transform="translate(159.593 51.342)" opacity="0.6">
              <path id="Trazado_109374" data-name="Trazado 109374" d="M2301.545,666.591l-3.235-1.867V616.06l3.235-1.867Z" transform="translate(-2298.31 -614.193)"/>
            </g>
          </g>
          <g id="freepik--Sheets--inject-14" transform="translate(35.605 60.702)">
            <g id="Grupo_54754" data-name="Grupo 54754" transform="translate(0.002 3.66)" opacity="0.2">
              <path id="Trazado_109375" data-name="Trazado 109375" d="M2111.94,612.737l23.814,13.751a1.493,1.493,0,0,0,1.329,0l17.524-10.117a.412.412,0,0,0,0-.777l-23.8-13.751a1.477,1.477,0,0,0-1.329,0l-17.53,10.124a.4.4,0,0,0-.006.771Z" transform="translate(-2111.664 -601.685)"/>
            </g>
            <path id="Trazado_109376" data-name="Trazado 109376" d="M2111.94,610.868l23.814,13.751a1.493,1.493,0,0,0,1.329,0L2154.62,614.5c.372-.213.372-.558,0-.777l-23.814-13.744a1.436,1.436,0,0,0-1.329,0l-17.53,10.117a.4.4,0,0,0-.006.771Z" transform="translate(-2111.661 -597.398)" fill="#ebebeb"/>
            <path id="Trazado_109377" data-name="Trazado 109377" d="M2130.057,599.98l-16.647,9.605,22.931,13.239a1.493,1.493,0,0,0,1.329,0l16.653-9.605-22.931-13.239A1.434,1.434,0,0,0,2130.057,599.98Z" transform="translate(-2112.248 -597.397)" fill="#e0e0e0"/>
            <path id="Trazado_109378" data-name="Trazado 109378" d="M2111.939,607.227l23.814,13.751a1.493,1.493,0,0,0,1.329,0l17.524-10.124a.405.405,0,0,0,0-.771l-23.814-13.75a1.475,1.475,0,0,0-1.328,0l-17.53,10.117a.412.412,0,0,0,.007.777Z" transform="translate(-2111.66 -596.175)" fill="#fafafa"/>
          </g>
          <g id="freepik--Pen--inject-14" transform="translate(19.953 78.29)">
            <path id="Trazado_109379" data-name="Trazado 109379" d="M2088.166,626.54l17.65,10.2,3.016.611a.092.092,0,0,0,.108-.075.089.089,0,0,0-.008-.058l-.97-1.734-17.656-10.2C2089.74,624.939,2087.7,626.267,2088.166,626.54Z" transform="translate(-2088.097 -623.517)" opacity="0.2" style="isolation: isolate"/>
            <g id="freepik--pen--inject-14-2" data-name="freepik--pen--inject-14" transform="translate(0.548)">
              <path id="Trazado_109380" data-name="Trazado 109380" d="M2090.382,622.713l.093.033-.173-.093h-.206a.706.706,0,0,0-.365.113,1.774,1.774,0,0,0-.8,1.395.968.968,0,0,0,0,.206h0v.04a.52.52,0,0,0,.066.12h.033l.193.113-.086-.066a.664.664,0,0,0,.465-.1,1.8,1.8,0,0,0,.81-1.4A.625.625,0,0,0,2090.382,622.713Zm-1.2,1.933" transform="translate(-2088.922 -622.653)" fill="#ff8c00"/>
              <path id="Trazado_109381" data-name="Trazado 109381" d="M2107.43,632.508l-1.143,1.993-.193-.113-16.653-9.612-.086-.066a.664.664,0,0,1-.146-.458,1.773,1.773,0,0,1,.81-1.4.737.737,0,0,1,.359-.106h.1l.093.033h0Z" transform="translate(-2089.018 -622.683)" fill="#f0f0f0"/>
              <path id="Trazado_109382" data-name="Trazado 109382" d="M2115.364,637.477c.452-.259.811-.053.811.465a1.774,1.774,0,0,1-.811,1.4c-.445.259-.8.047-.8-.465A1.774,1.774,0,0,1,2115.364,637.477Z" transform="translate(-2097.529 -627.592)" fill="#ff8c00"/>
              <path id="Trazado_109383" data-name="Trazado 109383" d="M2117.127,638.71h0l-1.029-1.136h0a.531.531,0,0,0-.664,0,1.773,1.773,0,0,0-.8,1.4c0,.3.12.492.313.551h.06l1.495.325a.354.354,0,0,0,.259-.053,1.009,1.009,0,0,0,.465-.8A.35.35,0,0,0,2117.127,638.71Z" transform="translate(-2097.552 -627.623)" fill="#e0e0e0"/>
              <path id="Trazado_109384" data-name="Trazado 109384" d="M2098.235,628.243h-.033a.222.222,0,0,0-.186,0,.663.663,0,0,0-.285.5.219.219,0,0,0,.066.173h0l12.289,7.094.81-.472Z" transform="translate(-2091.879 -624.523)" fill="#456458"/>
              <path id="Trazado_109385" data-name="Trazado 109385" d="M2114.67,638.634l1.136.664.811-.472-1.548-.9A1.931,1.931,0,0,0,2114.67,638.634Z" transform="translate(-2097.566 -627.779)" fill="#374f46"/>
              <path id="Trazado_109386" data-name="Trazado 109386" d="M2118,639.577h0l-.937-1.03v-.033a.387.387,0,0,0-.465,0,1.268,1.268,0,0,0-.571.99.37.37,0,0,0,.219.392h.046l1.375.3h0a.21.21,0,0,0,.146-.033.571.571,0,0,0,.259-.452A.188.188,0,0,0,2118,639.577Z" transform="translate(-2098.021 -627.952)" fill="#ff8c00"/>
              <path id="Trazado_109387" data-name="Trazado 109387" d="M2118,639.577h0l-.937-1.03v-.033a.387.387,0,0,0-.465,0,1.268,1.268,0,0,0-.571.99.37.37,0,0,0,.219.392h.046l1.375.3h0a.21.21,0,0,0,.146-.033.571.571,0,0,0,.259-.452A.188.188,0,0,0,2118,639.577Z" transform="translate(-2098.021 -627.952)" opacity="0.1" style="isolation: isolate"/>
              <path id="Trazado_109388" data-name="Trazado 109388" d="M2118.432,640a.571.571,0,0,1-.259.452.21.21,0,0,1-.146.033h0l-.7-.153c-.106,0-.179-.126-.179-.292a.911.911,0,0,1,.418-.717.266.266,0,0,1,.332,0h0l.465.511h0A.186.186,0,0,1,2118.432,640Z" transform="translate(-2098.398 -628.23)" fill="#ff8c00"/>
              <path id="Trazado_109389" data-name="Trazado 109389" d="M2118.559,640.136a.159.159,0,0,1,.259.146.571.571,0,0,1-.259.452.161.161,0,0,1-.259-.153A.55.55,0,0,1,2118.559,640.136Z" transform="translate(-2098.785 -628.511)" opacity="0.1" style="isolation: isolate"/>
              <path id="Trazado_109390" data-name="Trazado 109390" d="M2093.641,625.579a.2.2,0,0,0-.206,0,.665.665,0,0,0-.286.5.213.213,0,0,0,.086.186h0l3.022,1.74a.218.218,0,0,1-.066-.173.663.663,0,0,1,.285-.5.223.223,0,0,1,.186,0Z" transform="translate(-2090.341 -623.626)" fill="#fafafa"/>
              <path id="Trazado_109391" data-name="Trazado 109391" d="M2093.711,625.815a.618.618,0,0,1-.286.492.186.186,0,0,1-.2,0,.192.192,0,0,1-.086-.179.664.664,0,0,1,.286-.5.2.2,0,0,1,.206,0A.206.206,0,0,1,2093.711,625.815Z" transform="translate(-2090.337 -623.642)" fill="#f5f5f5"/>
              <path id="Trazado_109392" data-name="Trazado 109392" d="M2091.826,623.669h0l-1.2-.664h0a.52.52,0,0,0-.491.06,1.608,1.608,0,0,0-.731,1.262.5.5,0,0,0,.213.472h0l1.209.664h0a.51.51,0,0,0,.5-.053,1.609,1.609,0,0,0,.73-1.262A.532.532,0,0,0,2091.826,623.669Z" transform="translate(-2089.084 -622.759)" fill="#ff8c00"/>
              <path id="Trazado_109393" data-name="Trazado 109393" d="M2091.826,623.669h0l-1.2-.664h0a.52.52,0,0,0-.491.06,1.608,1.608,0,0,0-.731,1.262.5.5,0,0,0,.213.472h0l1.209.664h0a.51.51,0,0,0,.5-.053,1.609,1.609,0,0,0,.73-1.262A.532.532,0,0,0,2091.826,623.669Z" transform="translate(-2089.084 -622.759)" opacity="0.05" style="isolation: isolate"/>
              <path id="Trazado_109394" data-name="Trazado 109394" d="M2091.884,624.042c.405-.233.731-.047.731.418a1.608,1.608,0,0,1-.731,1.262c-.4.233-.724.04-.724-.425A1.613,1.613,0,0,1,2091.884,624.042Z" transform="translate(-2089.673 -623.086)" opacity="0.1" style="isolation: isolate"/>
              <path id="Trazado_109395" data-name="Trazado 109395" d="M2119.214,640.645h0l-.491-.3h0a.093.093,0,0,0-.1,0,.293.293,0,0,0-.133.226c0,.047,0,.073.04.086h0l.491.3h0a.219.219,0,0,0,.093,0,.193.193,0,0,0,.186-.193A.189.189,0,0,0,2119.214,640.645Z" transform="translate(-2098.848 -628.588)" fill="#456458"/>
              <path id="Trazado_109396" data-name="Trazado 109396" d="M2119.509,640.828h0a.109.109,0,0,0-.086,0,.3.3,0,0,0-.133.232.094.094,0,0,0,.04.086h.06a.192.192,0,0,0,.186-.193A.182.182,0,0,0,2119.509,640.828Z" transform="translate(-2099.117 -628.752)" fill="#1f2638"/>
            </g>
          </g>
          <g id="freepik--shadow--inject-14" transform="translate(46.43 101.292)" opacity="0.2">
            <path id="Trazado_109397" data-name="Trazado 109397" d="M2140.108,658.484c2.777,1.6,2.777,4.2,0,5.813a11.158,11.158,0,0,1-10.07,0c-2.777-1.608-2.777-4.212,0-5.812A11.121,11.121,0,0,1,2140.108,658.484Z" transform="translate(-2127.955 -657.279)"/>
          </g>
          <g id="freepik--Pot--inject-14" transform="translate(46.715 86.782)">
            <path id="Trazado_109398" data-name="Trazado 109398" d="M2139.276,658.848c2.245-2.292,3.561-8.011,1.375-9.825H2129.5c-2.186,1.813-.87,7.533,1.375,9.825l.06.06.08.08.2.179.06.04.166.126a1.938,1.938,0,0,0,.292.186,7.361,7.361,0,0,0,6.683,0h0a2.684,2.684,0,0,0,.292-.186l.159-.12.067-.053a2.354,2.354,0,0,0,.2-.173l.086-.086Z" transform="translate(-2128.385 -639.997)" fill="#ebebeb"/>
            <path id="Trazado_109399" data-name="Trazado 109399" d="M2130.566,647.367c-2.544,1.468-2.544,3.846,0,5.314a10.174,10.174,0,0,0,9.207,0c2.544-1.468,2.544-3.846,0-5.314A10.178,10.178,0,0,0,2130.566,647.367Z" transform="translate(-2128.477 -639.072)" fill="#fafafa"/>
            <path id="Trazado_109400" data-name="Trazado 109400" d="M2133.656,649.146c-1.541.9-1.541,2.345,0,3.235a6.215,6.215,0,0,0,5.606,0c1.541-.89,1.541-2.338,0-3.235A6.219,6.219,0,0,0,2133.656,649.146Z" transform="translate(-2129.767 -639.814)" fill="#ebebeb"/>
            <path id="Trazado_109401" data-name="Trazado 109401" d="M2139.38,651.456a6.219,6.219,0,0,0-5.606,0,2.659,2.659,0,0,0-.923.85,2.565,2.565,0,0,0,.923.85,6.215,6.215,0,0,0,5.606,0,2.567,2.567,0,0,0,.923-.85A2.659,2.659,0,0,0,2139.38,651.456Z" transform="translate(-2129.884 -640.59)" fill="#456458"/>
            <path id="Trazado_109402" data-name="Trazado 109402" d="M2141.111,640.795a5.361,5.361,0,1,0-7.925,4.71,1.534,1.534,0,0,1,.771,1.328v.093a5.741,5.741,0,0,0,3.587,0v-.1a1.6,1.6,0,0,1,.85-1.388A5.373,5.373,0,0,0,2141.111,640.795Z" transform="translate(-2129.058 -635.436)" fill="#ff8c00"/>
            <path id="Trazado_109403" data-name="Trazado 109403" d="M2138.62,636.191a.154.154,0,0,1-.113-.047,1.922,1.922,0,0,0-.232-.213.159.159,0,0,1-.007-.225l.007-.007a.166.166,0,0,1,.232,0s.1.086.253.239a.166.166,0,0,1-.119.279Z" transform="translate(-2131.688 -635.508)" fill="#fafafa"/>
            <path id="Trazado_109404" data-name="Trazado 109404" d="M2140.118,646.381a.152.152,0,0,1-.073,0,.166.166,0,0,1-.073-.219c.1-.206.219-.419.346-.624a.173.173,0,0,1,.232-.047.166.166,0,0,1,.053.226c-.126.2-.239.4-.339.591A.159.159,0,0,1,2140.118,646.381Zm.957-1.853h-.053a.173.173,0,0,1-.106-.213c.066-.206.126-.425.179-.664a.166.166,0,0,1,.2-.126h0a.166.166,0,0,1,.126.2h0a5.647,5.647,0,0,1-.192.664.152.152,0,0,1-.153.139Zm.352-2.046h0a.166.166,0,0,1-.159-.172h0v-.684a.166.166,0,0,1,.159-.173h0a.153.153,0,0,1,.172.132.133.133,0,0,1,0,.028v.7A.172.172,0,0,1,2141.427,642.482Zm-.186-2.079a.173.173,0,0,1-.166-.126,5.2,5.2,0,0,0-.179-.664.166.166,0,0,1,.106-.206.16.16,0,0,1,.207.09l.005.017a6.456,6.456,0,0,1,.186.664.166.166,0,0,1-.125.2h0Zm-.757-1.946a.165.165,0,0,1-.146-.08,6.6,6.6,0,0,0-.352-.585.166.166,0,0,1,.04-.226.16.16,0,0,1,.224.028l.009.012a6.382,6.382,0,0,1,.385.591.173.173,0,0,1-.06.232Z" transform="translate(-2132.27 -636.14)" fill="#fafafa"/>
            <path id="Trazado_109405" data-name="Trazado 109405" d="M2139.482,653.02a.159.159,0,0,1-.16-.14,1.132,1.132,0,0,1,0-.372.167.167,0,0,1,.332.033h0a1.426,1.426,0,0,0,0,.292.166.166,0,0,1-.139.186Z" transform="translate(-2132.052 -641.118)" fill="#fafafa"/>
            <path id="Trazado_109406" data-name="Trazado 109406" d="M2138.376,653.017a.166.166,0,0,1-.166-.166v-.332a.166.166,0,1,1,.332,0v.332A.166.166,0,0,1,2138.376,653.017Z" transform="translate(-2131.684 -641.115)" fill="#fafafa"/>
            <path id="Trazado_109407" data-name="Trazado 109407" d="M2138.376,646.592a.166.166,0,0,1-.166-.166V645.8a.166.166,0,0,1,.332,0v.631A.166.166,0,0,1,2138.376,646.592Zm0-1.9a.166.166,0,0,1-.166-.166v-.664a.166.166,0,1,1,.332,0v.664a.166.166,0,0,1-.152.179h-.014Zm0-1.9a.166.166,0,0,1-.166-.166v-.664a.166.166,0,0,1,.332,0v.664a.166.166,0,0,1-.152.179h-.014Zm0-1.906a.166.166,0,0,1-.166-.166v-.631a.166.166,0,1,1,.332,0v.631a.166.166,0,0,1-.152.179h-.014Zm0-1.9a.166.166,0,0,1-.166-.166v-.631a.166.166,0,0,1,.332,0v.631a.166.166,0,0,1-.152.179h-.014Z" transform="translate(-2131.684 -636.305)" fill="#fafafa"/>
            <path id="Trazado_109408" data-name="Trazado 109408" d="M2138.376,636.311a.166.166,0,0,1-.166-.166v-.306a.166.166,0,1,1,.332,0v.332A.166.166,0,0,1,2138.376,636.311Z" transform="translate(-2131.684 -635.516)" fill="#fafafa"/>
            <path id="Trazado_109409" data-name="Trazado 109409" d="M2140.857,645.78a.134.134,0,0,1-.119-.239c.133-.153.259-.312.385-.478a.166.166,0,0,1,.231-.041h0a.166.166,0,0,1,.033.232h0a6.068,6.068,0,0,1-.405.5A.155.155,0,0,1,2140.857,645.78Zm1.083-1.627a.138.138,0,0,1-.073,0,.166.166,0,0,1-.082-.22l0-.006c.1-.193.186-.392.266-.591a.167.167,0,0,1,.312.12h0c-.086.213-.179.418-.279.624a.159.159,0,0,1-.146.093Zm.664-1.88h-.033a.159.159,0,0,1-.127-.186v-.007c.04-.213.073-.425.1-.664a.164.164,0,1,1,.326.038v0a3.828,3.828,0,0,1-.1.664.173.173,0,0,1-.172.173h-.014Zm.12-1.993a.165.165,0,0,1-.166-.153,4.148,4.148,0,0,0-.1-.624.173.173,0,0,1,.12-.206.179.179,0,0,1,.206.126,4.694,4.694,0,0,1,.106.664.166.166,0,0,1-.151.179h0Zm-.6-1.88a.172.172,0,0,1-.146-.086,5.444,5.444,0,0,0-.359-.531.166.166,0,0,1,.266-.2,5.29,5.29,0,0,1,.379.565.173.173,0,0,1-.06.233.176.176,0,0,1-.1.047Zm-1.3-1.5a.2.2,0,0,1-.106-.033,5.434,5.434,0,0,0-.525-.372.166.166,0,1,1,.173-.279,4.462,4.462,0,0,1,.558.392.16.16,0,0,1,.007.225l-.007.007a.167.167,0,0,1-.12.086Zm-1.767-.89h-.04a2.884,2.884,0,0,0-.618-.073.166.166,0,0,1,0-.332,3.19,3.19,0,0,1,.664.08.183.183,0,0,1-.027.352Z" transform="translate(-2131.694 -635.492)" fill="#fafafa"/>
            <path id="Trazado_109410" data-name="Trazado 109410" d="M2138.017,636.177a.167.167,0,0,1-.164-.168.169.169,0,0,1,.044-.111c.153-.153.252-.239.252-.239a.166.166,0,0,1,.232,0,.159.159,0,0,1,.007.225l-.007.007a2.95,2.95,0,0,0-.232.213A.151.151,0,0,1,2138.017,636.177Z" transform="translate(-2131.564 -635.495)" fill="#fafafa"/>
            <path id="Trazado_109411" data-name="Trazado 109411" d="M2135.975,646.409a.159.159,0,0,1-.146-.093c-.1-.193-.213-.392-.339-.591a.166.166,0,0,1,.053-.226.173.173,0,0,1,.232.047c.126.206.246.419.345.624a.16.16,0,0,1-.066.216l-.007,0A.15.15,0,0,1,2135.975,646.409Zm-.957-1.853a.153.153,0,0,1-.153-.113c-.073-.219-.139-.452-.193-.664a.165.165,0,0,1,.125-.2h0a.166.166,0,0,1,.2.125h0c.053.226.113.445.179.664a.173.173,0,0,1-.106.213Zm-.352-2.046a.172.172,0,0,1-.166-.166v-.7a.16.16,0,0,1,.159-.16h.014a.167.167,0,0,1,.159.173h0v.684a.165.165,0,0,1-.159.173h-.007Zm.186-2.079h-.02a.173.173,0,0,1-.126-.2,6.4,6.4,0,0,1,.186-.664.159.159,0,0,1,.2-.112l.017.005a.166.166,0,0,1,.106.206,5.2,5.2,0,0,0-.179.664.172.172,0,0,1-.2.1Zm.764-1.933a.189.189,0,0,1-.086,0,.173.173,0,0,1-.06-.232c.12-.2.246-.4.385-.591a.166.166,0,0,1,.272.186,6.6,6.6,0,0,0-.372.578.164.164,0,0,1-.139.046Z" transform="translate(-2130.438 -636.168)" fill="#fafafa"/>
            <path id="Trazado_109412" data-name="Trazado 109412" d="M2137.279,653.02h0a.166.166,0,0,1-.14-.186,1.392,1.392,0,0,0,0-.292.167.167,0,0,1,.151-.179h0a.166.166,0,0,1,.179.146,1.634,1.634,0,0,1,0,.372A.173.173,0,0,1,2137.279,653.02Z" transform="translate(-2131.324 -641.118)" fill="#fafafa"/>
            <path id="Trazado_109413" data-name="Trazado 109413" d="M2133.726,645.776a.164.164,0,0,1-.126-.06,6.071,6.071,0,0,1-.405-.5.166.166,0,0,1,.033-.232h0a.167.167,0,0,1,.232.039h0c.126.166.252.326.385.478a.166.166,0,0,1,0,.233A.152.152,0,0,1,2133.726,645.776Zm-1.089-1.627a.159.159,0,0,1-.146-.093c-.1-.206-.192-.412-.272-.624a.16.16,0,0,1,.084-.209l.009,0a.166.166,0,0,1,.212.093c.08.2.166.4.266.6a.166.166,0,0,1-.073.219Zm-.664-1.88a.159.159,0,0,1-.159-.133,6.045,6.045,0,0,1-.106-.664.165.165,0,0,1,.144-.185h0a.173.173,0,0,1,.186.146,5.355,5.355,0,0,0,.1.664.173.173,0,0,1-.133.193Zm-.12-1.993h0a.165.165,0,0,1-.153-.178h0a3.958,3.958,0,0,1,.113-.664.166.166,0,0,1,.2-.126h0a.173.173,0,0,1,.12.206,4.148,4.148,0,0,0-.1.624.166.166,0,0,1-.133.166Zm.6-1.88a.178.178,0,0,1-.08,0,.173.173,0,0,1-.06-.232,5.252,5.252,0,0,1,.378-.565.16.16,0,0,1,.222-.041l.011.008a.166.166,0,0,1,.033.233h0a5.386,5.386,0,0,0-.359.531.166.166,0,0,1-.126.093Zm1.3-1.5a.164.164,0,0,1-.126-.06.159.159,0,0,1-.007-.225l.007-.007a4.424,4.424,0,0,1,.558-.392.166.166,0,1,1,.217.252.162.162,0,0,1-.044.027,5.5,5.5,0,0,0-.525.372.2.2,0,0,1-.06.06Zm1.767-.89a.165.165,0,0,1-.159-.133.173.173,0,0,1,.119-.2,3.246,3.246,0,0,1,.7-.08.166.166,0,0,1,0,.332,2.88,2.88,0,0,0-.618.073Z" transform="translate(-2129.498 -635.489)" fill="#fafafa"/>
          </g>
          <g id="freepik--Pencil--inject-14" transform="translate(15.226 83.191)">
            <path id="freepik--shadow--inject-14-2" data-name="freepik--shadow--inject-14" d="M2099.979,641.143c-.213.591-.85.963-1.907,1.1l-15.052-8.815-1.993-1.993a.153.153,0,0,1,.159-.252l3.6,1.2Z" transform="translate(-2080.981 -630.412)" opacity="0.2" style="isolation: isolate"/>
            <path id="Trazado_109414" data-name="Trazado 109414" d="M2084.868,630.663l-3.208-.631a.1.1,0,0,0-.118.077.1.1,0,0,0,.025.089l2.179,2.464Z" transform="translate(-2081.168 -630.03)" fill="#fce0cb"/>
            <path id="Trazado_109415" data-name="Trazado 109415" d="M2081.566,630.2a.1.1,0,0,1,0-.141.1.1,0,0,1,.09-.025l.664.126h0a.532.532,0,0,0-.259.511v.053Z" transform="translate(-2081.168 -630.03)" fill="#1f2638"/>
            <path id="Trazado_109416" data-name="Trazado 109416" d="M2096.786,639.838l-.259-.146-.319-.179-11.379-6.53a1.475,1.475,0,0,1,.086-1.063,1.5,1.5,0,0,1,1.036-.937l11.373,6.523.6.345C2097.543,637.652,2096.388,639.632,2096.786,639.838Z" transform="translate(-2082.253 -630.35)" fill="#456458"/>
            <path id="Trazado_109417" data-name="Trazado 109417" d="M2101.017,642.28l-.591-.339c-.173-.093-.073-.518.133-.957.266-.585.791-1.149,1.023-1.03l.432.252.153.086c-.233-.12-.757.445-1.023,1.03-.193.418-.292.83-.146.943h0Z" transform="translate(-2087.479 -633.356)" fill="#ebebeb"/>
            <path id="Trazado_109418" data-name="Trazado 109418" d="M2101.1,642.318c-.405-.213.744-2.2,1.149-1.993l.584.339c-.4-.213-1.548,1.767-1.149,1.993Z" transform="translate(-2087.706 -633.481)" fill="#ff8c00"/>
            <path id="Trazado_109419" data-name="Trazado 109419" d="M2102.524,643.138l-.578-.326c-.4-.213.664-2.132,1.116-1.993h0l.578.332C2103.281,640.952,2102.125,642.932,2102.524,643.138Z" transform="translate(-2087.99 -633.65)" fill="#ebebeb"/>
            <path id="Trazado_109420" data-name="Trazado 109420" d="M2081.552,630.093l.106-.06,2.332,1.275,12.03,6.9c0-.033.04-.033.06,0-.345.538-.6,1.209-.379,1.329l-.259-.146-.319-.179-11.379-6.53h0l-2.179-2.464A.106.106,0,0,1,2081.552,630.093Z" transform="translate(-2081.168 -630.031)" opacity="0.15" style="isolation: isolate"/>
            <path id="Trazado_109421" data-name="Trazado 109421" d="M2105.273,644.71l-2.458-1.408c-.173-.086-.073-.5.126-.943.266-.585.784-1.156,1.016-1.043h0l2.465,1.408c.491.286.04,1.329-.5,1.82A.6.6,0,0,1,2105.273,644.71Z" transform="translate(-2088.282 -633.814)" fill="#fce0cb"/>
            <path id="Trazado_109422" data-name="Trazado 109422" d="M2106.319,644.658a1.781,1.781,0,0,1,1-1.209.392.392,0,0,1,.372.047c.365.345-.06,1.329-.578,1.767a.59.59,0,0,1-.664.166C2106.3,645.323,2106.226,645.037,2106.319,644.658Z" transform="translate(-2089.474 -634.526)" opacity="0.1" style="isolation: isolate"/>
          </g>
          <g id="freepik--Coffee--inject-14" transform="translate(82.023 66.261)">
            <path id="freepik--shadow--inject-14-3" data-name="freepik--shadow--inject-14" d="M2183.861,629.312c-2.584,1.428-2.584,3.747,0,5.175a10.715,10.715,0,0,0,9.34,0c2.584-1.428,2.584-3.747,0-5.175A10.715,10.715,0,0,0,2183.861,629.312Z" transform="translate(-2181.666 -612.5)" opacity="0.1" style="isolation: isolate"/>
            <g id="freepik--coffee--inject-14-2" data-name="freepik--coffee--inject-14">
              <path id="Trazado_109423" data-name="Trazado 109423" d="M2192.919,616.862a13.57,13.57,0,0,0-8.224.213c-2.206.9-2.172,2.285.08,3.076a13.539,13.539,0,0,0,8.224-.213C2195.284,619.027,2195.25,617.652,2192.919,616.862Z" transform="translate(-2182.049 -608.499)" fill="#1f2638"/>
              <path id="Trazado_109424" data-name="Trazado 109424" d="M2194.574,612.843l-11.844.319,1.262,13.95h0c.073.5.558,1,1.475,1.329a10.448,10.448,0,0,0,7.1-.179c.93-.412,1.408-.93,1.455-1.435h0Z" transform="translate(-2181.938 -607.33)" fill="#fafafa"/>
              <path id="Trazado_109425" data-name="Trazado 109425" d="M2182.73,613.162l.259,2.83a4.85,4.85,0,0,0,1,.5,14.37,14.37,0,0,0,9.433-.239l.312-.153a6.822,6.822,0,0,0,.731-.438l.106-2.823Z" transform="translate(-2181.938 -607.33)" fill="#ebebeb"/>
              <path id="Trazado_109426" data-name="Trazado 109426" d="M2194.945,611.905l-.06-2.139-1.382.04c-.186-.093-.385-.179-.611-.266a14.382,14.382,0,0,0-9.433.246,5.679,5.679,0,0,0-.571.292l-1.329.033.053,2.139h0c0,.664.664,1.368,1.993,1.867a14.37,14.37,0,0,0,9.433-.246C2194.314,613.307,2194.958,612.6,2194.945,611.905Z" transform="translate(-2181.545 -605.994)" fill="#374f46"/>
              <path id="Trazado_109427" data-name="Trazado 109427" d="M2192.845,607.071a14.4,14.4,0,0,0-9.439.246c-2.531,1.123-2.484,2.843.1,3.839a14.388,14.388,0,0,0,9.439-.246C2195.562,609.781,2195.522,608.074,2192.845,607.071Z" transform="translate(-2181.537 -605.165)" fill="#456458"/>
              <path id="Trazado_109428" data-name="Trazado 109428" d="M2194.23,608.62h0l-.471-1.747-3.388.086a13.939,13.939,0,0,0-3.368.086l-3.288.086-.385,1.767h0c-.2.664.325,1.329,1.574,1.76a12.325,12.325,0,0,0,7.779-.2C2193.958,609.935,2194.463,609.251,2194.23,608.62Z" transform="translate(-2182.125 -605.326)" fill="#374f46"/>
              <path id="Trazado_109429" data-name="Trazado 109429" d="M2192.461,605a11.962,11.962,0,0,0-7.147.186c-1.92.777-1.887,1.993.073,2.657a11.955,11.955,0,0,0,7.141-.186C2194.513,606.862,2194.48,605.679,2192.461,605Z" transform="translate(-2182.328 -604.544)" fill="#456458"/>
              <path id="Trazado_109430" data-name="Trazado 109430" d="M2193.666,606.651a.616.616,0,0,1-.219.259,3.313,3.313,0,0,1-.811.438,10.555,10.555,0,0,1-3.321.591,9.843,9.843,0,0,1-3.321-.418,2.982,2.982,0,0,1-.811-.4c-.166-.126-.213-.226-.213-.246s.166-.365.983-.7a10.062,10.062,0,0,1,3.321-.591,10.371,10.371,0,0,1,3.375.419C2193.439,606.293,2193.659,606.592,2193.666,606.651Z" transform="translate(-2182.689 -604.892)" fill="#1f2638"/>
              <path id="Trazado_109431" data-name="Trazado 109431" d="M2193.554,607.166a3.311,3.311,0,0,1-.811.438,10.552,10.552,0,0,1-3.321.591,9.841,9.841,0,0,1-3.321-.418,2.981,2.981,0,0,1-.811-.4,3.062,3.062,0,0,1,.784-.438,9.886,9.886,0,0,1,3.321-.591,10.374,10.374,0,0,1,3.375.418A3.106,3.106,0,0,1,2193.554,607.166Z" transform="translate(-2182.797 -605.147)" fill="#374f46"/>
              <g id="Grupo_54755" data-name="Grupo 54755" transform="translate(8.43 1.924)" opacity="0.5">
                <path id="Trazado_109432" data-name="Trazado 109432" d="M2194.548,607.628a1,1,0,0,1,.79-.166c.146.073,0,.279-.259.458a1,1,0,0,1-.784.173C2194.143,608.007,2194.256,607.8,2194.548,607.628Z" transform="translate(-2194.228 -607.441)"/>
              </g>
              <path id="Trazado_109433" data-name="Trazado 109433" d="M2183.532,624.8c0,.525.551,1.036,1.614,1.408a12.806,12.806,0,0,0,7.746-.2c1.076-.432,1.608-.97,1.594-1.495l.206-5.128c0,.558-.552,1.129-1.694,1.581a13.539,13.539,0,0,1-8.224.213c-1.123-.392-1.7-.937-1.714-1.495Z" transform="translate(-2182.048 -609.526)" fill="#456458"/>
              <path id="Trazado_109434" data-name="Trazado 109434" d="M2188.135,626.825a8.432,8.432,0,0,1-.485-.857,2.537,2.537,0,0,0-1.368-1.143.153.153,0,0,0-.2.074l0,.006a1.993,1.993,0,0,0,2.564,2.464c.033,0,.047-.086,0-.1A1.715,1.715,0,0,1,2188.135,626.825Z" transform="translate(-2183.031 -611.348)" fill="#ff8c00"/>
              <path id="Trazado_109435" data-name="Trazado 109435" d="M2186.826,624.344a3,3,0,0,1,.857.5,2.517,2.517,0,0,1,.664.817,2.547,2.547,0,0,0,.8,1,.166.166,0,0,0,.232-.039h0a1.768,1.768,0,0,0-.472-2.152,1.82,1.82,0,0,0-2.079-.419.15.15,0,0,0-.166.146A.14.14,0,0,0,2186.826,624.344Z" transform="translate(-2183.257 -611.039)" fill="#ff8c00"/>
            </g>
          </g>
          <path id="freepik--shadow--inject-14-4" data-name="freepik--shadow--inject-14" d="M2212.3,605.661l44-25.4a1.951,1.951,0,0,1,1.74,0l1.521.883c.485.279.485.731,0,1l-43.989,25.4a1.914,1.914,0,0,1-1.74,0l-1.528-.883a.532.532,0,0,1,0-1Z" transform="translate(-2109.722 -530.061)" opacity="0.2" style="isolation: isolate"/>
          <g id="freepik--Device--inject-14" transform="translate(69.663)">
            <path id="Trazado_109436" data-name="Trazado 109436" d="M2162.93,574.6V574.3a1.634,1.634,0,0,1,.744-1.282l43.663-25.189a1.624,1.624,0,0,1,1.481,0l8.935,5.161a1.628,1.628,0,0,1,.744,1.282v.292a1.628,1.628,0,0,1-.744,1.282l-43.663,25.243a1.619,1.619,0,0,1-1.481,0l-8.934-5.161A1.628,1.628,0,0,1,2162.93,574.6Z" transform="translate(-2162.93 -519.184)" fill="#ff8c00"/>
            <g id="Grupo_54756" data-name="Grupo 54756" transform="translate(0 28.47)" opacity="0.5">
              <path id="Trazado_109437" data-name="Trazado 109437" d="M2162.93,574.6V574.3a1.634,1.634,0,0,1,.744-1.282l43.663-25.189a1.624,1.624,0,0,1,1.481,0l8.935,5.161a1.628,1.628,0,0,1,.744,1.282v.292a1.628,1.628,0,0,1-.744,1.282l-43.663,25.243a1.619,1.619,0,0,1-1.481,0l-8.934-5.161A1.628,1.628,0,0,1,2162.93,574.6Z" transform="translate(-2162.93 -547.654)" fill="#fff"/>
            </g>
            <path id="Trazado_109438" data-name="Trazado 109438" d="M2163.906,573.879l8.934,5.175a1.619,1.619,0,0,0,1.481,0l43.663-25.243a.445.445,0,0,0,0-.85l-8.941-5.128a1.623,1.623,0,0,0-1.481,0L2163.9,573.042a.452.452,0,0,0,.007.837Z" transform="translate(-2163.162 -519.184)" fill="#ff8c00"/>
            <g id="Grupo_54757" data-name="Grupo 54757" transform="translate(0.459 28.47)" opacity="0.8">
              <path id="Trazado_109439" data-name="Trazado 109439" d="M2163.906,573.879l8.934,5.175a1.619,1.619,0,0,0,1.481,0l43.663-25.243a.445.445,0,0,0,0-.85l-8.941-5.128a1.623,1.623,0,0,0-1.481,0L2163.9,573.042a.452.452,0,0,0,.007.837Z" transform="translate(-2163.621 -547.654)" fill="#fff"/>
            </g>
            <path id="Trazado_109440" data-name="Trazado 109440" d="M2254.361,546.663l3.168-38.3a3.607,3.607,0,0,0-1.581-3.169,3.987,3.987,0,0,0-3.627.066l-41.956,24.193a4.651,4.651,0,0,0-2.046,3.235l-3.162,38.3a3.607,3.607,0,0,0,1.581,3.169,3.985,3.985,0,0,0,3.627-.066l41.942-24.213A4.65,4.65,0,0,0,2254.361,546.663Z" transform="translate(-2177.105 -504.795)" fill="#ff8c00"/>
            <path id="Trazado_109441" data-name="Trazado 109441" d="M2254.361,546.663l3.168-38.3a3.607,3.607,0,0,0-1.581-3.169,3.987,3.987,0,0,0-3.627.066l-41.956,24.193a4.651,4.651,0,0,0-2.046,3.235l-3.162,38.3a3.607,3.607,0,0,0,1.581,3.169,3.985,3.985,0,0,0,3.627-.066l41.942-24.213A4.65,4.65,0,0,0,2254.361,546.663Z" transform="translate(-2177.105 -504.795)" fill="#fff" opacity="0.5" style="isolation: isolate"/>
            <path id="Trazado_109442" data-name="Trazado 109442" d="M2256.324,546.663l3.168-38.3a3.607,3.607,0,0,0-1.581-3.169,3.987,3.987,0,0,0-3.627.066l-41.956,24.193a4.209,4.209,0,0,0-1.329,1.4l6.517,3.76v36.535l36.788-21.257A4.648,4.648,0,0,0,2256.324,546.663Z" transform="translate(-2179.068 -504.795)" fill="#ff8c00"/>
            <path id="Trazado_109443" data-name="Trazado 109443" d="M2256.324,546.663l3.168-38.3a3.607,3.607,0,0,0-1.581-3.169,3.987,3.987,0,0,0-3.627.066l-41.956,24.193a4.209,4.209,0,0,0-1.329,1.4l6.517,3.76v36.535l36.788-21.257A4.648,4.648,0,0,0,2256.324,546.663Z" transform="translate(-2179.068 -504.795)" fill="#fff" opacity="0.8" style="isolation: isolate"/>
            <path id="Trazado_109444" data-name="Trazado 109444" d="M2210.446,574.191l3.162-38.269a4.652,4.652,0,0,1,2.046-3.235l41.942-24.213c1.036-.6,1.794-.113,1.694,1.076l-3.155,38.3a4.651,4.651,0,0,1-2.053,3.235l-41.942,24.18C2211.11,575.858,2210.346,575.38,2210.446,574.191Z" transform="translate(-2178.879 -505.944)" fill="#ff8c00"/>
            <path id="Trazado_109445" data-name="Trazado 109445" d="M2210.446,574.191l3.162-38.269a4.652,4.652,0,0,1,2.046-3.235l41.942-24.213c1.036-.6,1.794-.113,1.694,1.076l-3.155,38.3a4.651,4.651,0,0,1-2.053,3.235l-41.942,24.18C2211.11,575.858,2210.346,575.38,2210.446,574.191Z" transform="translate(-2178.879 -505.944)" fill="#fff" opacity="0.65" style="isolation: isolate"/>
            <path id="Trazado_109446" data-name="Trazado 109446" d="M2242.994,558.491a7.307,7.307,0,0,1,3.069-5.161c1.534-.883,2.657,0,2.485,1.946a7.307,7.307,0,0,1-3.076,5.155C2243.97,561.321,2242.854,560.451,2242.994,558.491Z" transform="translate(-2189.805 -520.974)" fill="#ff8c00"/>
            <path id="Trazado_109447" data-name="Trazado 109447" d="M2243.637,575.161l10.31-5.992-1.754-1.016-10.3,6Z" transform="translate(-2189.439 -526.066)" fill="#ff8c00"/>
            <g id="Grupo_54758" data-name="Grupo 54758" transform="translate(52.452 42.087)" opacity="0.85">
              <path id="Trazado_109448" data-name="Trazado 109448" d="M2243.637,575.161l10.31-5.992-1.754-1.016-10.3,6Z" transform="translate(-2241.89 -568.153)" fill="#fff"/>
            </g>
            <path id="Trazado_109449" data-name="Trazado 109449" d="M2257,587.283l-12.548,7.247a1.568,1.568,0,0,1-.811.179,1.506,1.506,0,0,1-.664-.173h0l-5.527-3.2h0a1.628,1.628,0,0,1-.718-1.282v-.292c0-.478.325-.664.744-.432l3.321,1.92.744.432-.159-.85L2240.2,574.7l1.747,1.01,10.316-5.979,5.367,16.295A1.327,1.327,0,0,1,2257,587.283Z" transform="translate(-2187.706 -526.596)" fill="#ff8c00"/>
            <g id="Grupo_54759" data-name="Grupo 54759" transform="translate(49.024 43.137)" opacity="0.5">
              <path id="Trazado_109450" data-name="Trazado 109450" d="M2257,587.283l-12.548,7.247a1.568,1.568,0,0,1-.811.179,1.506,1.506,0,0,1-.664-.173h0l-5.527-3.2h0a1.628,1.628,0,0,1-.718-1.282v-.292c0-.478.325-.664.744-.432l3.321,1.92.744.432-.159-.85L2240.2,574.7l1.747,1.01,10.316-5.979,5.367,16.295A1.327,1.327,0,0,1,2257,587.283Z" transform="translate(-2236.73 -569.733)" fill="#fff"/>
            </g>
            <path id="Trazado_109451" data-name="Trazado 109451" d="M2236.99,597.864l4.278-2.471.87,5.766Z" transform="translate(-2187.793 -535.211)" fill="#ff8c00"/>
            <g id="Grupo_54760" data-name="Grupo 54760" transform="translate(49.196 60.182)" opacity="0.25">
              <path id="Trazado_109452" data-name="Trazado 109452" d="M2236.99,597.864l4.278-2.471.87,5.766Z" transform="translate(-2236.99 -595.393)"/>
            </g>
            <path id="Trazado_109453" data-name="Trazado 109453" d="M2241.881,578.193l-1.747-1.01,1.176,16.135c.093.472-.173.664-.584.418l-3.321-1.92c-.419-.246-.744-.047-.744.432v.292a1.628,1.628,0,0,0,.718,1.282h0l5.527,3.2h0a1.5,1.5,0,0,0,.664.173Z" transform="translate(-2187.683 -529.097)" fill="#ff8c00"/>
            <g id="Grupo_54761" data-name="Grupo 54761" transform="translate(48.977 48.086)" opacity="0.25">
              <path id="Trazado_109454" data-name="Trazado 109454" d="M2241.881,578.193l-1.747-1.01,1.176,16.135c.093.472-.173.664-.584.418l-3.321-1.92c-.419-.246-.744-.047-.744.432v.292a1.628,1.628,0,0,0,.718,1.282h0l5.527,3.2h0a1.5,1.5,0,0,0,.664.173Z" transform="translate(-2236.66 -577.183)" fill="#fff"/>
            </g>
          </g>
        </g>
      </g>
      <g id="freepik--speech-bubble--inject-14" transform="translate(121.293 25.035)">
        <g id="freepik--speech-bubble--inject-14-2" data-name="freepik--speech-bubble--inject-14">
          <g id="freepik--speech-bubble--inject-14-3" data-name="freepik--speech-bubble--inject-14">
            <path id="Trazado_109455" data-name="Trazado 109455" d="M2300.233,425.216a.47.47,0,0,0-.259-.073h-.585v9.818l5.773-6.191a.532.532,0,0,0-.065-.749.538.538,0,0,0-.068-.048Z" transform="translate(-2250.054 -417.612)" fill="#ff8c00"/>
            <path id="Trazado_109456" data-name="Trazado 109456" d="M2300.233,425.216a.47.47,0,0,0-.259-.073h-.585v9.818l5.773-6.191a.532.532,0,0,0-.065-.749.538.538,0,0,0-.068-.048Z" transform="translate(-2250.054 -417.612)" fill="#fff" opacity="0.5" style="isolation: isolate"/>
            <path id="Trazado_109457" data-name="Trazado 109457" d="M2298.719,436.358l5.773-6.191a.525.525,0,0,0-.4-.864h-5.374l-1.329,1.136Z" transform="translate(-2249.383 -419.008)" fill="#ff8c00"/>
            <path id="Trazado_109458" data-name="Trazado 109458" d="M2274.462,418.274a5,5,0,0,0-2.252-3.926h0a5.009,5.009,0,0,0-4.537,0l-40.262,23.25a5,5,0,0,0-2.272,3.926v17.49a5.016,5.016,0,0,0,2.272,3.932h0a5.009,5.009,0,0,0,4.537,0l40.475-23.369c2.039-1.162,2.059-2.325,2.059-3.773Z" transform="translate(-2225.127 -413.805)" fill="#ff8c00"/>
            <path id="Trazado_109459" data-name="Trazado 109459" d="M2225.12,471.845a5.016,5.016,0,0,0,2.272,3.933h0a5.1,5.1,0,0,0,4.152.193c-1.07.4-1.88-.206-1.88-1.5v-17.5a4.644,4.644,0,0,1,.664-2.239l-4.537-2.611a4.649,4.649,0,0,0-.664,2.232Z" transform="translate(-2225.12 -426.67)" opacity="0.2" style="isolation: isolate"/>
            <path id="Trazado_109460" data-name="Trazado 109460" d="M2274.722,417.649c-.266-.963-1.143-1.269-2.192-.664l-40.269,23.25a4.42,4.42,0,0,0-1.594,1.694l-4.537-2.617a4.7,4.7,0,0,1,1.6-1.694l40.255-23.216a5.061,5.061,0,0,1,4.544,0h0A5.014,5.014,0,0,1,2274.722,417.649Z" transform="translate(-2225.459 -413.825)" fill="#fff" opacity="0.5" style="isolation: isolate"/>
          </g>
          <path id="Trazado_109461" data-name="Trazado 109461" d="M2241.71,466.137a.127.127,0,0,1,.166,0,.279.279,0,0,1,.073.226v1.461a.661.661,0,0,1-.073.306.442.442,0,0,1-.166.206l-4.152,2.4a.125.125,0,0,1-.166,0,.272.272,0,0,1-.073-.219v-8.921a.661.661,0,0,1,.073-.306.414.414,0,0,1,.166-.206l1.176-.664a.127.127,0,0,1,.166,0,.279.279,0,0,1,.073.226v7.075Z" transform="translate(-2229.215 -429.444)" fill="#fafafa"/>
          <path id="Trazado_109462" data-name="Trazado 109462" d="M2246.584,463.465a1.122,1.122,0,0,0,.073.478.446.446,0,0,0,.193.226.42.42,0,0,0,.259,0,1.012,1.012,0,0,0,.279-.113,1.893,1.893,0,0,0,.425-.326,1.766,1.766,0,0,0,.266-.392l.14-.239a.841.841,0,0,1,.153-.126l1.169-.664c.133-.073.2,0,.2.193a2.183,2.183,0,0,1-.139.578,4.76,4.76,0,0,1-.418.93,5.756,5.756,0,0,1-.724,1.036,3.912,3.912,0,0,1-1.069.877,2.211,2.211,0,0,1-1.036.345,1.024,1.024,0,0,1-.764-.3,1.994,1.994,0,0,1-.465-.9,6.161,6.161,0,0,1-.153-1.468,8.294,8.294,0,0,1,.153-1.574,7.126,7.126,0,0,1,.465-1.448,5.851,5.851,0,0,1,.764-1.222,3.953,3.953,0,0,1,1.036-.877,1.741,1.741,0,0,1,1.116-.306,1.144,1.144,0,0,1,.751.438,2.294,2.294,0,0,1,.425.963,5.929,5.929,0,0,1,.126,1.255v.392a.666.666,0,0,1-.067.3.478.478,0,0,1-.173.213Zm.8-3.115a1.329,1.329,0,0,0-.571.664,2.754,2.754,0,0,0-.233.91l1.608-.937a1.083,1.083,0,0,0-.232-.664C2247.833,460.21,2247.646,460.2,2247.388,460.35Z" transform="translate(-2231.784 -428.698)" fill="#fafafa"/>
          <path id="Trazado_109463" data-name="Trazado 109463" d="M2255.377,457.3a.764.764,0,0,0,.093.438c.06.08.153.08.292,0l.717-.412a.14.14,0,0,1,.173,0,.321.321,0,0,1,.073.226v1.395a.71.71,0,0,1-.073.3.478.478,0,0,1-.173.213l-.85.492a1.693,1.693,0,0,1-.764.252.828.828,0,0,1-.591-.2,1.327,1.327,0,0,1-.372-.664,3.461,3.461,0,0,1-.139-1.063v-2.318l-.665.385a.12.12,0,0,1-.166,0,.3.3,0,0,1-.073-.219v-1.4a.706.706,0,0,1,.073-.3.487.487,0,0,1,.166-.213l.665-.385v-2.245a.739.739,0,0,1,.073-.306.456.456,0,0,1,.173-.206l1.129-.664a.127.127,0,0,1,.166,0,.3.3,0,0,1,.073.226v2.245l1.016-.585a.12.12,0,0,1,.166,0,.3.3,0,0,1,.073.219v1.4a.734.734,0,0,1-.073.306.487.487,0,0,1-.166.206l-1.016.585Z" transform="translate(-2234.433 -426.083)" fill="#fafafa"/>
          <path id="Trazado_109464" data-name="Trazado 109464" d="M2260.65,446.588a1.38,1.38,0,0,1,.166-.312.669.669,0,0,1,.166-.139l1.189-.664c.12-.06.173,0,.173.179a.387.387,0,0,1-.046.193l-1.209,2.232a2.241,2.241,0,0,1-.153.252.659.659,0,0,1-.226.2l-.784.452c-.1.06-.146,0-.146-.133a.411.411,0,0,1,.047-.206Z" transform="translate(-2236.756 -424.429)" fill="#fafafa"/>
          <path id="Trazado_109465" data-name="Trazado 109465" d="M2267.686,451.988a.234.234,0,0,0-.066-.2.323.323,0,0,0-.226,0,2.661,2.661,0,0,0-.432.133c-.173.066-.392.133-.664.213a1,1,0,0,1-1.05-.166,1.852,1.852,0,0,1-.365-1.329,3.27,3.27,0,0,1,.153-.957,4.637,4.637,0,0,1,.425-.95,4.78,4.78,0,0,1,.664-.85,3.815,3.815,0,0,1,.864-.664,2.391,2.391,0,0,1,.857-.326,1.424,1.424,0,0,1,.664.047.936.936,0,0,1,.452.359,1.2,1.2,0,0,1,.186.591.665.665,0,0,1-.066.306.463.463,0,0,1-.179.206l-1.063.618q-.1.06-.159,0l-.14-.066a.4.4,0,0,0-.212,0,.971.971,0,0,0-.359.139,1.253,1.253,0,0,0-.346.292.58.58,0,0,0-.139.372.331.331,0,0,0,.046.213c0,.04.086.047.179,0l.372-.113.664-.219c.545-.173.943-.12,1.189.166a1.873,1.873,0,0,1,.372,1.255,3.322,3.322,0,0,1-.153.963,4.3,4.3,0,0,1-.445.976,5.091,5.091,0,0,1-.717.9,4.779,4.779,0,0,1-.963.731,2.474,2.474,0,0,1-.943.359,1.241,1.241,0,0,1-.664-.08.889.889,0,0,1-.425-.385,1.328,1.328,0,0,1-.166-.585.571.571,0,0,1,.066-.3.479.479,0,0,1,.173-.213l1.109-.664c.066-.04.113-.04.146,0a.468.468,0,0,0,.12.1.352.352,0,0,0,.206.04.984.984,0,0,0,.4-.153,1.868,1.868,0,0,0,.465-.379A.665.665,0,0,0,2267.686,451.988Z" transform="translate(-2238.451 -424.907)" fill="#fafafa"/>
          <path id="Trazado_109466" data-name="Trazado 109466" d="M2277.731,448.834a1.854,1.854,0,0,0,.6-.585,1.578,1.578,0,0,0,.259-.877v-.983c-.053.133-.106.266-.173.4a2.479,2.479,0,0,1-.232.4,2.966,2.966,0,0,1-.339.392,2.523,2.523,0,0,1-.5.359,1.694,1.694,0,0,1-.764.252.823.823,0,0,1-.624-.206,1.622,1.622,0,0,1-.438-.717,4.253,4.253,0,0,1-.179-1.255v-.983a6.9,6.9,0,0,1,.179-1.481,5.927,5.927,0,0,1,.438-1.216,4.513,4.513,0,0,1,.624-.937,3.2,3.2,0,0,1,.764-.664,1.706,1.706,0,0,1,.511-.213.994.994,0,0,1,.365,0,.611.611,0,0,1,.252.126,1,1,0,0,1,.159.179v-.279a.742.742,0,0,1,.073-.306.427.427,0,0,1,.173-.206l1.036-.6a.14.14,0,0,1,.173,0,.305.305,0,0,1,.073.226v6.736a5.645,5.645,0,0,1-.664,2.737,4.763,4.763,0,0,1-.771,1.03,4.554,4.554,0,0,1-.99.764,2.3,2.3,0,0,1-1.143.392,1.02,1.02,0,0,1-.664-.246,1.323,1.323,0,0,1-.352-.591,2.808,2.808,0,0,1-.106-.664.548.548,0,0,1,.066-.3.488.488,0,0,1,.173-.213l1.169-.664c.126-.073.213-.033.272.113a.417.417,0,0,0,.193.206C2277.386,448.987,2277.525,448.954,2277.731,448.834Zm-.79-4.583v.352a2.9,2.9,0,0,0,0,.326,1.1,1.1,0,0,0,.219.664c.133.133.325.126.591,0a1.365,1.365,0,0,0,.558-.664,2.868,2.868,0,0,0,.239-.85,4.752,4.752,0,0,0,0-.87.9.9,0,0,0-.232-.565c-.133-.126-.325-.12-.565,0a1.45,1.45,0,0,0-.584.664A2.518,2.518,0,0,0,2276.941,444.251Z" transform="translate(-2241.98 -422.397)" fill="#fafafa"/>
          <path id="Trazado_109467" data-name="Trazado 109467" d="M2288.722,437.842V438.9a6.058,6.058,0,0,1-.193,1.329,6.345,6.345,0,0,1-.5,1.329,5.2,5.2,0,0,1-.757,1.123,3.831,3.831,0,0,1-.99.817,2.089,2.089,0,0,1-1.016.326,1.152,1.152,0,0,1-.757-.246,1.7,1.7,0,0,1-.491-.731,3.491,3.491,0,0,1-.2-1.129v-1.063a5.644,5.644,0,0,1,.193-1.329,6.265,6.265,0,0,1,.5-1.329,5.5,5.5,0,0,1,.757-1.149,3.844,3.844,0,0,1,.99-.824,1.991,1.991,0,0,1,.99-.319,1.164,1.164,0,0,1,.764.252,1.54,1.54,0,0,1,.492.724A3.553,3.553,0,0,1,2288.722,437.842Zm-3.261,2.876a.9.9,0,0,0,.246.664q.219.166.578-.04a1.483,1.483,0,0,0,.578-.664,2.218,2.218,0,0,0,.246-.963v-.937a.868.868,0,0,0-.246-.664q-.219-.172-.578.04a1.474,1.474,0,0,0-.578.624,2.381,2.381,0,0,0-.246.963v.485c0,.179-.013.332,0,.465Z" transform="translate(-2244.827 -421.157)" fill="#fafafa"/>
          <path id="Trazado_109468" data-name="Trazado 109468" d="M2294.124,434.771a.741.741,0,0,1-.073.306.414.414,0,0,1-.166.206l-1.129.664a.14.14,0,0,1-.173,0,.3.3,0,0,1-.073-.226v-5.979a.762.762,0,0,1,.073-.306.454.454,0,0,1,.173-.206l1.129-.664a.12.12,0,0,1,.166,0,.3.3,0,0,1,.073.219Zm0,2.969a.714.714,0,0,1-.073.3.433.433,0,0,1-.166.213l-1.129.664a.133.133,0,0,1-.173,0,.3.3,0,0,1-.073-.219V437.3a.762.762,0,0,1,.073-.306.454.454,0,0,1,.173-.206l1.129-.664a.12.12,0,0,1,.166,0,.3.3,0,0,1,.073.219Z" transform="translate(-2247.744 -418.75)" fill="#fafafa"/>
        </g>
      </g>
    </g>
    <rect id="Rectngulo_5899" data-name="Rectngulo 5899" width="364" height="364" transform="translate(1038 5278)" fill="none"/>
  </g>
</svg>
