<svg xmlns="http://www.w3.org/2000/svg" width="150.66" height="150.66" viewBox="0 0 150.66 150.66">
  <g id="Grupo_54901" data-name="Grupo 54901" transform="translate(0 0)">
    <path id="Trazado_110846" data-name="Trazado 110846" d="M911.5,476.5l17.656,8.828v8.828h-8.828Z" transform="translate(-780.702 -345.702)" fill="#ffd478"/>
    <path id="Trazado_110847" data-name="Trazado 110847" d="M611.919,386.5,474.5,421.811v8.828H611.919Z" transform="translate(-472.293 -282.186)" fill="#ffe7ad"/>
    <path id="Trazado_110848" data-name="Trazado 110848" d="M663,144.5h44.139v17.656H663Z" transform="translate(-605.325 -111.396)" fill="#ffd478"/>
    <path id="Trazado_110849" data-name="Trazado 110849" d="M633,144.5h44.139v17.656H633Z" transform="translate(-584.153 -111.396)" fill="#ffe7ad"/>
    <path id="Trazado_110850" data-name="Trazado 110850" d="M761.5,204.5h44.139v35.311H761.5Z" transform="translate(-674.841 -153.741)" fill="#ffd478"/>
    <path id="Trazado_110851" data-name="Trazado 110851" d="M534.5,204.5H636.608v35.311H534.5Z" transform="translate(-514.638 -153.741)" fill="#ffe7ad"/>
    <path id="Trazado_110852" data-name="Trazado 110852" d="M897.4,363.94h-8.828L866.5,334.22l22.069-29.72H897.4Z" transform="translate(-748.944 -224.315)" fill="#ffe7ad"/>
    <path id="Trazado_110853" data-name="Trazado 110853" d="M611.919,355.112,483.328,363.94H474.5V304.5H611.919Z" transform="translate(-472.293 -224.315)" fill="#fff5de"/>
    <path id="Trazado_110854" data-name="Trazado 110854" d="M579.5,334.5h84.452v46.2H579.5Z" transform="translate(-546.396 -245.487)" fill="#ffbb6e"/>
    <path id="Trazado_110855" data-name="Trazado 110855" d="M707.158,412.457H684.5L698.33,379.5h8.828Z" transform="translate(-620.499 -277.245)" fill="#995e49"/>
    <path id="Trazado_110856" data-name="Trazado 110856" d="M684.5,379.5h13.83v32.957H684.5Z" transform="translate(-620.499 -277.245)" fill="#aa6f51"/>
    <g id="Grupo_54900" data-name="Grupo 54900" transform="translate(28.69 89.013)">
      <path id="Trazado_110857" data-name="Trazado 110857" d="M791.5,334.5h8.828v46.2H791.5Z" transform="translate(-724.703 -334.5)" fill="#ffe7ad"/>
      <path id="Trazado_110858" data-name="Trazado 110858" d="M860.328,380.7H851.5V334.5l8.828,4.414Z" transform="translate(-767.048 -334.5)" fill="#ffe7ad"/>
      <path id="Trazado_110859" data-name="Trazado 110859" d="M633.328,380.7H624.5V334.5h8.828Z" transform="translate(-606.845 -334.5)" fill="#ffe7ad"/>
      <path id="Trazado_110860" data-name="Trazado 110860" d="M564.5,380.7h8.828V334.5l-8.828,4.414Z" transform="translate(-564.5 -334.5)" fill="#ffe7ad"/>
    </g>
    <path id="Trazado_110861" data-name="Trazado 110861" d="M564.5,304.5h93.28v13.242H564.5Z" transform="translate(-535.81 -224.315)" fill="#ffd478"/>
    <path id="Trazado_110862" data-name="Trazado 110862" d="M899.155,485.328h-8.828l-8.828-4.414,8.828-4.414h8.828Z" transform="translate(-759.53 -345.702)" fill="#ffbb6e"/>
    <path id="Trazado_110863" data-name="Trazado 110863" d="M504.5,476.5H624.263v8.828H504.5Z" transform="translate(-493.465 -345.702)" fill="#ffd478"/>
    <path id="Trazado_110864" data-name="Trazado 110864" d="M611.14,249.5,564.5,265.684h93.28Z" transform="translate(-535.81 -185.499)" fill="#fff5de"/>
    <path id="Trazado_110865" data-name="Trazado 110865" d="M723,39.5V74.811l26.483-8.828A26.483,26.483,0,0,0,723,39.5Z" transform="translate(-647.67 -37.293)" fill="#ffd478"/>
    <path id="Trazado_110866" data-name="Trazado 110866" d="M659.483,39.5A26.483,26.483,0,0,0,633,65.983l26.483,8.828,17.655-8.828C677.139,51.357,669.234,39.5,659.483,39.5Z" transform="translate(-584.153 -37.293)" fill="#ffe7ad"/>
    <path id="Trazado_110867" data-name="Trazado 110867" d="M791.828,129.5H783v8.828h8.828a4.414,4.414,0,1,0,0-8.828Z" transform="translate(-690.014 -100.81)" fill="#ffe7ad"/>
    <path id="Trazado_110868" data-name="Trazado 110868" d="M670.966,133.914a4.414,4.414,0,0,0-4.414-4.414H622.414a4.414,4.414,0,0,0,0,8.828h44.139A4.414,4.414,0,0,0,670.966,133.914Z" transform="translate(-573.567 -100.81)" fill="#fff5de"/>
    <path id="Trazado_110869" data-name="Trazado 110869" d="M890.328,189.5H881.5v8.828h8.828a4.414,4.414,0,1,0,0-8.828Z" transform="translate(-759.53 -143.155)" fill="#ffe7ad"/>
    <path id="Trazado_110870" data-name="Trazado 110870" d="M630.435,193.914a4.414,4.414,0,0,0-4.414-4.414H523.914a4.414,4.414,0,1,0,0,8.828H626.021A4.414,4.414,0,0,0,630.435,193.914Z" transform="translate(-504.051 -143.155)" fill="#fff5de"/>
    <path id="Trazado_110871" data-name="Trazado 110871" d="M615.453,109.978H600V89A6.62,6.62,0,0,0,597.8,76.139H571.02V71.345a6.619,6.619,0,0,0-.061-12.5,28.688,28.688,0,0,0-57.258,0,6.619,6.619,0,0,0-.061,12.5v4.793H486.862A6.621,6.621,0,0,0,484.655,89v20.976H469.207A2.207,2.207,0,0,0,467,112.185v68.268a2.207,2.207,0,0,0,2.207,2.207H615.453a2.207,2.207,0,0,0,2.207-2.207V112.185A2.207,2.207,0,0,0,615.453,109.978Zm-2.207,59.44h-4.414V162.8a2.207,2.207,0,0,0-2.207-2.207H591.177v-46.2h22.069Zm-30.9-8.828V127.634h4.414v32.957Zm-30.9,0H533.208V136.462h18.244Zm2.207-28.543H531a2.207,2.207,0,0,0-2.207,2.207v26.336H524.38V127.634h35.9v32.957h-4.414V134.255A2.207,2.207,0,0,0,553.659,132.048Zm-42.52-4.414v32.957h-4.414V127.634Zm4.414,0h4.414v32.957h-4.414Zm49.141,0h4.414v32.957h-4.414Zm8.828,0h4.414v32.957h-4.414Zm13.242-13.242v8.828H497.9v-8.828Zm-77.981-4.414L542.33,98.337l33.548,11.641ZM497.9,127.634h4.414v32.957H497.9ZM604.419,165v4.414H480.242V165ZM542.33,36.414A24.306,24.306,0,0,1,566.5,58.483H518.159A24.306,24.306,0,0,1,542.33,36.414ZM515.847,62.9h52.966a2.207,2.207,0,1,1,0,4.414H515.847a2.207,2.207,0,1,1,0-4.414Zm2.207,8.828h48.553v4.414H518.054ZM486.862,84.966a2.207,2.207,0,1,1,0-4.414H597.8a2.207,2.207,0,0,1,0,4.414H495.69a2.207,2.207,0,1,0,0,4.414h99.9v20.6h-6.248L543.054,93.916a2.205,2.205,0,0,0-1.447,0l-46.289,16.062h-6.249V87.173a2.207,2.207,0,0,0-2.207-2.207Zm6.621,29.426v46.2H478.035a2.207,2.207,0,0,0-2.207,2.207v6.621h-4.414V114.392Zm-22.069,63.854v-4.414H613.246v4.414Z" transform="translate(-467 -32)"/>
  </g>
</svg>
