<svg id="files-document-protection-insurance-pen" xmlns="http://www.w3.org/2000/svg" width="141.244" height="141.244" viewBox="0 0 141.244 141.244">
  <path id="Trazado_110770" data-name="Trazado 110770" d="M424,184h9.416v70.622H424Z" transform="translate(-303.943 -134.565)" fill="#ff3051"/>
  <path id="Trazado_110771" data-name="Trazado 110771" d="M433.416,140.708v9.416H424v-9.416a4.708,4.708,0,0,1,9.416,0Z" transform="translate(-303.943 -100.689)" fill="#898890"/>
  <path id="Trazado_110772" data-name="Trazado 110772" d="M433.416,424l-4.708,18.833L424,424Z" transform="translate(-303.943 -303.943)" fill="#898890"/>
  <path id="Trazado_110773" data-name="Trazado 110773" d="M440,184h4.708v70.622H440Z" transform="translate(-315.235 -134.565)" fill="#cd2a00"/>
  <path id="Trazado_110774" data-name="Trazado 110774" d="M444.708,140.708v9.416H440V136A4.743,4.743,0,0,1,444.708,140.708Z" transform="translate(-315.235 -100.689)" fill="#57565c"/>
  <path id="Trazado_110775" data-name="Trazado 110775" d="M444.708,424,440,442.833V424Z" transform="translate(-315.235 -303.943)" fill="#57565c"/>
  <rect id="Rectángulo_5976" data-name="Rectángulo 5976" width="85.059" height="136.775" rx="16" transform="translate(25.766 2.041)" fill="#fee9ab"/>
  <path id="Trazado_110776" data-name="Trazado 110776" d="M218.373,65.416v15.09a18.857,18.857,0,0,1-6.332,14.077l-14.854,13.206L182.332,94.583A18.856,18.856,0,0,1,176,80.506V65.416L197.187,56Z" transform="translate(-128.919 -44.23)" fill="#ffd422"/>
  <path id="Trazado_110777" data-name="Trazado 110777" d="M71.081,223.062a7.062,7.062,0,0,1-7.062,7.062H47.541v28.249H31.086L24,253.665V220.708L35.77,216H64.019A7.062,7.062,0,0,1,71.081,223.062Z" transform="translate(-21.646 -157.148)" fill="#ffc477"/>
  <path id="Trazado_110778" data-name="Trazado 110778" d="M71.081,223.062a7.124,7.124,0,0,1-.942,3.531,7.761,7.761,0,0,0-1.13-1.46,7.046,7.046,0,0,0-4.991-2.072H35.77L24,227.77v-7.062L35.77,216H64.019A7.062,7.062,0,0,1,71.081,223.062Z" transform="translate(-21.646 -157.148)" fill="#ffa733"/>
  <path id="Trazado_110779" data-name="Trazado 110779" d="M257.895,65.416v15.09a18.856,18.856,0,0,1-6.332,14.077l-14.854,13.206L232,103.6l10.146-9.016a18.856,18.856,0,0,0,6.332-14.077V65.416L232,58.1l4.708-2.1Z" transform="translate(-168.44 -44.23)" fill="#ebbf00"/>
  <path id="Trazado_110780" data-name="Trazado 110780" d="M358.124,28.708v127.12a4.722,4.722,0,0,1-4.708,4.708H344a4.722,4.722,0,0,0,4.708-4.708V28.708A4.722,4.722,0,0,0,344,24h9.416A4.722,4.722,0,0,1,358.124,28.708Z" transform="translate(-247.483 -21.646)" fill="#ffde55"/>
  <path id="Trazado_110781" data-name="Trazado 110781" d="M121.933,16H46.6a7.084,7.084,0,0,0-7.062,7.062V72.5H30.124a2.2,2.2,0,0,0-.871.165L17.483,77.37A2.354,2.354,0,0,0,16,79.56v32.957a2.354,2.354,0,0,0,1.059,1.954l7.086,4.708a2.275,2.275,0,0,0,1.295.4h14.1v30.6a7.084,7.084,0,0,0,7.062,7.062h75.33A7.084,7.084,0,0,0,129,150.182V23.062A7.084,7.084,0,0,0,121.933,16ZM39.305,91.33h.235v23.541H26.146l-5.438-3.625V81.161l9.864-3.955h27.8a4.708,4.708,0,0,1,0,9.416H37.187a2.354,2.354,0,0,0-2.354,2.354,7.084,7.084,0,0,1-7.062,7.062v4.708A11.791,11.791,0,0,0,39.305,91.33Zm84.982,58.852a2.354,2.354,0,0,1-2.354,2.354H46.6a2.354,2.354,0,0,1-2.354-2.354V91.33H58.373a9.416,9.416,0,0,0,0-18.833H44.249V23.062A2.354,2.354,0,0,1,46.6,20.708h75.33a2.354,2.354,0,0,1,2.354,2.354Z" transform="translate(-16 -16)"/>
  <path id="Trazado_110782" data-name="Trazado 110782" d="M228.036,118.423a2.354,2.354,0,0,0,1.664-.69l13.317-13.317-3.329-3.329-11.653,11.653-5-5-3.329,3.329,6.66,6.66a2.354,2.354,0,0,0,1.664.69Z" transform="translate(-159.768 -76.05)"/>
  <path id="Trazado_110783" data-name="Trazado 110783" d="M213.692,57.628l-21.187-9.416a2.3,2.3,0,0,0-1.93,0l-21.187,9.416A2.324,2.324,0,0,0,168,59.77V74.86a21.137,21.137,0,0,0,7.109,15.819l14.878,13.23a2.354,2.354,0,0,0,3.107,0l14.878-13.23a21.137,21.137,0,0,0,7.109-15.819V59.77a2.324,2.324,0,0,0-1.389-2.142ZM210.373,74.86a16.512,16.512,0,0,1-5.532,12.312l-13.3,11.817-13.3-11.817a16.512,16.512,0,0,1-5.532-12.312V61.3l18.833-8.38,18.833,8.38Z" transform="translate(-123.273 -38.584)"/>
  <path id="Trazado_110784" data-name="Trazado 110784" d="M437.187,142.124h-7.062v-7.062a7.062,7.062,0,1,0-14.124,0V215.1a2.329,2.329,0,0,0,.071.565l4.708,18.833a2.354,2.354,0,0,0,4.567,0l4.708-18.833a2.331,2.331,0,0,0,.071-.565V146.833h4.708v21.187h4.708V144.478a2.354,2.354,0,0,0-2.354-2.354Zm-14.124,82.11-1.695-6.78h3.39Zm2.354-11.488h-4.708V146.833h4.708Zm0-70.622h-4.708v-7.062a2.354,2.354,0,1,1,4.708,0Z" transform="translate(-298.297 -95.043)"/>
  <path id="Trazado_110785" data-name="Trazado 110785" d="M144,304h9.416v4.708H144Z" transform="translate(-106.335 -219.254)"/>
  <path id="Trazado_110786" data-name="Trazado 110786" d="M192,304h47.081v4.708H192Z" transform="translate(-140.211 -219.254)"/>
  <path id="Trazado_110787" data-name="Trazado 110787" d="M144,352h9.416v4.708H144Z" transform="translate(-106.335 -253.129)"/>
  <path id="Trazado_110788" data-name="Trazado 110788" d="M192,352h47.081v4.708H192Z" transform="translate(-140.211 -253.129)"/>
  <path id="Trazado_110789" data-name="Trazado 110789" d="M144,400h9.416v4.708H144Z" transform="translate(-106.335 -287.005)"/>
  <path id="Trazado_110790" data-name="Trazado 110790" d="M192,400h47.081v4.708H192Z" transform="translate(-140.211 -287.005)"/>
  <path id="Trazado_110791" data-name="Trazado 110791" d="M144,448h9.416v4.708H144Z" transform="translate(-106.335 -320.88)"/>
  <path id="Trazado_110792" data-name="Trazado 110792" d="M192,448h47.081v4.708H192Z" transform="translate(-140.211 -320.88)"/>
</svg>
