<svg xmlns="http://www.w3.org/2000/svg" width="141.244" height="141.244" viewBox="0 0 141.244 141.244">
  <g id="Project-Innovation-Idea-Management-Control" transform="translate(0 0)">
    <path id="Trazado_110810" data-name="Trazado 110810" d="M375.579,146.833V255.12a9.34,9.34,0,0,1-1.671,5.344,9.766,9.766,0,0,1-1.083,1.318,9.475,9.475,0,0,1-6.662,2.754H281.416A9.416,9.416,0,0,1,272,255.12v-117.7A9.416,9.416,0,0,1,281.416,128h75.33v14.124a4.722,4.722,0,0,0,4.708,4.708Z" transform="translate(-269.646 -125.646)" fill="#e6e7e8"/>
    <path id="Trazado_110811" data-name="Trazado 110811" d="M567.541,421.662v38.913a9.341,9.341,0,0,1-1.671,5.344,23.161,23.161,0,0,1-3.249-1.6l-6.332,4.755-6.662-6.662,4.755-6.332a23.078,23.078,0,0,1-2.566-6.168L544,448.8v-9.416l7.815-1.106a23.079,23.079,0,0,1,2.566-6.168l-4.755-6.332,6.662-6.662,6.332,4.755A23.251,23.251,0,0,1,567.541,421.662Z" transform="translate(-461.608 -331.102)" fill="#d8d7da"/>
    <path id="Trazado_110812" data-name="Trazado 110812" d="M581.391,420.417a23.057,23.057,0,0,1-2.566,6.168l4.755,6.332-6.662,6.662-6.332-4.755a23.063,23.063,0,0,1-6.168,2.566l-1.106,7.815H553.9l-.4-2.754-.706-5.061a23.063,23.063,0,0,1-6.168-2.566l-6.333,4.755-6.662-6.662,4.755-6.332a23.059,23.059,0,0,1-2.566-6.168L528,419.311v-9.416l7.815-1.106a23.058,23.058,0,0,1,2.566-6.168l-4.755-6.332,6.662-6.662,6.333,4.755a23.064,23.064,0,0,1,6.168-2.566L553.9,384h9.416l1.106,7.815a23.073,23.073,0,0,1,6.168,2.566l6.332-4.755,6.662,6.662-4.755,6.332a23.076,23.076,0,0,1,2.566,6.168l7.815,1.106v9.416Z" transform="translate(-450.317 -306.316)" fill="#ff9811"/>
    <path id="Trazado_110813" data-name="Trazado 110813" d="M603.737,448a11.1,11.1,0,0,0-2.354.235,11.77,11.77,0,0,0,0,23.07,11.106,11.106,0,0,0,2.354.235,11.77,11.77,0,1,0,0-23.541Z" transform="translate(-495.45 -351.483)" fill="#ffd422"/>
    <path id="Trazado_110814" data-name="Trazado 110814" d="M424.167,223.995a16.714,16.714,0,0,0-16.2,15.866,16.373,16.373,0,0,0,4.92,12.335,14.49,14.49,0,0,1,4.5,10.311v8.569a2.354,2.354,0,0,0,2.354,2.354h9.416a2.354,2.354,0,0,0,2.354-2.354v-8.569a13.976,13.976,0,0,1,4.331-10.146,16.478,16.478,0,0,0-11.676-28.366Z" transform="translate(-365.598 -193.392)" fill="#d8d7da"/>
    <path id="Trazado_110815" data-name="Trazado 110815" d="M438.124,344v7.062a2.354,2.354,0,0,1-2.354,2.354h-9.416A2.354,2.354,0,0,1,424,351.062V344Z" transform="translate(-376.919 -278.086)" fill="#ee8700"/>
    <path id="Trazado_110816" data-name="Trazado 110816" d="M415.512,246.507v1.507H401.388v-1.507a14.49,14.49,0,0,0-4.5-10.311,16.373,16.373,0,0,1-4.92-12.335,16.714,16.714,0,0,1,16.2-15.866,16.478,16.478,0,0,1,11.676,28.366,13.975,13.975,0,0,0-4.331,10.146Z" transform="translate(-354.307 -182.1)" fill="#ffd422"/>
    <path id="Trazado_110817" data-name="Trazado 110817" d="M578.833,146.833H564.708A4.722,4.722,0,0,1,560,142.124V128Z" transform="translate(-472.9 -125.646)" fill="#bcbec0"/>
    <path id="Trazado_110818" data-name="Trazado 110818" d="M268.708,249.474V131.77a7.062,7.062,0,0,1,7.062-7.062h72.976v11.77a7.062,7.062,0,0,0,7.062,7.062h11.77v47.081h4.708V141.187a2.353,2.353,0,0,0-.69-1.664L352.765,120.69A2.353,2.353,0,0,0,351.1,120H275.77A11.785,11.785,0,0,0,264,131.77v117.7a11.785,11.785,0,0,0,11.77,11.77h72.976v-4.708H275.77A7.062,7.062,0,0,1,268.708,249.474Zm84.746-113v-8.442l10.8,10.8h-8.442A2.354,2.354,0,0,1,353.454,136.478Z" transform="translate(-264 -120)"/>
    <path id="Trazado_110819" data-name="Trazado 110819" d="M421.671,218.826a18.832,18.832,0,0,0-18.83-18.835l-.323,0a19.045,19.045,0,0,0-18.5,18.138,18.848,18.848,0,0,0,5.617,14.1,12.169,12.169,0,0,1,3.694,7.78h-4.616v4.708h4.708v4.708a4.708,4.708,0,0,0,4.708,4.708h9.416a4.708,4.708,0,0,0,4.708-4.708v-4.708h4.708v-4.708h-4.621a11.723,11.723,0,0,1,3.531-7.606A18.632,18.632,0,0,0,421.671,218.826Zm-23.541,30.6v-4.708h9.416v4.708Zm9.44-9.416h-9.463a16.868,16.868,0,0,0-5.179-11.137,13.943,13.943,0,0,1-4.214-10.572A14.116,14.116,0,1,1,412.9,228.693q-.153.156-.311.308a16.5,16.5,0,0,0-5.021,11.012Z" transform="translate(-348.695 -176.453)"/>
    <path id="Trazado_110820" data-name="Trazado 110820" d="M431.062,266.354A2.354,2.354,0,0,1,428.708,264H424a7.063,7.063,0,0,0,4.708,6.629v9.849h4.708v-9.849A7.062,7.062,0,0,0,438.124,264h-4.708A2.354,2.354,0,0,1,431.062,266.354Z" transform="translate(-376.919 -221.627)"/>
    <path id="Trazado_110821" data-name="Trazado 110821" d="M440,168h4.708v4.708H440Z" transform="translate(-388.211 -153.876)"/>
    <path id="Trazado_110822" data-name="Trazado 110822" d="M393.072,179.2l4.077-2.354,2.354,4.077-4.077,2.354Z" transform="translate(-355.092 -160.117)"/>
    <path id="Trazado_110823" data-name="Trazado 110823" d="M360.86,213.168l2.354-4.077,4.077,2.354-2.354,4.077Z" transform="translate(-332.358 -182.875)"/>
    <path id="Trazado_110824" data-name="Trazado 110824" d="M352,256h4.708v4.708H352Z" transform="translate(-326.105 -215.981)"/>
    <path id="Trazado_110825" data-name="Trazado 110825" d="M360.861,299.406l4.077-2.354,2.354,4.077-4.077,2.354Z" transform="translate(-332.359 -244.953)"/>
    <path id="Trazado_110826" data-name="Trazado 110826" d="M513.288,301.185l2.354-4.077,4.077,2.354-2.354,4.077Z" transform="translate(-439.933 -244.993)"/>
    <path id="Trazado_110827" data-name="Trazado 110827" d="M528,256h4.708v4.708H528Z" transform="translate(-450.316 -215.981)"/>
    <path id="Trazado_110828" data-name="Trazado 110828" d="M513.269,211.394l4.077-2.354,2.354,4.077-4.077,2.354Z" transform="translate(-439.92 -182.839)"/>
    <path id="Trazado_110829" data-name="Trazado 110829" d="M481.084,180.965l2.354-4.077,4.077,2.354-2.354,4.077Z" transform="translate(-417.205 -160.148)"/>
    <path id="Trazado_110830" data-name="Trazado 110830" d="M583.894,401.918l-6.314-.9a25.539,25.539,0,0,0-1.6-3.858l3.825-5.1a2.354,2.354,0,0,0-.219-3.077l-6.657-6.657a2.354,2.354,0,0,0-3.074-.219l-5.1,3.823a25.669,25.669,0,0,0-3.858-1.6l-.9-6.314a2.354,2.354,0,0,0-2.331-2.02h-9.416a2.354,2.354,0,0,0-2.331,2.02l-.9,6.314a25.548,25.548,0,0,0-3.858,1.6l-5.1-3.823a2.354,2.354,0,0,0-3.074.219l-6.657,6.657a2.354,2.354,0,0,0-.219,3.077l3.825,5.1a25.565,25.565,0,0,0-1.6,3.858l-6.313.9a2.354,2.354,0,0,0-2.02,2.331v9.416A2.354,2.354,0,0,0,522.02,416l6.313.9a25.563,25.563,0,0,0,1.6,3.858l-3.825,5.1a2.354,2.354,0,0,0,.219,3.077l6.657,6.657a2.354,2.354,0,0,0,3.074.219l5.1-3.823a25.545,25.545,0,0,0,3.858,1.6l.9,6.314a2.354,2.354,0,0,0,2.331,2.02h9.416a2.355,2.355,0,0,0,2.331-2.02l.9-6.314a25.669,25.669,0,0,0,3.858-1.6l5.1,3.823a2.354,2.354,0,0,0,3.074-.219l6.657-6.657a2.354,2.354,0,0,0,.219-3.077l-3.825-5.1a25.537,25.537,0,0,0,1.6-3.858l6.314-.9a2.354,2.354,0,0,0,2.02-2.331v-9.416A2.354,2.354,0,0,0,583.894,401.918Zm-2.688,9.706-5.8.829a2.355,2.355,0,0,0-1.947,1.747,20.992,20.992,0,0,1-2.3,5.549,2.355,2.355,0,0,0,.144,2.615l3.512,4.685-3.767,3.767-4.687-3.512a2.354,2.354,0,0,0-2.613-.141,20.858,20.858,0,0,1-5.546,2.3,2.355,2.355,0,0,0-1.751,1.949l-.829,5.8H550.29l-.826-5.8a2.354,2.354,0,0,0-1.751-1.949,20.866,20.866,0,0,1-5.546-2.3,2.354,2.354,0,0,0-2.613.141l-4.687,3.512L531.1,427.05l3.512-4.685a2.354,2.354,0,0,0,.144-2.615,21,21,0,0,1-2.3-5.549,2.354,2.354,0,0,0-1.947-1.747l-5.8-.831V406.29l5.8-.829a2.354,2.354,0,0,0,1.947-1.747,21,21,0,0,1,2.3-5.549,2.354,2.354,0,0,0-.144-2.615l-3.512-4.685,3.766-3.766,4.687,3.512a2.354,2.354,0,0,0,2.613.141,20.867,20.867,0,0,1,5.546-2.3,2.354,2.354,0,0,0,1.751-1.949l.829-5.8h5.334l.826,5.8a2.355,2.355,0,0,0,1.751,1.949,20.86,20.86,0,0,1,5.546,2.3,2.354,2.354,0,0,0,2.613-.141l4.687-3.512,3.766,3.767-3.512,4.685a2.354,2.354,0,0,0-.144,2.615,20.993,20.993,0,0,1,2.3,5.549,2.355,2.355,0,0,0,1.947,1.747l5.8.831Z" transform="translate(-444.67 -300.67)"/>
    <path id="Trazado_110831" data-name="Trazado 110831" d="M598.124,440a14.124,14.124,0,1,0,14.124,14.124A14.124,14.124,0,0,0,598.124,440Zm0,23.541a9.416,9.416,0,1,1,9.416-9.416A9.416,9.416,0,0,1,598.124,463.541Z" transform="translate(-489.837 -345.838)"/>
    <path id="Trazado_110832" data-name="Trazado 110832" d="M624,408h4.708v4.708H624Z" transform="translate(-518.067 -323.254)"/>
    <path id="Trazado_110833" data-name="Trazado 110833" d="M569.707,429.025l3.329-3.329,3.329,3.329-3.329,3.329Z" transform="translate(-479.75 -335.743)"/>
    <path id="Trazado_110834" data-name="Trazado 110834" d="M552,480h4.708v4.708H552Z" transform="translate(-467.254 -374.067)"/>
    <path id="Trazado_110835" data-name="Trazado 110835" d="M569.7,530.919l3.329-3.329,3.329,3.329-3.329,3.329Z" transform="translate(-479.742 -407.654)"/>
    <path id="Trazado_110836" data-name="Trazado 110836" d="M624,552h4.708v4.708H624Z" transform="translate(-518.067 -424.881)"/>
    <path id="Trazado_110837" data-name="Trazado 110837" d="M671.51,530.825l3.329-3.329,3.329,3.329-3.329,3.329Z" transform="translate(-551.597 -407.587)"/>
    <path id="Trazado_110838" data-name="Trazado 110838" d="M696,480h4.708v4.708H696Z" transform="translate(-568.88 -374.067)"/>
    <path id="Trazado_110839" data-name="Trazado 110839" d="M671.529,429.211l3.329-3.329,3.329,3.329-3.329,3.329Z" transform="translate(-551.61 -335.874)"/>
    <path id="Trazado_110840" data-name="Trazado 110840" d="M312,416h42.373v4.708H312Z" transform="translate(-297.876 -328.9)"/>
    <path id="Trazado_110841" data-name="Trazado 110841" d="M472,416h9.416v4.708H472Z" transform="translate(-410.794 -328.9)"/>
    <path id="Trazado_110842" data-name="Trazado 110842" d="M312,448h56.5v4.708H312Z" transform="translate(-297.876 -351.483)"/>
    <path id="Trazado_110843" data-name="Trazado 110843" d="M312,480h4.708v4.708H312Z" transform="translate(-297.876 -374.067)"/>
    <path id="Trazado_110844" data-name="Trazado 110844" d="M344,480h47.081v4.708H344Z" transform="translate(-320.459 -374.067)"/>
    <path id="Trazado_110845" data-name="Trazado 110845" d="M312,512h56.5v4.708H312Z" transform="translate(-297.876 -396.651)"/>
  </g>
</svg>
