<svg xmlns="http://www.w3.org/2000/svg" width="150.66" height="138.947" viewBox="0 0 150.66 138.947">
  <g id="Grupo_54905" data-name="Grupo 54905" transform="translate(0 0)">
    <g id="Grupo_54903" data-name="Grupo 54903" transform="translate(2.207 2.207)">
      <path id="Trazado_110896" data-name="Trazado 110896" d="M593.33,384.253H465.916a9.416,9.416,0,0,1-9.416-9.416V292.17a9.416,9.416,0,0,1,9.416-9.416H593.33a9.416,9.416,0,0,1,9.416,9.416v82.667A9.416,9.416,0,0,1,593.33,384.253Z" transform="translate(-456.5 -249.72)" fill="#d3e1f5"/>
      <path id="Trazado_110897" data-name="Trazado 110897" d="M672.845,320.446H641.88a4.38,4.38,0,0,1,0-8.759h30.965a4.38,4.38,0,0,1,0,8.759Z" transform="translate(-584.239 -270.139)" fill="#444"/>
      <path id="Trazado_110898" data-name="Trazado 110898" d="M545.921,439.315H504.972a4.708,4.708,0,0,1-4.708-4.708V382.229a4.708,4.708,0,0,1,4.708-4.708h40.949a4.708,4.708,0,0,1,4.708,4.708v52.378A4.708,4.708,0,0,1,545.921,439.315Z" transform="translate(-487.386 -316.601)" fill="#528fd8"/>
      <path id="Trazado_110899" data-name="Trazado 110899" d="M668.45,170.492a4.279,4.279,0,0,0-4.279,4.382,311.063,311.063,0,0,0,2.792,34.505l1.451,10.568a.987.987,0,0,0,.978.853h13.584a.987.987,0,0,0,.978-.853l1.451-10.568a311.1,311.1,0,0,0,2.792-34.505,4.278,4.278,0,0,0-4.279-4.382Z" transform="translate(-603.062 -170.492)" fill="#838383"/>
      <ellipse id="Elipse_4150" data-name="Elipse 4150" cx="13.262" cy="13.262" rx="13.262" ry="13.262" transform="translate(23.816 95.056) rotate(-85.935)" fill="#ffcebf"/>
      <path id="Trazado_110900" data-name="Trazado 110900" d="M561.505,523.52H526.7v-17.6a9.081,9.081,0,0,1,9.081-9.081h16.649a9.081,9.081,0,0,1,9.081,9.081v17.6Z" transform="translate(-506.04 -400.806)" fill="#e94444"/>
      <path id="Trazado_110901" data-name="Trazado 110901" d="M895.907,282.754H885.236a9.416,9.416,0,0,1,9.416,9.416v82.667a9.416,9.416,0,0,1-9.416,9.416h10.671a9.416,9.416,0,0,0,9.416-9.416V292.17a9.416,9.416,0,0,0-9.416-9.416Z" transform="translate(-759.077 -249.72)" fill="#c0d6f2"/>
      <path id="Trazado_110902" data-name="Trazado 110902" d="M668.45,170.492a4.279,4.279,0,0,0-4.279,4.382,311.063,311.063,0,0,0,2.792,34.505l1.451,10.568a.987.987,0,0,0,.978.853h13.584a.987.987,0,0,0,.978-.853l1.451-10.568a311.1,311.1,0,0,0,2.792-34.505,4.278,4.278,0,0,0-4.279-4.382Z" transform="translate(-603.062 -170.492)" fill="#9c9c9c"/>
      <path id="Trazado_110903" data-name="Trazado 110903" d="M707.019,170.492h-9.175a4.279,4.279,0,0,1,4.279,4.382,311.1,311.1,0,0,1-2.792,34.506l-1.451,10.568a.987.987,0,0,1-.978.853h9.175a.987.987,0,0,0,.978-.853l1.451-10.568a311.089,311.089,0,0,0,2.792-34.506A4.278,4.278,0,0,0,707.019,170.492Z" transform="translate(-626.161 -170.492)" fill="#838383"/>
    </g>
    <g id="Grupo_54904" data-name="Grupo 54904" transform="translate(0 0)">
      <path id="Trazado_110904" data-name="Trazado 110904" d="M492.764,376.936v52.378a6.923,6.923,0,0,0,6.915,6.915h40.949a6.923,6.923,0,0,0,6.915-6.915V376.936a6.923,6.923,0,0,0-6.915-6.915H499.679A6.923,6.923,0,0,0,492.764,376.936Zm42.588,54.879h-30.4v-15.4a6.882,6.882,0,0,1,6.874-6.874h16.649a6.882,6.882,0,0,1,6.874,6.874v15.4Zm-26.329-37.74a11.055,11.055,0,1,1,11.055,11.055A11.068,11.068,0,0,1,509.023,394.075Zm34.106-17.139v52.378a2.5,2.5,0,0,1-2.5,2.5h-.862v-15.4a11.305,11.305,0,0,0-9.106-11.074,15.469,15.469,0,1,0-21.137.024,11.307,11.307,0,0,0-8.981,11.05v15.4h-.862a2.5,2.5,0,0,1-2.5-2.5V376.936a2.5,2.5,0,0,1,2.5-2.5h40.949a2.5,2.5,0,0,1,2.5,2.5Z" transform="translate(-479.886 -309.101)"/>
      <path id="Trazado_110905" data-name="Trazado 110905" d="M728.265,426.208h51.842a2.207,2.207,0,1,0,0-4.414H728.265a2.207,2.207,0,1,0,0,4.414Z" transform="translate(-644.531 -345.639)"/>
      <path id="Trazado_110906" data-name="Trazado 110906" d="M728.265,482.9h51.842a2.207,2.207,0,1,0,0-4.414H728.265a2.207,2.207,0,1,0,0,4.414Z" transform="translate(-644.531 -385.65)"/>
      <path id="Trazado_110907" data-name="Trazado 110907" d="M728.265,539.594h51.842a2.207,2.207,0,1,0,0-4.414H728.265a2.207,2.207,0,1,0,0,4.414Z" transform="translate(-644.531 -425.661)"/>
      <path id="Trazado_110908" data-name="Trazado 110908" d="M597.453,352.527a2.207,2.207,0,0,0-2.207,2.207v14.809a7.217,7.217,0,0,1-7.209,7.209H460.623a7.217,7.217,0,0,1-7.209-7.209V286.876a7.217,7.217,0,0,1,7.209-7.209h13.8a2.207,2.207,0,1,0,0-4.414h-13.8A11.636,11.636,0,0,0,449,286.876v82.667a11.636,11.636,0,0,0,11.623,11.623H588.037a11.636,11.636,0,0,0,11.623-11.623V354.734A2.207,2.207,0,0,0,597.453,352.527Z" transform="translate(-449 -242.219)"/>
      <path id="Trazado_110909" data-name="Trazado 110909" d="M668.408,196.026H617.136c.845-7.573,1.524-16.026,1.785-26.39a6.481,6.481,0,0,0-6.485-6.644H596.967a6.481,6.481,0,0,0-6.485,6.644c.221,8.787.82,17.63,1.781,26.39H565.089a2.207,2.207,0,1,0,0,4.414H592.78c.01.082.021.163.032.244.165,1.334.381,2.969.5,3.856h-4.1a6.587,6.587,0,0,0,0,13.174h30.965a6.587,6.587,0,0,0,0-13.174h-4.1c.176-1.326.325-2.408.532-4.1h51.788a7.217,7.217,0,0,1,7.209,7.209v57.558a2.207,2.207,0,1,0,4.414,0V207.649A11.637,11.637,0,0,0,668.408,196.026ZM589.219,213.3a2.173,2.173,0,0,1,0-4.346h4.7c.2,1.475-.067-.484.6,4.346Zm21.211,0H598.973c-1.376-10.023-1.552-11.189-2.009-15.053-1.13-9.518-1.829-19.153-2.07-28.721a2.07,2.07,0,0,1,2.072-2.119h15.469a2.07,2.07,0,0,1,2.072,2.119c-.463,18.423-2.211,30.178-4.078,43.774Zm9.754-4.346a2.173,2.173,0,0,1,0,4.346h-5.3l.6-4.346Z" transform="translate(-529.371 -162.992)"/>
    </g>
  </g>
</svg>
