<svg xmlns="http://www.w3.org/2000/svg" width="128" height="129" viewBox="0 0 128 129">
  <g id="Grupo_54921" data-name="Grupo 54921" transform="translate(-335 -1682)">
    <g id="Grupo_54920" data-name="Grupo 54920">
      <ellipse id="Elipse_4103" data-name="Elipse 4103" cx="54" cy="54.5" rx="54" ry="54.5" transform="translate(345 1692)" fill="#fff"/>
    </g>
    <g id="Grupo_54919" data-name="Grupo 54919">
      <g id="Elipse_4102" data-name="Elipse 4102" transform="translate(345 1692)" fill="none" stroke="#fff" stroke-linejoin="round" stroke-width="10" opacity="0.29">
        <ellipse cx="54" cy="54.5" rx="54" ry="54.5" stroke="none"/>
        <ellipse cx="54" cy="54.5" rx="59" ry="59.5" fill="none"/>
      </g>
      <g id="Grupo_54645" data-name="Grupo 54645" transform="translate(364 1711.38)">
        <g id="Grupo_54643" data-name="Grupo 54643" transform="translate(1.129 1.129)">
          <g id="Grupo_54627" data-name="Grupo 54627" transform="translate(30.849 24.381)">
            <path id="Trazado_109148" data-name="Trazado 109148" d="M486.228,216.78a4.586,4.586,0,0,0-.993,5.023,4.734,4.734,0,0,0,.519.937,15.878,15.878,0,0,1-3.7-2.754l-1.016-1.016-2.449-2.449a3.191,3.191,0,0,0-3.951-.452A9.066,9.066,0,0,1,476.521,214l2.179-1.738a14.823,14.823,0,0,0,2.675-2.777l6.073,6.073Z" transform="translate(-474.636 -209.488)" fill="#ffc729"/>
          </g>
          <g id="Grupo_54628" data-name="Grupo 54628" transform="translate(36.515 42.96)">
            <path id="Trazado_109149" data-name="Trazado 109149" d="M516.625,341.168a23.873,23.873,0,0,0,9.075,3.127c-.011.135-.011.282-.011.418v2.032h-1.716a4.6,4.6,0,0,0-4.255,2.844,4.538,4.538,0,0,0-.361,1.75,4.706,4.706,0,0,0,.339,1.727,15.929,15.929,0,0,1-4.278-3.048l-.621-.621a14.638,14.638,0,0,0,1.862-7.168c0-.361-.011-.711-.034-1.061Z" transform="translate(-514.796 -341.168)" fill="#ffc729"/>
          </g>
          <g id="Grupo_54629" data-name="Grupo 54629" transform="translate(0 24.381)">
            <path id="Trazado_109150" data-name="Trazado 109150" d="M295.965,246.387l-2.7,2.7-1.23-1.23a4.59,4.59,0,0,0-5-.993,4.519,4.519,0,0,0-2.054,1.693,4.608,4.608,0,0,0-.768,2.54v1.738h-9.03v-1.738a4.591,4.591,0,0,0-2.822-4.233,4.524,4.524,0,0,0-1.75-.35,4.588,4.588,0,0,0-3.251,1.343l-1.23,1.23-6.389-6.389,1.23-1.23a4.59,4.59,0,0,0,.993-5,4.519,4.519,0,0,0-1.693-2.054,4.608,4.608,0,0,0-2.54-.768H256v-9.03h1.738a4.591,4.591,0,0,0,4.233-2.822,4.524,4.524,0,0,0,.35-1.75,4.588,4.588,0,0,0-1.343-3.251l-1.23-1.23,6.073-6.073a14.822,14.822,0,0,0,2.675,2.777L270.67,214a8.773,8.773,0,0,1,2,2.246,14.674,14.674,0,1,0,15.577,24.81l.316.316a23.544,23.544,0,0,0,7.4,5.012Z" transform="translate(-255.996 -209.488)" fill="#ffc729"/>
          </g>
          <g id="Grupo_54630" data-name="Grupo 54630" transform="translate(29.359 34.529)">
            <path id="Trazado_109151" data-name="Trazado 109151" d="M468.41,286.216a23.394,23.394,0,0,0,4.65,3.612v.011c.023.35.034.7.034,1.061a14.638,14.638,0,0,1-1.862,7.168l-.4-.4-2.449-2.449a3.174,3.174,0,0,0-.576-.452,10.161,10.161,0,0,0-3.736-12.315,8.256,8.256,0,0,1,.1-1.05,3.163,3.163,0,0,0,.824,1.4l2.449,2.449Z" transform="translate(-464.076 -281.408)" fill="#fcd770"/>
          </g>
          <g id="Grupo_54631" data-name="Grupo 54631" transform="translate(9.03 31.142)">
            <path id="Trazado_109152" data-name="Trazado 109152" d="M343.214,282.218a14.674,14.674,0,1,1-15.577-24.81,8.881,8.881,0,0,1,1.377,4.436,10.161,10.161,0,0,0,5.655,18.6,10.046,10.046,0,0,0,5.294-1.49c.056.056.1.113.158.169l2.449,2.449Z" transform="translate(-319.996 -257.408)" fill="#fcd770"/>
          </g>
          <g id="Grupo_54632" data-name="Grupo 54632" transform="translate(40.635)">
            <path id="Trazado_109153" data-name="Trazado 109153" d="M558.67,47.976h-9.03a5.319,5.319,0,0,1-1.129-.113,5.643,5.643,0,0,1,1.129-11.175h7.472a13.977,13.977,0,0,1,9.2,24.494l-4.255,3.725V58.134l1.592-1.6a2.219,2.219,0,0,0,.666-1.592v-.192a2.257,2.257,0,0,0-2.257-2.257V51.362A3.382,3.382,0,0,0,558.67,47.976Z" transform="translate(-543.996 -36.688)" fill="#b27946"/>
          </g>
          <g id="Grupo_54633" data-name="Grupo 54633" transform="translate(47.408 54.361)">
            <path id="Trazado_109154" data-name="Trazado 109154" d="M607.2,425.715a17.1,17.1,0,0,0,2.844-3.747h.011v13.364H592v-4.594c.632.056,1.276.079,1.919.079h.959A17.376,17.376,0,0,0,607.2,425.715Z" transform="translate(-591.996 -421.968)" fill="#b4dd7f"/>
          </g>
          <g id="Grupo_54634" data-name="Grupo 54634" transform="translate(32.734 33.863)">
            <path id="Trazado_109155" data-name="Trazado 109155" d="M504.532,282.332a14.109,14.109,0,0,0-1.851,6.581,23.875,23.875,0,0,1-9.075-3.127v-.011a23.4,23.4,0,0,1-4.65-3.612L488,281.2l4.515-4.515,1.016,1.016a15.876,15.876,0,0,0,3.7,2.754,15.709,15.709,0,0,0,7.3,1.874Z" transform="translate(-487.996 -276.688)" fill="#b4dd7f"/>
          </g>
          <g id="Grupo_54635" data-name="Grupo 54635" transform="translate(31.605 32.734)">
            <path id="Trazado_109156" data-name="Trazado 109156" d="M495.8,292.358v-9.9c0-.135,0-.282.011-.418a14.033,14.033,0,0,1,11.276-13.353,13.961,13.961,0,0,1,9.03,13.037,17.438,17.438,0,0,1-17.439,17.439h-.959c-.643,0-1.287-.023-1.919-.079a23.773,23.773,0,0,1-14.843-6.863l-.316-.316-.643-.643,4.515-4.515.4.4.621.621a15.928,15.928,0,0,0,4.278,3.048,15.7,15.7,0,0,0,5.994,1.546Z" transform="translate(-479.996 -268.688)" fill="#b4dd7f"/>
          </g>
          <g id="Grupo_54636" data-name="Grupo 54636" transform="translate(18.06 42.893)">
            <path id="Trazado_109157" data-name="Trazado 109157" d="M395.284,340.688v1.129a5.644,5.644,0,1,1-11.288,0v-1.129Z" transform="translate(-383.996 -340.688)" fill="#aab2bd"/>
          </g>
          <g id="Grupo_54637" data-name="Grupo 54637" transform="translate(18.06 38.378)">
            <path id="Trazado_109158" data-name="Trazado 109158" d="M395.284,308.688V313.2H384v-4.515h11.288Z" transform="translate(-383.996 -308.688)" fill="#aab2bd"/>
          </g>
          <g id="Grupo_54638" data-name="Grupo 54638" transform="translate(28.219 47.408)">
            <path id="Trazado_109159" data-name="Trazado 109159" d="M463.9,376.074l-4.515,4.515-2.449-2.449c-.056-.056-.1-.113-.158-.169a3.195,3.195,0,0,1,2.416-5.283,3.14,3.14,0,0,1,1.682.485,3.172,3.172,0,0,1,.576.452Z" transform="translate(-455.996 -372.688)" fill="#f0d0b4"/>
          </g>
          <g id="Grupo_54639" data-name="Grupo 54639" transform="translate(29.46 30.476)">
            <path id="Trazado_109160" data-name="Trazado 109160" d="M472.584,256.074l-4.515,4.515-2.449-2.449a3.163,3.163,0,0,1-.824-1.4v-.011a8.98,8.98,0,0,1,1.388-3.556,3.191,3.191,0,0,1,3.951.452Z" transform="translate(-464.796 -252.688)" fill="#f0d0b4"/>
          </g>
          <g id="Grupo_54640" data-name="Grupo 54640" transform="translate(42.893 11.175)">
            <path id="Trazado_109161" data-name="Trazado 109161" d="M575.8,132.932v4.515a14.027,14.027,0,0,0-6.773,3.454v-7.292l-1.862.372a4.7,4.7,0,0,1-.8.079,4.109,4.109,0,0,1-4.109-4.109v-4.921L560,122.773a7.715,7.715,0,0,0,2.258-5.452v-1.434a5.318,5.318,0,0,0,1.129.113h9.03a3.382,3.382,0,0,1,3.386,3.386v1.129a2.257,2.257,0,0,1,2.258,2.258v.192a2.219,2.219,0,0,1-.666,1.592l-1.592,1.6Z" transform="translate(-559.996 -115.888)" fill="#f0d0b4"/>
          </g>
          <g id="Grupo_54641" data-name="Grupo 54641" transform="translate(6.773)">
            <path id="Trazado_109162" data-name="Trazado 109162" d="M328.072,67.65a8.98,8.98,0,0,0-1.388,3.556v.011a8.256,8.256,0,0,0-.1,1.05c-.011.124-.011.237-.011.361v2.438H315.284V72.627c0-.124,0-.237-.011-.361A8.88,8.88,0,0,0,313.9,67.83a8.774,8.774,0,0,0-2-2.246l-2.179-1.738a15.441,15.441,0,0,1-4.21-5.305,15.235,15.235,0,0,1,13.737-21.853h3.364a15.164,15.164,0,0,1,10.78,4.47l2.969,4.165,1.5,6.614a15.185,15.185,0,0,1-3.048,9.132,14.821,14.821,0,0,1-2.675,2.777l-2.179,1.738a9.067,9.067,0,0,0-1.885,2.066Z" transform="translate(-303.996 -36.688)" fill="#ffeaa7"/>
          </g>
          <g id="Grupo_54642" data-name="Grupo 54642" transform="translate(13.545 4.515)">
            <path id="Trazado_109163" data-name="Trazado 109163" d="M361.026,82.233h-4.515A4.509,4.509,0,0,1,352,77.718a9.046,9.046,0,0,1,2.641-6.389c.135-.135.271-.26.418-.384a9.03,9.03,0,0,1,14.832,5.023,5,5,0,0,1,1.106.813,4.518,4.518,0,0,1-3.194,7.709h-4.515a2.274,2.274,0,0,1-2.258-2.257Z" transform="translate(-351.996 -68.688)" fill="#ecc19c"/>
          </g>
        </g>
        <g id="Grupo_54644" data-name="Grupo 54644" transform="translate(0 0)">
          <ellipse id="Elipse_4105" data-name="Elipse 4105" cx="1.129" cy="1.129" rx="1.129" ry="1.129" transform="translate(49.665 15.799)"/>
          <path id="Trazado_109164" data-name="Trazado 109164" d="M308.949,61.806V58.549l3.872-3.387a15.106,15.106,0,0,0-9.947-26.474H295.4a6.745,6.745,0,0,0-6.539,8.5,16.387,16.387,0,0,0-14.351-8.5h-3.368a16.361,16.361,0,0,0-13.666,25.38l-6.2,6.2L253.3,62.3a3.454,3.454,0,0,1-2.441,5.9H248V79.482h2.861a3.454,3.454,0,0,1,2.448,5.894l-2.029,2.029,7.985,7.985,2.027-2.027a3.454,3.454,0,0,1,5.9,2.441v2.866h11.288V95.8a3.454,3.454,0,0,1,5.9-2.441L286.4,95.39l2.964-2.963A24.634,24.634,0,0,0,295.4,93.95v4.72h20.318V84.456a18.451,18.451,0,0,0,2.258-8.864,15.141,15.141,0,0,0-9.031-13.787Zm6.772,13.788A16.325,16.325,0,0,1,299.414,91.9h-.965a22.429,22.429,0,0,1-15.962-6.612l-.161-.161,2.919-2.919.218.218a16.823,16.823,0,0,0,11.969,4.96h.229a13.561,13.561,0,0,0,13.545-13.546h-2.257a11.3,11.3,0,0,1-11.288,11.289V76.319a12.95,12.95,0,0,1,10.063-12.595,12.871,12.871,0,0,1,8,11.869ZM290.594,48.046l2.552,2.552v4.454a5.238,5.238,0,0,0,6.265,5.136l.508-.1V65.55a15.3,15.3,0,0,0-2.105,2.609,14.573,14.573,0,0,1-5.916-1.572,3.418,3.418,0,0,1-.288-.514,3.455,3.455,0,0,1,.748-3.78l2.023-2.023-6.2-6.2a16.217,16.217,0,0,0,2.414-6.022Zm-11.518,33.83A2.064,2.064,0,0,1,282,78.957l1.654,1.654L280.73,83.53Zm4.048-19.85,1.654,1.654L281.859,66.6,280.2,64.945a2.058,2.058,0,0,1-.447-.712,7.822,7.822,0,0,1,.989-2.568,2.111,2.111,0,0,1,2.377.361Zm3.234,11.36c0,.151.016.3.016.453a13.572,13.572,0,0,1-1.064,5.241l-1.718-1.718c-.011-.011-.025-.018-.036-.029a10.845,10.845,0,0,0,.318-5.725A24.757,24.757,0,0,0,286.358,73.385ZM279.6,67.873a8.976,8.976,0,0,1,1.931,8.351,4,4,0,0,0-2.422.133,6.722,6.722,0,0,0,.491-2.518V67.873Zm-13.545,1.45v4.515a6.758,6.758,0,0,0,10.237,5.809,4.172,4.172,0,0,0,.247,2.418,9.023,9.023,0,0,1-10.484-14.192Zm2.258,4.515h9.03a4.515,4.515,0,0,1-9.03,0Zm20.292.822a24.854,24.854,0,0,0,6.8,2.19v.375h-.586a5.729,5.729,0,0,0-5.3,3.538,5.656,5.656,0,0,0-.4,1.771,14.758,14.758,0,0,1-2.053-1.7l-.04-.039a15.838,15.838,0,0,0,1.585-6.129Zm2.864,9.195a3.382,3.382,0,0,1,.129-2.225,3.479,3.479,0,0,1,3.22-2.148h.586v5.506a14.542,14.542,0,0,1-3.935-1.133Zm4.048-9.275a22.685,22.685,0,0,1-11.9-6.225l-.161-.16,2.919-2.919.218.218a16.819,16.819,0,0,0,10.059,4.849,15.062,15.062,0,0,0-1.134,4.237Zm-8.729-18.71,4.4,4.4-.427.427a5.7,5.7,0,0,0-1.666,4.025c-.31-.263-.617-.534-.909-.825l-3.468-3.468a4.245,4.245,0,0,0-1.858-1.076l1.88-1.5A16.438,16.438,0,0,0,286.788,55.869Zm-9.444,9.892v1.3h-4.515V65.937a1.129,1.129,0,0,1,1.129-1.129h2.258a3.364,3.364,0,0,0,1.2-.229A10.275,10.275,0,0,0,277.344,65.762Zm0,3.561v2.258h-9.03V69.323Zm-11.337-4.452a11.26,11.26,0,0,0,11.9,19.023l1.68,1.68a13.528,13.528,0,0,1-14.209-23.012A7.862,7.862,0,0,1,266.006,64.871Zm42.61-16L306.691,50.8V61.668a15.054,15.054,0,0,0-4.515,2.042V59.635l2.479-.5-.444-2.213-5.244,1.05a3.086,3.086,0,0,1-.586.058,2.979,2.979,0,0,1-2.881-2.258h2.16a4.52,4.52,0,0,0,4.515-4.515h-2.258a2.26,2.26,0,0,1-2.258,2.257H295.4V49.665l-1.842-1.842a8.911,8.911,0,0,0,1.842-5.4v-.192h8.984l.045,0h0v0a2.256,2.256,0,0,1,2.256,2.258v2.258h1.129a1.129,1.129,0,0,1,1.129,1.129v.194a1.135,1.135,0,0,1-.332.8ZM295.4,30.946h7.471a12.847,12.847,0,0,1,8.46,22.515l-2.385,2.087V51.73l1.265-1.269a3.361,3.361,0,0,0,.992-2.394v-.194a3.393,3.393,0,0,0-2.257-3.193v-.193a4.515,4.515,0,0,0-4.514-4.515h-.025a4.511,4.511,0,0,1-4.491-4.512h-2.258a6.717,6.717,0,0,0,1.683,4.457,4.473,4.473,0,0,1-3.94-4.457h-2.258a6.715,6.715,0,0,0,1.681,4.455,4.5,4.5,0,0,1,.576-8.97Zm-2.256,10.891v.587a6.624,6.624,0,0,1-1.927,4.652l-.555.555a15.687,15.687,0,0,0-.852-8.358A6.8,6.8,0,0,0,293.146,41.837Zm-22-10.891h3.368a14.119,14.119,0,0,1,8.821,25.143l-2.178,1.742a10.148,10.148,0,0,0-1.934,2.067,3.379,3.379,0,0,0-3.007-1.861H271.7a1.129,1.129,0,1,1,0-2.257h2.257a3.39,3.39,0,0,0,3.386-3.386V51.263h1.129A5.636,5.636,0,0,0,281.548,40.9a10.155,10.155,0,0,0-20.007,2.463,5.65,5.65,0,0,0,5.644,5.644h3.594a3.382,3.382,0,0,0,3.179,2.258h1.129v1.129a1.129,1.129,0,0,1-1.129,1.129H271.7a3.386,3.386,0,1,0,0,6.773h4.515a1.129,1.129,0,1,1,0,2.258h-2.258a3.39,3.39,0,0,0-3.386,3.386v1.129h-2.258v-1.3a10.1,10.1,0,0,0-3.813-7.933l-2.176-1.741a14.119,14.119,0,0,1,8.82-25.143Zm2.813,15.8h1.129V44.491h-1.129a3.336,3.336,0,0,0-1.544.391,4.513,4.513,0,0,0-4.1-2.648v2.257a2.26,2.26,0,0,1,2.258,2.258h-3.386a3.39,3.39,0,0,1-3.386-3.386,7.871,7.871,0,0,1,2.383-5.644h2.132a2.26,2.26,0,0,1,2.258,2.258h2.258a4.5,4.5,0,0,0-3.083-4.26,7.814,7.814,0,0,1,9.081,4.3c-.12-.008-.233-.036-.354-.036h-3.386v2.258h3.386a3.386,3.386,0,1,1,0,6.773h-4.515a1.129,1.129,0,0,1,0-2.257ZM286.4,92.2l-.431-.431a5.712,5.712,0,0,0-9.75,4.038v.608h-6.772V95.8a5.711,5.711,0,0,0-9.749-4.038l-.431.431-4.794-4.793.433-.433a5.711,5.711,0,0,0-4.044-9.748h-.6V70.452h.608A5.711,5.711,0,0,0,254.9,60.7l-.431-.432,4.4-4.4a16.5,16.5,0,0,0,2.045,1.982l2.176,1.739a8.022,8.022,0,0,1,1.064,1.043A15.8,15.8,0,0,0,281.246,87.2a24.8,24.8,0,0,0,5.914,4.229Zm27.068,4.215h-15.8V94.118c.263.008.523.038.787.038h.965a18.516,18.516,0,0,0,14.05-6.464v8.721Z" transform="translate(-247.996 -28.688)"/>
        </g>
      </g>
    </g>
  </g>
</svg>
