<svg xmlns="http://www.w3.org/2000/svg" width="15.667" height="15.667" viewBox="0 0 15.667 15.667">
  <path id="Trazado_101954" data-name="Trazado 101954" d="M271.667-1.167a7.833,7.833,0,0,1-7.833,7.833A7.833,7.833,0,0,1,256-1.167,7.833,7.833,0,0,1,263.833-9,7.833,7.833,0,0,1,271.667-1.167Zm-8.74,4.148,5.812-5.812a.505.505,0,0,0,0-.715l-.715-.715a.505.505,0,0,0-.715,0L262.57.48l-2.213-2.213a.505.505,0,0,0-.715,0l-.715.715a.505.505,0,0,0,0,.715l3.285,3.285a.505.505,0,0,0,.715,0Z" transform="translate(-256 9)" fill="#ff6b00"/>
</svg>
