<svg xmlns="http://www.w3.org/2000/svg" width="150.66" height="148.968" viewBox="0 0 150.66 148.968">
  <g id="Grupo_54899" data-name="Grupo 54899" transform="translate(0 0)">
    <g id="Grupo_54892" data-name="Grupo 54892" transform="translate(2.937 95.938)">
      <g id="Grupo_54891" data-name="Grupo 54891">
        <path id="Trazado_110793" data-name="Trazado 110793" d="M325.486,461.643a3.816,3.816,0,0,1,0-5.314L327.737,454a3.816,3.816,0,0,0,.565-4.567l-3.431-5.947a3.818,3.818,0,0,0-4.241-1.792l-3.137.789a3.82,3.82,0,0,1-4.605-2.657L312,436.715a3.817,3.817,0,0,0-3.673-2.775h-6.865a3.819,3.819,0,0,0-3.672,2.775l-.886,3.113a3.82,3.82,0,0,1-4.605,2.657l-3.137-.789a3.812,3.812,0,0,0-4.238,1.792l-3.434,5.947a3.816,3.816,0,0,0,.565,4.567l2.254,2.325a3.816,3.816,0,0,1,0,5.314l-2.254,2.325a3.816,3.816,0,0,0-.565,4.567l3.434,5.947a3.812,3.812,0,0,0,4.238,1.792l3.137-.789a3.82,3.82,0,0,1,4.605,2.657l.886,3.113a3.814,3.814,0,0,0,3.672,2.772h6.865A3.814,3.814,0,0,0,312,481.256l.886-3.113a3.82,3.82,0,0,1,4.605-2.657l3.137.789a3.818,3.818,0,0,0,4.241-1.792l3.431-5.947a3.816,3.816,0,0,0-.565-4.567ZM304.9,466.581a7.6,7.6,0,1,1,7.592-7.6A7.595,7.595,0,0,1,304.9,466.581Z" transform="translate(-280.98 -433.94)" fill="#bdd3dd"/>
      </g>
    </g>
    <g id="Grupo_54893" data-name="Grupo 54893" transform="translate(98.068 97.61)">
      <path id="Trazado_110794" data-name="Trazado 110794" d="M646.862,486.368h-35.53a7.06,7.06,0,0,1-7.06-7.06V446.682a7.06,7.06,0,0,1,7.06-7.06h35.53a7.06,7.06,0,0,1,7.06,7.06v32.627a7.06,7.06,0,0,1-7.06,7.06Z" transform="translate(-604.272 -439.622)" fill="#eaf0f0"/>
    </g>
    <g id="Grupo_54896" data-name="Grupo 54896" transform="translate(3.136 2.851)">
      <g id="Grupo_54894" data-name="Grupo 54894" transform="translate(12.606)">
        <path id="Trazado_110795" data-name="Trazado 110795" d="M335.611,142.708A11.111,11.111,0,0,1,324.5,131.6v-2.89a11.111,11.111,0,1,1,22.223,0v2.89A11.111,11.111,0,0,1,335.611,142.708Z" transform="translate(-324.499 -117.595)" fill="#ffdad5"/>
      </g>
      <g id="Grupo_54895" data-name="Grupo 54895" transform="translate(0 25.113)">
        <path id="Trazado_110796" data-name="Trazado 110796" d="M297.19,202.938h16.371a15.533,15.533,0,0,1,15.532,15.532v8.81H281.658v-8.81A15.532,15.532,0,0,1,297.19,202.938Z" transform="translate(-281.658 -202.938)" fill="#ffce62"/>
      </g>
    </g>
    <g id="Grupo_54897" data-name="Grupo 54897" transform="translate(99.281 2.851)">
      <ellipse id="Elipse_4147" data-name="Elipse 4147" cx="24.218" cy="24.218" rx="24.218" ry="24.218" fill="#ff7e96"/>
    </g>
    <g id="Grupo_54898" data-name="Grupo 54898" transform="translate(0 0)">
      <path id="Trazado_110797" data-name="Trazado 110797" d="M336.991,483.242a10.55,10.55,0,0,0-10.538,10.538c.53,13.959,20.545,13.959,21.073,0A10.548,10.548,0,0,0,336.991,483.242Zm0,15.19a4.651,4.651,0,1,1,4.649-4.653A4.658,4.658,0,0,1,336.991,498.432Z" transform="translate(-310.135 -372.797)"/>
      <path id="Trazado_110798" data-name="Trazado 110798" d="M322.8,449a6.783,6.783,0,0,0,1-8.087l-3.432-5.949a6.785,6.785,0,0,0-7.506-3.174l-3.138.789a.874.874,0,0,1-1.057-.609l-.885-3.11a6.784,6.784,0,0,0-6.5-4.916h-6.865a6.791,6.791,0,0,0-6.5,4.912l-.885,3.112a.873.873,0,0,1-1.058.609l-3.135-.788a6.78,6.78,0,0,0-7.505,3.174l-3.434,5.946a6.784,6.784,0,0,0,1,8.088l2.255,2.326a.869.869,0,0,1,0,1.217L272.9,454.86a6.785,6.785,0,0,0-1,8.089l3.433,5.944a6.78,6.78,0,0,0,7.505,3.178l3.137-.789a.873.873,0,0,1,1.057.608l.885,3.11a6.783,6.783,0,0,0,6.5,4.913h6.865a6.782,6.782,0,0,0,6.5-4.91l.885-3.112a.873.873,0,0,1,1.058-.609l3.135.788a6.789,6.789,0,0,0,7.509-3.175l3.43-5.946a6.783,6.783,0,0,0-1-8.086l-2.251-2.324,0,0a.87.87,0,0,1,0-1.219Zm-6.476,7.637,2.254,2.327a.877.877,0,0,1,.127,1.047l-3.43,5.946a.88.88,0,0,1-.975.41l-3.136-.789a6.733,6.733,0,0,0-8.154,4.706l-.887,3.117a.875.875,0,0,1-.841.631h-6.865a.876.876,0,0,1-.842-.634l-.886-3.115a6.8,6.8,0,0,0-8.153-4.7l-3.139.789a.874.874,0,0,1-.969-.411L277,460.006a.878.878,0,0,1,.129-1.047l2.253-2.324a6.726,6.726,0,0,0,0-9.412l-2.256-2.326a.876.876,0,0,1-.128-1.046l3.436-5.951a.872.872,0,0,1,.97-.406l3.137.788a6.731,6.731,0,0,0,8.154-4.705l.885-3.112a.881.881,0,0,1,.842-.639h6.865a.878.878,0,0,1,.842.637l.886,3.114a6.731,6.731,0,0,0,8.153,4.7l3.139-.789a.879.879,0,0,1,.972.409l3.432,5.949a.878.878,0,0,1-.131,1.048l-2.249,2.323a6.728,6.728,0,0,0,0,9.411Z" transform="translate(-271 -330.945)"/>
      <path id="Trazado_110799" data-name="Trazado 110799" d="M505.734,494.453a2.972,2.972,0,0,0-.234-3.894l-8.07-8.071a2.943,2.943,0,1,0-4.161,4.162l3.047,3.047H481.521a2.943,2.943,0,1,0,0,5.885h14.795l-3.046,3.047a2.943,2.943,0,0,0,4.161,4.162l8.07-8.07A2.913,2.913,0,0,0,505.734,494.453Z" transform="translate(-417.496 -371.657)"/>
      <path id="Trazado_110800" data-name="Trazado 110800" d="M506.317,173.552a2.956,2.956,0,0,0-.815-1.576l-8.07-8.071a2.943,2.943,0,0,0-4.161,4.162l3.047,3.047h-14.8a2.943,2.943,0,0,0,0,5.885h14.795l-3.046,3.047a2.943,2.943,0,0,0,4.161,4.162l8.07-8.07a2.963,2.963,0,0,0,.816-2.586Z" transform="translate(-417.497 -146.819)"/>
      <path id="Trazado_110801" data-name="Trazado 110801" d="M337.317,317.334a2.943,2.943,0,0,0-2.943,2.943V332.49l-3.046-3.047a2.943,2.943,0,0,0-4.162,4.162l8.07,8.07a2.977,2.977,0,0,0,4.161,0l8.07-8.07a2.943,2.943,0,1,0-4.161-4.162l-3.047,3.047V320.277a2.942,2.942,0,0,0-2.942-2.943Z" transform="translate(-310.03 -255.708)"/>
      <path id="Trazado_110802" data-name="Trazado 110802" d="M661.655,317.334a2.943,2.943,0,0,0-2.943,2.943V332.49l-3.047-3.047a2.943,2.943,0,0,0-4.162,4.162l8.07,8.07a2.977,2.977,0,0,0,4.161,0l8.07-8.07a2.943,2.943,0,0,0-4.162-4.162l-3.047,3.047V320.277a2.942,2.942,0,0,0-2.942-2.943Z" transform="translate(-538.929 -255.708)"/>
      <path id="Trazado_110803" data-name="Trazado 110803" d="M639.8,429.621h-35.53a10.014,10.014,0,0,0-10,10V472.25a10.014,10.014,0,0,0,10,10h26.24a2.943,2.943,0,0,0,0-5.885h-26.24a4.122,4.122,0,0,1-4.117-4.117V439.624a4.122,4.122,0,0,1,4.117-4.117H639.8a4.122,4.122,0,0,1,4.117,4.117V463.16a2.943,2.943,0,0,0,5.885,0V439.624a10.014,10.014,0,0,0-10-10Z" transform="translate(-499.146 -334.954)"/>
      <path id="Trazado_110804" data-name="Trazado 110804" d="M274.6,163.156h47.436a2.943,2.943,0,0,0,2.943-2.943V151.4a18.5,18.5,0,0,0-15.42-18.217,13.98,13.98,0,0,0,2.813-8.426v-2.89c-.709-18.624-27.406-18.609-28.108,0v2.89a13.983,13.983,0,0,0,2.813,8.426,18.5,18.5,0,0,0-15.42,18.217v8.81a2.943,2.943,0,0,0,2.943,2.943Zm15.549-41.287c.412-10.825,15.929-10.817,16.337,0v2.89c-.412,10.825-15.929,10.817-16.337,0ZM277.543,151.4a12.6,12.6,0,0,1,12.59-12.59H306.5a12.6,12.6,0,0,1,12.59,12.59v5.868h-5.92v-6.356a2.943,2.943,0,0,0-5.885,0v6.356H289.429v-6.356a2.943,2.943,0,0,0-5.885,0v6.356h-6Z" transform="translate(-271.464 -107.907)"/>
      <path id="Trazado_110805" data-name="Trazado 110805" d="M625.556,162.343a27.191,27.191,0,0,0,27.161-27.161c-1.365-35.983-52.961-35.973-54.322,0a27.192,27.192,0,0,0,27.161,27.16Zm0-48.436a21.3,21.3,0,0,1,21.275,21.275c-1.07,28.186-41.485,28.178-42.551,0a21.3,21.3,0,0,1,21.275-21.275Z" transform="translate(-502.056 -108.113)"/>
      <path id="Trazado_110806" data-name="Trazado 110806" d="M655.764,186.149a2.943,2.943,0,0,0,4.162,0L672.473,173.6a2.943,2.943,0,0,0-4.162-4.162l-10.465,10.465-3.99-3.99a2.943,2.943,0,0,0-4.162,4.162Z" transform="translate(-537.651 -150.726)"/>
      <path id="Trazado_110807" data-name="Trazado 110807" d="M665.765,482.762H645.2a2.943,2.943,0,0,0,0,5.885h20.565A2.943,2.943,0,0,0,665.765,482.762Z" transform="translate(-533.025 -372.458)"/>
      <path id="Trazado_110808" data-name="Trazado 110808" d="M645.2,533.726a2.943,2.943,0,0,0,0,5.885h10.718a2.943,2.943,0,0,0,0-5.885Z" transform="translate(-533.025 -408.425)"/>
      <path id="Trazado_110809" data-name="Trazado 110809" d="M761.219,583.767a2.941,2.941,0,1,0-1.27,3.684A2.965,2.965,0,0,0,761.219,583.767Z" transform="translate(-612.974 -442.489)"/>
    </g>
  </g>
</svg>
