<svg xmlns="http://www.w3.org/2000/svg" width="145.952" height="145.952" viewBox="0 0 145.952 145.952">
  <g id="Grupo_54902" data-name="Grupo 54902" transform="translate(0 0)">
    <path id="Trazado_110872" data-name="Trazado 110872" d="M352.65,158.6v2.354H302.39a32.866,32.866,0,0,0-9.51-11.841l.118-.141A30.6,30.6,0,0,1,352.65,158.6Z" transform="translate(-209.052 -92.689)" fill="#b4dd7f"/>
    <ellipse id="Elipse_4148" data-name="Elipse 4148" cx="16.331" cy="16.672" rx="16.331" ry="16.672" transform="translate(96.627 2.188)" fill="#f0d0b4"/>
    <path id="Trazado_110873" data-name="Trazado 110873" d="M272,306.487a33.018,33.018,0,0,0,18.621-26.012l1.365-.589a28.317,28.317,0,0,1,4.426-1.86L297.895,272h14.124l1.483,6.026a28.316,28.316,0,0,1,4.426,1.86l5.344-3.225,9.981,9.981-3.225,5.344a28.316,28.316,0,0,1,1.86,4.426l6.026,1.483v14.124l-6.026,1.483a28.316,28.316,0,0,1-1.86,4.426l3.225,5.344-9.981,9.981-5.344-3.225a28.313,28.313,0,0,1-4.426,1.86l-1.483,6.026H297.895l-1.483-6.026a28.314,28.314,0,0,1-4.426-1.86l-5.344,3.225-9.981-9.981,3.225-5.344a28.316,28.316,0,0,1-1.86-4.426L272,312.019Zm32.957-18.009a16.478,16.478,0,1,0,16.478,16.478A16.466,16.466,0,0,0,304.957,288.478Z" transform="translate(-194.316 -194.316)" fill="#ffc729"/>
    <path id="Trazado_110874" data-name="Trazado 110874" d="M344.478,328A16.478,16.478,0,1,1,328,344.478,16.466,16.466,0,0,1,344.478,328Zm7.062,16.478a7.062,7.062,0,1,0-7.062,7.062A7.053,7.053,0,0,0,351.541,344.478Z" transform="translate(-233.837 -233.838)" fill="#fcd770"/>
    <path id="Trazado_110875" data-name="Trazado 110875" d="M41.895,370.354l9.416,9.416,2.354,2.354L33.043,402.746a9.987,9.987,0,0,1-14.124-14.124L39.541,368Z" transform="translate(-13.646 -262.067)" fill="#cf9e76"/>
    <path id="Trazado_110876" data-name="Trazado 110876" d="M121.208,358.936l-7.792,7.792L104,357.312l7.792-7.792A32.056,32.056,0,0,0,121.208,358.936Z" transform="translate(-75.751 -249.025)" fill="#ccd1d9"/>
    <path id="Trazado_110877" data-name="Trazado 110877" d="M177.7,212.723a32.934,32.934,0,0,1-50.848,23.753,32.055,32.055,0,0,1-9.416-9.416A32.936,32.936,0,1,1,177.7,212.723Z" transform="translate(-81.397 -126.565)" fill="#e6e9ed"/>
    <ellipse id="Elipse_4149" data-name="Elipse 4149" cx="23.476" cy="23.476" rx="23.476" ry="23.476" transform="translate(40.148 58.668)" fill="#69d6f4"/>
    <path id="Trazado_110878" data-name="Trazado 110878" d="M25.416,53.665A9.414,9.414,0,0,1,16,44.249V25.416A9.414,9.414,0,0,1,25.416,16H63.081A9.414,9.414,0,0,1,72.5,25.416V44.249a9.414,9.414,0,0,1-9.416,9.416H48.957V64.588a3.209,3.209,0,0,1-5.673,2.048L32.478,53.665Z" transform="translate(-13.646 -13.646)" fill="#ffeaa7"/>
    <path id="Trazado_110879" data-name="Trazado 110879" d="M119.541,50.354V64.478a2.361,2.361,0,0,1-2.354,2.354H98.354A2.361,2.361,0,0,1,96,64.478V50.354A2.361,2.361,0,0,1,98.354,48h18.833A2.361,2.361,0,0,1,119.541,50.354Z" transform="translate(-70.105 -36.23)" fill="#ff826e"/>
    <path id="Trazado_110880" data-name="Trazado 110880" d="M161.895,200a25.895,25.895,0,1,0,25.895,25.895A25.925,25.925,0,0,0,161.895,200Zm0,47.081a21.187,21.187,0,1,1,21.187-21.187A21.209,21.209,0,0,1,161.895,247.081Z" transform="translate(-98.335 -143.503)"/>
    <path id="Trazado_110881" data-name="Trazado 110881" d="M19.77,50.373h5.958L35.832,62.5a5.561,5.561,0,0,0,9.833-3.559V50.373h11.77A11.784,11.784,0,0,0,69.206,38.6V19.77A11.784,11.784,0,0,0,57.435,8H19.77A11.784,11.784,0,0,0,8,19.77V38.6A11.784,11.784,0,0,0,19.77,50.373Zm-7.062-30.6a7.071,7.071,0,0,1,7.062-7.062H57.435A7.071,7.071,0,0,1,64.5,19.77V38.6a7.071,7.071,0,0,1-7.062,7.062H40.957V58.937a.884.884,0,0,1-1.507.544L27.937,45.665H19.77A7.071,7.071,0,0,1,12.708,38.6Z" transform="translate(-8 -8)"/>
    <path id="Trazado_110882" data-name="Trazado 110882" d="M92.708,63.541h18.833a4.713,4.713,0,0,0,4.708-4.708V44.708A4.713,4.713,0,0,0,111.541,40H92.708A4.713,4.713,0,0,0,88,44.708V58.833A4.713,4.713,0,0,0,92.708,63.541Zm0-18.833h18.833V58.833H92.708Z" transform="translate(-64.459 -30.584)"/>
    <path id="Trazado_110883" data-name="Trazado 110883" d="M40,40h9.416v4.708H40Z" transform="translate(-30.584 -30.584)"/>
    <path id="Trazado_110884" data-name="Trazado 110884" d="M40,72h9.416v4.708H40Z" transform="translate(-30.584 -53.168)"/>
    <path id="Trazado_110885" data-name="Trazado 110885" d="M40,104h9.416v4.708H40Z" transform="translate(-30.584 -75.752)"/>
    <path id="Trazado_110886" data-name="Trazado 110886" d="M264,280h4.708v4.708H264Z" transform="translate(-188.67 -199.962)"/>
    <path id="Trazado_110887" data-name="Trazado 110887" d="M232,280h4.708v4.708H232Z" transform="translate(-166.086 -199.962)"/>
    <path id="Trazado_110888" data-name="Trazado 110888" d="M200,280h4.708v4.708H200Z" transform="translate(-143.502 -199.962)"/>
    <path id="Trazado_110889" data-name="Trazado 110889" d="M168,280h4.708v4.708H168Z" transform="translate(-120.919 -199.962)"/>
    <path id="Trazado_110890" data-name="Trazado 110890" d="M64.352,428.261l3.329-3.329,3.329,3.329-3.329,3.329Z" transform="translate(-47.77 -302.247)"/>
    <path id="Trazado_110891" data-name="Trazado 110891" d="M42.3,450.725l3.161-3.161,3.329,3.329-3.161,3.161Z" transform="translate(-32.204 -318.219)"/>
    <path id="Trazado_110892" data-name="Trazado 110892" d="M86.976,405.639,90.3,402.31l3.329,3.329L90.3,408.967Z" transform="translate(-63.737 -286.281)"/>
    <path id="Trazado_110893" data-name="Trazado 110893" d="M361.416,370.833A9.416,9.416,0,1,0,352,361.416,9.426,9.426,0,0,0,361.416,370.833Zm0-14.124a4.708,4.708,0,1,1-4.708,4.708A4.713,4.713,0,0,1,361.416,356.708Z" transform="translate(-250.775 -250.776)"/>
    <path id="Trazado_110894" data-name="Trazado 110894" d="M338.833,357.665A18.833,18.833,0,1,0,320,338.833,18.854,18.854,0,0,0,338.833,357.665Zm0-32.957a14.124,14.124,0,1,1-14.124,14.124A14.139,14.139,0,0,1,338.833,324.708Z" transform="translate(-228.191 -228.192)"/>
    <path id="Trazado_110895" data-name="Trazado 110895" d="M153.952,73.914a33,33,0,0,0-22.707-31.3,18.832,18.832,0,1,0-20.53-.019A32.882,32.882,0,0,0,90.762,60.8,35.251,35.251,0,0,0,41.077,108.13l-4.828,4.828L33.895,110.6,11.613,132.886a12.341,12.341,0,0,0,17.453,17.453l22.281-22.281L48.994,125.7l4.828-4.828a34.865,34.865,0,0,0,29.508,2.768v3.905l6.577,1.617c.29.782.617,1.565.979,2.342l-3.512,5.8,12.6,12.6,5.8-3.512q1.169.544,2.342.979l1.615,6.575h17.816l1.617-6.577q1.172-.434,2.342-.979l5.8,3.512,12.6-12.6-3.512-5.8q.544-1.169.979-2.342l6.575-1.615V109.733l-6.577-1.617q-.434-1.172-.979-2.342l3.512-5.8-12.6-12.6-5.8,3.512q-1.169-.544-2.342-.979l-1.615-6.575H109.733l-1.617,6.577c-.431.16-.826.374-1.25.553a.666.666,0,0,0,0-.068,35.1,35.1,0,0,0-2.06-11.77h49.141ZM106.871,26.833A14.124,14.124,0,1,1,121,40.957,14.139,14.139,0,0,1,106.871,26.833ZM25.738,147.01a7.634,7.634,0,0,1-10.8-10.8l18.953-18.953,10.8,10.8Zm19.927-24.635-6.088-6.088,4.188-4.188a35.554,35.554,0,0,0,6.088,6.088ZM40.957,90.392A30.6,30.6,0,1,1,71.56,121,30.638,30.638,0,0,1,40.957,90.392Zm65.787,5.266a25.646,25.646,0,0,1,4.061-1.7l1.262-.4,1.358-5.523h10.433l1.358,5.525,1.262.4a25.83,25.83,0,0,1,4.061,1.7l1.172.61,4.882-2.954,7.375,7.375-2.954,4.882.61,1.172a25.646,25.646,0,0,1,1.7,4.061l.4,1.262,5.523,1.356v10.433l-5.525,1.358-.4,1.262a25.83,25.83,0,0,1-1.7,4.061l-.61,1.172,2.954,4.882-7.375,7.375-4.882-2.954-1.172.61a25.645,25.645,0,0,1-4.061,1.7l-1.262.4-1.356,5.523H113.424l-1.358-5.525-1.262-.4a25.831,25.831,0,0,1-4.061-1.7l-1.172-.61-4.882,2.954-7.375-7.375,2.954-4.882-.61-1.172a25.561,25.561,0,0,1-1.7-4.065l-.4-1.257-5.518-1.356V121.6a35.363,35.363,0,0,0,18.373-25.793Zm-3.978-21.745a35.5,35.5,0,0,0-8.112-10.172,28.242,28.242,0,0,1,54.591,10.172Z" transform="translate(-8 -8)"/>
  </g>
</svg>
