<svg xmlns="http://www.w3.org/2000/svg" xmlns:xlink="http://www.w3.org/1999/xlink" width="400" height="301.45" viewBox="0 0 400 301.45">
  <defs>
    <linearGradient id="linear-gradient" x1="0.5" y1="1" x2="0.5" gradientUnits="objectBoundingBox">
      <stop offset="0" stop-color="#fff"/>
      <stop offset="0.622" stop-color="#fff"/>
      <stop offset="1" stop-color="#e3e3e3"/>
    </linearGradient>
  </defs>
  <g id="Grupo_54890" data-name="Grupo 54890" transform="translate(-861.333 -246.584)">
    <g id="Grupo_54870" data-name="Grupo 54870" transform="translate(881.136 246.584)" opacity="0.2">
      <path id="Trazado_110719" data-name="Trazado 110719" d="M1158.485,663.815c-.087-.065-.187-.131-.277-.2,5.03-1.042,13.848-3.176,11.871-5-2.008-1.855-9.254,2.062-12.956,4.269-.714-.459-1.5-.922-2.368-1.384,4.374-3.987,10.028-9.956,6.3-11.26-3.651-1.277-6.955,5.172-8.867,10-11.664-5.281-33.53-9.732-65.018-4.548-38.541,6.346-66.636-14.365-100.494-17.666-23.506-2.292-39.893,7.968-54.588,15.406-4.924-11.069-16.217-33.561-24.748-28.6-8.477,4.928,11.382,22.063,21.607,30.154-1.637.786-3.258,1.521-4.869,2.185-5.926-4.7-20.624-15.435-28.22-12.766-7.626,2.679,16,10.4,26.269,13.533a41.821,41.821,0,0,1-8.931,2.367c-20.531,2.837-22.14,13.379-22.14,13.379l314.5.323C1202.907,662.318,1167.13,670.194,1158.485,663.815Z" transform="translate(-891.052 -372.557)" fill="#facba8"/>
      <path id="Trazado_110720" data-name="Trazado 110720" d="M1018.428,524.4l4.2,9c4.2,9,25.214,10.505,36.92,8.1s6.6-5.7.3-11.062-19.511-3.946-23.413-6.047,1.8-4.2,9.606-3.6,11.706,8.4,24.313,9.605,22.212-22.512,22.212-22.512c-8.705,2.7-24.313-2.1-24.914-5.1s22.512-2.7,26.114-3.6,9.905-8.1,6-22.512-28.215-9.905-28.215-9.905-16.509,25.214-21.311,25.814,9.905-24.313,9.905-24.313c-9.3-.9-33.018,10.505-33.018,10.505s1.5,29.416-3.3,28.816,0-26.114,0-26.114c-9,2.7-17.409,13.207-17.409,13.207C995.916,511.792,1018.428,524.4,1018.428,524.4Z" transform="translate(-928.615 -319.829)" fill="#facba8"/>
      <path id="Trazado_110721" data-name="Trazado 110721" d="M1304.784,349.689c-4.687-3.709-21.38-5.8-21.38-5.8s-9.39,16.324-11.762,14.336,9.052-14.03,9.052-14.03c-5.775-1.67-13.931,1.061-13.931,1.061-11.575,5.551-3.849,20.126-3.849,20.126l-.864,6.3c-.864,6.294,9.9,14.383,17.026,17.151s5.525-.775,4-5.839-9.114-8.883-10.482-11.364,2.424-1.633,6.409,1.394,3.376,8.573,9.733,13.588,19.736-4.4,19.736-4.4c-5.613-1.566-12.334-9.557-11.615-11.377s13.031,6.352,15.278,7.116,8.131-.92,11.028-10.014-11.725-15.1-11.725-15.1-17.609,7.824-20.4,6.482S1304.784,349.689,1304.784,349.689Z" transform="translate(-1014.286 -278.973)" fill="#facba8"/>
      <path id="Trazado_110722" data-name="Trazado 110722" d="M1180.125,306.7l4.468,8.876c4.469,8.876,25.515,9.75,37.146,7s6.43-5.9-.03-11.066-19.619-3.364-23.582-5.348,1.675-4.254,9.493-3.886,11.951,8.052,24.589,8.877,21.532-23.163,21.532-23.163c-8.62,2.959-24.365-1.377-25.054-4.359s22.422-3.37,26-4.378,9.66-8.4,5.331-22.681-28.5-9.061-28.5-9.061-15.751,25.694-20.534,26.437,9.177-24.6,9.177-24.6c-9.328-.623-32.69,11.484-32.69,11.484s2.375,29.359-2.443,28.9-.778-26.1-.778-26.1c-8.92,2.969-17.008,13.72-17.008,13.72C1157.248,294.772,1180.125,306.7,1180.125,306.7Z" transform="translate(-982.363 -246.584)" fill="#facba8"/>
      <path id="Trazado_110723" data-name="Trazado 110723" d="M1418.559,677.44a33.773,33.773,0,0,1-6.217-.5c2.365-1.742,7.342-5.346,11.4-7.882,5.525-3.448,8.658-9.259.863-10.247-6.639-.844-11.859,13.646-13.262,17.954-.909-.167-1.8-.35-2.658-.536a145.43,145.43,0,0,1,5.624-14.087c2.993-6.114,13.578-16.441,2.993-17.617-9.415-1.049-11.913,25.069-12.35,30.879a18.584,18.584,0,0,0-4.852-.574c-3.012.221-5.894,3.5-4.191,4.947h31.787C1426.661,678.915,1424,677.31,1418.559,677.44Z" transform="translate(-1059.334 -379.353)" fill="#facba8"/>
    </g>
    <path id="Trazado_110724" data-name="Trazado 110724" d="M1010.462,321.469s-23.172-1.133-10.88,69.49c0,0,8.27,23.973-2.17,39.424h153.674V321.469Z" transform="translate(-44.929 -24.986)" fill="#fbd5b9"/>
    <g id="Grupo_54876" data-name="Grupo 54876" transform="translate(881.136 407.93)">
      <g id="Grupo_54872" data-name="Grupo 54872" transform="translate(82.034 46.194)">
        <path id="Trazado_110725" data-name="Trazado 110725" d="M1038.906,584.019s-10.736-12.524-.662-20.48c0,0,7.358-4.455,13.358-4.093,0,0-8.5,14.256-5.751,15.675s8.328-16.569,8.328-16.569,16.745-1.624,22.132.966c0,0-14.315,11.714-11.3,12.412s18.477-10.8,18.477-10.8,15.586,2.652,14.755,12.159-6.2,12.443-8.562,12.191-16.167-5.523-16.468-3.59,8.011,8.255,13.83,8.55c0,0-10.988,12.118-18.291,8.621s-7.926-9.042-12.478-11.12-8.438-2.074-6.559.047,10.118,4.182,12.721,8.786,4.939,7.71-2.616,6.573-19.837-6.665-20.376-13Z" transform="translate(-1020.76 -558.049)" fill="#06c"/>
        <g id="Grupo_54871" data-name="Grupo 54871" transform="translate(0 15.422)">
          <path id="Trazado_110726" data-name="Trazado 110726" d="M1088.358,581.267s-42.33-1.631-51.678,10.475a30.615,30.615,0,0,1-8.429,11.83l-.992,2.7s7.336-7.734,9.96-8.2C1037.219,598.073,1033.114,583.075,1088.358,581.267Z" transform="translate(-1018.533 -581.194)" fill="#facba8"/>
          <path id="Trazado_110727" data-name="Trazado 110727" d="M1023.881,614.245s-9.086,6.72-9.717,18.726l1.649.147s2.9-12.414,8.147-17.269S1023.881,614.245,1023.881,614.245Z" transform="translate(-1014.164 -591.866)" fill="#facba8"/>
        </g>
      </g>
      <g id="Grupo_54874" data-name="Grupo 54874" transform="translate(0 12.188)">
        <path id="Trazado_110728" data-name="Trazado 110728" d="M953.7,551.239s17.078-9.563,9.108-22.543c0,0-6.376-7.97-13.207-10.02,0,0,3.643,19.356,0,19.811s-2.5-21.86-2.5-21.86-17.989-8.653-25.048-7.97c0,0,11.158,18.9,7.514,18.444s-16.167-19.583-16.167-19.583-18.444-3.416-21.4,7.515,1.822,16.395,4.554,17.078,20.266.455,19.81,2.732-12.3,5.92-18.9,3.871c0,0,7.286,17.989,16.85,17.078s12.524-6.831,18.444-7.287,10.247,1.139,7.287,2.733-12.98.523-17.761,4.588-8.654,6.57.227,8.392,24.82.683,28.008-6.148Z" transform="translate(-891.052 -507.014)" fill="#facba8"/>
        <g id="Grupo_54873" data-name="Grupo 54873" transform="translate(9.359 11.436)">
          <path id="Trazado_110729" data-name="Trazado 110729" d="M905.1,524.176s47.819,15.484,53.284,32.79a36.324,36.324,0,0,0,4.554,16.623V577s-5.01-11.613-7.743-13.207C955.194,563.8,965.9,548.768,905.1,524.176Z" transform="translate(-905.098 -524.176)" fill="#facba8"/>
          <path id="Trazado_110730" data-name="Trazado 110730" d="M990.755,597.267s7.374,11.2,3.17,24.83l-1.9-.51s1.842-15.015-2.016-22.566S990.755,597.267,990.755,597.267Z" transform="translate(-932.916 -547.855)" fill="#facba8"/>
        </g>
      </g>
      <g id="Grupo_54875" data-name="Grupo 54875" transform="translate(77.924 0)">
        <path id="Trazado_110731" data-name="Trazado 110731" d="M1093.072,488.723s-63.035,20.411-70.239,43.224c0,0,.3,10.206-6,21.912v4.5s6.6-15.308,10.206-17.409C1027.036,540.952,1012.928,521.141,1093.072,488.723Z" transform="translate(-1010.943 -488.723)" fill="#facba8"/>
        <path id="Trazado_110732" data-name="Trazado 110732" d="M1013.882,585.072s-9.721,14.761-4.179,32.731l2.5-.672s-2.427-19.792,2.659-29.747S1013.882,585.072,1013.882,585.072Z" transform="translate(-1007.995 -519.936)" fill="#facba8"/>
      </g>
      <path id="Trazado_110733" data-name="Trazado 110733" d="M1002.619,671.993a44.1,44.1,0,0,0,44.1-44.1h-88.2A44.1,44.1,0,0,0,1002.619,671.993Z" transform="translate(-913.564 -535.16)" fill="#ff6b00"/>
      <path id="Trazado_110734" data-name="Trazado 110734" d="M1016.162,671.656A44.13,44.13,0,0,1,966.587,627.9h10.955A44.106,44.106,0,0,0,1016.162,671.656Z" transform="translate(-916.255 -535.16)" fill="rgba(191,80,0,0.5)"/>
      <path id="Trazado_110735" data-name="Trazado 110735" d="M1047.021,694.719H957.607a5.44,5.44,0,0,1,5.441-5.441h78.533a5.44,5.44,0,0,1,5.44,5.441Z" transform="translate(-913.259 -555.641)" fill="#ff6b00"/>
      <rect id="Rectángulo_5917" data-name="Rectángulo 5917" width="90.649" height="1.353" transform="translate(43.507 92.735)" fill="#ff5549"/>
    </g>
    <g id="Grupo_54877" data-name="Grupo 54877" transform="translate(1068.284 325.899)">
      <path id="Trazado_110736" data-name="Trazado 110736" d="M1177.179,368.5s-9.277,15.044-3.2,32.84l2.48-.746s-3.016-19.711,1.771-29.812S1177.179,368.5,1177.179,368.5Z" transform="translate(-1171.914 -365.615)" fill="#5f89d3"/>
    </g>
    <rect id="Rectángulo_5918" data-name="Rectángulo 5918" width="160.441" height="209.237" transform="translate(975.277 338.285)" fill="#803600"/>
    <rect id="Rectángulo_5919" data-name="Rectángulo 5919" width="157.744" height="209.237" transform="translate(980.522 338.285)" fill="#fff"/>
    <path id="Trazado_110737" data-name="Trazado 110737" d="M1191.157,365.742l0,0H1033.411c.873-12.635-.442-21.809-2.548-28.407-4.046-12.686-11.018-15.869-11.018-15.869h148.768c12.7,0,22.542,8.1,25.222,18.856.1.405.193.807.274,1.21C1196.653,353.838,1191.262,365.517,1191.157,365.742Z" transform="translate(-52.89 -24.986)" fill="url(#linear-gradient)"/>
    <g id="Grupo_54878" data-name="Grupo 54878" transform="translate(990.139 367.208)">
      <path id="Trazado_110738" data-name="Trazado 110738" d="M1119.183,468.092a193.147,193.147,0,0,1-45.648-5.238c-12.282-3.114-18.9-8.2-18.9-12.718,0-4.091,5.391-7.854,15.592-10.882h0c-9.775,2.9-15,7.162-15,10.882,0,4.128,6.776,8.213,18.592,11.209,12.114,3.071,28.225,4.763,45.365,4.763s33.251-1.692,45.365-4.763c11.815-3,18.591-7.081,18.591-11.209,0-4.371-7.136-9.8-18.622-14.177-13.06-4.973-29.161-6.818-45.334-6.818-30.365,0-42.865,3.544-53.709,7.986h0c10.892-4.461,23.237-9.517,53.709-9.517,16.239,0,32.408,2.752,45.529,7.748,11.729,4.466,19.016,10.129,19.016,14.778,0,4.514-6.765,8.715-19.046,11.829C1152.525,465.047,1136.367,468.092,1119.183,468.092Z" transform="translate(-1054.638 -427.61)" fill="#ea7424"/>
    </g>
    <g id="Grupo_54881" data-name="Grupo 54881" transform="translate(1069.015 357.642)">
      <path id="Trazado_110739" data-name="Trazado 110739" d="M1304.639,548.255s-.566,5.5-1.187,6.542-3.264,4.366-4.39,5.018.688-4.381.458-5.361-.927,1.787-1.423,1.852-.368-2.425-.386-3.332,2.415-3.144,3.272-5.073S1304.639,548.255,1304.639,548.255Z" transform="translate(-1214.617 -457.922)" fill="#ff9490"/>
      <path id="Trazado_110740" data-name="Trazado 110740" d="M1202.061,467.906l-1.264-2.385s.627-4.251-4.7-6.94a2.6,2.6,0,0,0-3.046.795c-1.011,1.463,1.929,1.2,1.772,3.7a4.6,4.6,0,0,0,2.682,4.785l1.366,1.583Z" transform="translate(-1179.626 -428.311)" fill="#ff9490"/>
      <path id="Trazado_110741" data-name="Trazado 110741" d="M1254.453,463.7s-4.574,22.45-29.745,29.785c-7.858,2.29-25.709-23.579-25.709-23.579s.628-2.385,4.56-1.837c0,0,17.381,11.507,19.569,12.757,1.942,1.109,14.71-14.258,20.531-16.737A14.856,14.856,0,0,1,1254.453,463.7Z" transform="translate(-1181.682 -429.812)" fill="#efc0a0"/>
      <g id="Grupo_54879" data-name="Grupo 54879" transform="translate(0 29.477)">
        <rect id="Rectángulo_5920" data-name="Rectángulo 5920" width="4.701" height="23.649" transform="translate(5.078 4.647) rotate(-81.268)" fill="#ff6b00"/>
        <path id="Trazado_110742" data-name="Trazado 110742" d="M1173.01,458.979l5.078,3.158.714-4.647Z" transform="translate(-1173.01 -457.491)" fill="#facba8"/>
        <path id="Trazado_110743" data-name="Trazado 110743" d="M1218.9,464.837l-.225,1.469a1.656,1.656,0,0,1-1.888,1.385l-1.082-.167.714-4.646,1.176.181A1.559,1.559,0,0,1,1218.9,464.837Z" transform="translate(-1187.258 -459.288)" fill="rgba(191,80,0,0.5)"/>
      </g>
      <g id="Grupo_54880" data-name="Grupo 54880" transform="translate(46.158 84.706)">
        <path id="Trazado_110744" data-name="Trazado 110744" d="M1321.655,675.24s3.122,2.85,2.513,4.875-3.427,3.374-3.808,5.849-1.9,3.825-3.275,3.825h-6.536s-1.009-1.741,1.429-2.266,3.356-3.433,3.2-6.133a47.581,47.581,0,0,1,.228-6.3l5.179-1.2Z" transform="translate(-1264.991 -584.924)" fill="#bb987e"/>
        <path id="Trazado_110745" data-name="Trazado 110745" d="M1260.636,685.72s.56,6.485-.81,7.16l-17.545-.035s0-2.025,2.818-2.475,7.769-2.1,8.606-5.774S1260.636,685.72,1260.636,685.72Z" transform="translate(-1242.281 -588.034)" fill="#bb987e"/>
        <path id="Trazado_110746" data-name="Trazado 110746" d="M1247.6,548.7s.925,11.368,2.012,25.033c1.479,18.563,3.256,41.365,3.432,45.685.3,7.5,1.524,19.5,1.524,19.5s2.893,2.851,8.682,1.649a193.623,193.623,0,0,0,6.633-35.25c.023-.3.045-.6.069-.9,1.371-18.448,3.5-57.3,3.5-57.3Z" transform="translate(-1244.055 -542.628)" fill="#803600"/>
        <path id="Trazado_110747" data-name="Trazado 110747" d="M1247.6,548.7s.925,11.368,2.012,25.033l20.272,31.583c.023-.3.045-.6.069-.9,1.371-18.448,3.5-57.3,3.5-57.3Z" transform="translate(-1244.055 -542.628)" fill="#632800"/>
        <path id="Trazado_110748" data-name="Trazado 110748" d="M1253.94,547.8s16.68,41.172,27.646,60.52,14.395,24.748,14.395,24.748,6.284-2.475,6.855-4.162c0,0-4.194-37.353-11.538-46.458-4.151-5.145-9.025-20.586-9.254-25.986s-1.485-16.085-1.485-16.085Z" transform="translate(-1246.171 -540.375)" fill="#803600"/>
      </g>
      <path id="Trazado_110749" data-name="Trazado 110749" d="M1277.965,449.449s-11.285,5.445-17.792,3.425a15.356,15.356,0,0,1,4.4-3.524c-.225-1.306-.4-2.439-.5-3.4a31.488,31.488,0,0,1-.275-3.474l4.354-3.424,4.129-3.278C1271.959,444.989,1277.965,449.449,1277.965,449.449Z" transform="translate(-1202.093 -420.767)" fill="#ffae73"/>
      <path id="Trazado_110750" data-name="Trazado 110750" d="M1279.247,513.148c.025.69-1.452,1.479-2.1,1.774a46.1,46.1,0,0,1-14.439,4.09c-6.03.616-13.162-.739-15.614-.69a1.02,1.02,0,0,1-.676-.271c-.175-.123-.3-7.392-.175-16.533,0-.37,0-.74.025-1.109v-.123c.051-3.573.175-7.318.35-11.063.351-8.23,1-16.163,2.1-20.549a22.272,22.272,0,0,1,7.057-11.088l2.252-1.972a10.817,10.817,0,0,0,7.006-.837c2.6-1.257,5.4-2.612,5.856-2.268,3.4,2.489,5.705,8.082,6.931,15.228a79.3,79.3,0,0,1,1.026,13.551c0,1.774-.051,3.6-.151,5.4a170.139,170.139,0,0,0,.351,23.136C1279.146,511.251,1279.222,512.359,1279.247,513.148Z" transform="translate(-1197.428 -426.333)" fill="#facba8"/>
      <path id="Trazado_110751" data-name="Trazado 110751" d="M1285.647,520.352c-39.519-.079-7.289-42.882-7.289-42.882l6.4-2.08a124.4,124.4,0,0,1,.742,14.478c0,1.9-.036,3.843-.109,5.765C1284.96,506.058,1285.393,515.114,1285.647,520.352Z" transform="translate(-1204.028 -433.986)" fill="#efc0a0"/>
      <path id="Trazado_110752" data-name="Trazado 110752" d="M1274.177,440.939s-2.853,5.2-8.283,6.653a31.488,31.488,0,0,1-.275-3.474l4.354-3.424Z" transform="translate(-1203.91 -422.409)" fill="#f2a672"/>
      <path id="Trazado_110753" data-name="Trazado 110753" d="M1261.587,436.825s10.766,1.761,11.777-4.858,3.081-10.849-3.75-12.253-8.556.923-9.439,3.051S1258.813,436.2,1261.587,436.825Z" transform="translate(-1201.864 -415.266)" fill="#ffae73"/>
      <path id="Trazado_110754" data-name="Trazado 110754" d="M1275.535,416.909c.1-.112.323-.2.825-.23a2.037,2.037,0,0,0-.937-.264,2.524,2.524,0,0,0-1.677-2.232,1.5,1.5,0,0,1,.73,1.085c-1.391-1.428-4.37-2.467-12.621-1.816-10.874.858-7.29,7.821-5.882,8.65s4.951-1.445,7.574-1.237,3.122,4,4.011,4.518.54-.4,1.744-.944,1.319,1.451.971,2.748,1.306,3.008,1.306,3.008l1.672-1.8c1.672-1.8,3.247-9.425,2.487-11.051C1275.67,417.2,1275.6,417.055,1275.535,416.909Z" transform="translate(-1200.122 -413.253)" fill="#803600"/>
      <path id="Trazado_110755" data-name="Trazado 110755" d="M1280.667,452.455s6.812,3.226,10.078,8.185c5.067,7.692,10.939,35.726,11.047,38.322s-4.286,20.923-4.286,20.923-4.457-.293-5.607-2.543c0,0,.891-18.831.327-20.041s-18.582-25.259-16.555-30.392S1280.667,452.455,1280.667,452.455Z" transform="translate(-1207.211 -426.333)" fill="#facba8"/>
      <path id="Trazado_110756" data-name="Trazado 110756" d="M1203.082,466.748s.371-1.463-.644-2.121-1.948-2.446-2.377-2.2c-.886.5.485,2.062.234,4.009C1200.207,467.115,1201.794,468.9,1203.082,466.748Z" transform="translate(-1181.935 -429.652)" fill="#ff9490"/>
    </g>
    <path id="Rectángulo_5921" data-name="Rectángulo 5921" d="M.027,0H399.973A.027.027,0,0,1,400,.027V1a.027.027,0,0,1-.027.027H.026A.026.026,0,0,1,0,1V.027A.027.027,0,0,1,.027,0Z" transform="translate(861.333 547.009)" fill="#471d00"/>
    <g id="Grupo_54889" data-name="Grupo 54889" transform="translate(1000.754 347.623)">
      <g id="Grupo_54883" data-name="Grupo 54883" transform="translate(0.245 34.985)">
        <rect id="Rectángulo_5922" data-name="Rectángulo 5922" width="86.777" height="3.924" rx="0.101" transform="translate(10.382 0)" fill="#bb987e"/>
        <rect id="Rectángulo_5923" data-name="Rectángulo 5923" width="54.071" height="3.924" rx="0.101" transform="translate(10.382 6.602)" fill="#bb987e"/>
        <g id="Grupo_54882" data-name="Grupo 54882">
          <path id="Trazado_110757" data-name="Trazado 110757" d="M1073.261,460.611V452.6H1072.2q-.963,0-.962-.8,0-.577.754-.818a5.622,5.622,0,0,1,1.226-.193q.842-.064,1.355-.064.5,0,.625.2a2.39,2.39,0,0,1,.129,1.018v8.672h1.09q1.057,0,1.057.914,0,.961-1.057.962h-4.393a1.21,1.21,0,0,1-.778-.249.84.84,0,0,1-.312-.7q0-.93,1.074-.93Z" transform="translate(-1070.937 -450.721)" fill="#bb987e"/>
        </g>
      </g>
      <g id="Grupo_54885" data-name="Grupo 54885" transform="translate(0.179 76.309)">
        <rect id="Rectángulo_5924" data-name="Rectángulo 5924" width="86.777" height="3.924" rx="0.101" transform="translate(10.448 0)" fill="#bb987e"/>
        <rect id="Rectángulo_5925" data-name="Rectángulo 5925" width="54.071" height="3.924" rx="0.101" transform="translate(10.448 6.602)" fill="#bb987e"/>
        <g id="Grupo_54884" data-name="Grupo 54884">
          <path id="Trazado_110758" data-name="Trazado 110758" d="M1077.61,522.463q0,.8-1.12.8h-4.646q-1.007,0-1.006-.807a1.021,1.021,0,0,1,.269-.6q.4-.454,1.161-1.36,1.162-1.459,1.941-2.522.269-.354.765-1.077a2.6,2.6,0,0,0,.411-1.218,1.252,1.252,0,0,0-.354-.914,1.215,1.215,0,0,0-.906-.361,1.392,1.392,0,0,0-.936.34,1.613,1.613,0,0,0-.424.85q-.2.807-.255.935a.719.719,0,0,1-.694.453.794.794,0,0,1-.666-.312,1.059,1.059,0,0,1-.227-.708,3.411,3.411,0,0,1,.156-1.006,3.022,3.022,0,0,1,1.2-1.672,3.493,3.493,0,0,1,2-.552,3.1,3.1,0,0,1,2.153.78,2.731,2.731,0,0,1,.892,2.1,3.656,3.656,0,0,1-.638,1.958q-.354.554-1.459,1.958-.567.724-1.785,2.1h3.06Q1077.61,521.634,1077.61,522.463Z" transform="translate(-1070.838 -512.738)" fill="#bb987e"/>
        </g>
      </g>
      <g id="Grupo_54887" data-name="Grupo 54887" transform="translate(0 110.345)">
        <rect id="Rectángulo_5926" data-name="Rectángulo 5926" width="86.777" height="3.924" rx="0.101" transform="translate(10.627 0.436)" fill="#bb987e"/>
        <rect id="Rectángulo_5927" data-name="Rectángulo 5927" width="54.071" height="3.924" rx="0.101" transform="translate(10.627 7.038)" fill="#bb987e"/>
        <g id="Grupo_54886" data-name="Grupo 54886">
          <path id="Trazado_110759" data-name="Trazado 110759" d="M1077.52,571.491a3.039,3.039,0,0,1-1.058,2.419,3.722,3.722,0,0,1-2.534.868,3.547,3.547,0,0,1-2.027-.564,2.582,2.582,0,0,1-1.333-2.158.907.907,0,0,1,.232-.623.761.761,0,0,1,.594-.26c.251,0,.487.169.71.507a11.118,11.118,0,0,0,.623.927,1.615,1.615,0,0,0,1.231.506,1.538,1.538,0,0,0,1.448-.753,2.008,2.008,0,0,0,.2-.956q0-1.419-1.665-1.578-.942-.087-.942-.8a.757.757,0,0,1,.547-.738q1.021-.377,1.035-.391a1.4,1.4,0,0,0,.547-1.26,1.135,1.135,0,0,0-.317-.847,1.166,1.166,0,0,0-.852-.311,1.553,1.553,0,0,0-1.039.318,2.078,2.078,0,0,0-.534.941.66.66,0,0,1-.664.507.681.681,0,0,1-.57-.3,1.106,1.106,0,0,1-.224-.666,1.854,1.854,0,0,1,.246-.9,2.778,2.778,0,0,1,1.245-1.173,3.648,3.648,0,0,1,1.68-.391,2.928,2.928,0,0,1,2.049.746,2.531,2.531,0,0,1,.818,1.962,2.69,2.69,0,0,1-1.216,2.317A2.624,2.624,0,0,1,1077.52,571.491Z" transform="translate(-1070.569 -563.817)" fill="#bb987e"/>
        </g>
      </g>
      <g id="Grupo_54888" data-name="Grupo 54888" transform="translate(18.407 0)">
        <rect id="Rectángulo_5928" data-name="Rectángulo 5928" width="55.356" height="4.559" rx="0.117" transform="translate(13.957)" fill="#bb987e"/>
        <rect id="Rectángulo_5929" data-name="Rectángulo 5929" width="83.269" height="4.559" rx="0.117" transform="translate(0 7.028)" fill="#bb987e"/>
      </g>
      <path id="Trazado_110760" data-name="Trazado 110760" d="M1174.1,628.743h-97a1.184,1.184,0,0,1-1.181-1.181h0a1.184,1.184,0,0,1,1.181-1.18h97a1.184,1.184,0,0,1,1.181,1.18h0A1.184,1.184,0,0,1,1174.1,628.743Z" transform="translate(-1072.354 -474.348)" fill="#bb987e"/>
      <path id="Trazado_110761" data-name="Trazado 110761" d="M1174.1,635.834h-97a1.184,1.184,0,0,1-1.181-1.181h0a1.184,1.184,0,0,1,1.181-1.18h97a1.184,1.184,0,0,1,1.181,1.18h0A1.184,1.184,0,0,1,1174.1,635.834Z" transform="translate(-1072.354 -476.714)" fill="#bb987e"/>
      <path id="Trazado_110762" data-name="Trazado 110762" d="M1174.1,643.692h-97a1.184,1.184,0,0,1-1.181-1.181h0a1.184,1.184,0,0,1,1.181-1.18h97a1.184,1.184,0,0,1,1.181,1.18h0A1.184,1.184,0,0,1,1174.1,643.692Z" transform="translate(-1072.354 -479.336)" fill="#bb987e"/>
      <rect id="Rectángulo_5930" data-name="Rectángulo 5930" width="86.548" height="2.361" rx="0.061" transform="translate(3.565 167.231)" fill="#bb987e"/>
    </g>
  </g>
</svg>
