<svg xmlns="http://www.w3.org/2000/svg" width="128" height="129" viewBox="0 0 128 129">
  <g id="Grupo_54922" data-name="Grupo 54922" transform="translate(-736 -1682)">
    <ellipse id="Elipse_4101" data-name="Elipse 4101" cx="54" cy="54.5" rx="54" ry="54.5" transform="translate(746 1692)" fill="#fff"/>
    <g id="Elipse_4100" data-name="Elipse 4100" transform="translate(746 1692)" fill="none" stroke="#fff" stroke-linejoin="round" stroke-width="10" opacity="0.29">
      <ellipse cx="54" cy="54.5" rx="54" ry="54.5" stroke="none"/>
      <ellipse cx="54" cy="54.5" rx="59" ry="59.5" fill="none"/>
    </g>
    <g id="Grupo_54626" data-name="Grupo 54626" transform="translate(766 1710.381)">
      <g id="Grupo_54624" data-name="Grupo 54624" transform="translate(11.577 1.058)">
        <path id="Trazado_109128" data-name="Trazado 109128" d="M391.527,204.439a22.206,22.206,0,1,0-35.746,17.6,4.71,4.71,0,0,1,1.853,3.727v3.923h23.374v-3.923a4.706,4.706,0,0,1,1.85-3.724,22.166,22.166,0,0,0,8.668-17.6Z" transform="translate(-347.115 -182.233)" fill="#ffcb5b"/>
        <g id="Grupo_54621" data-name="Grupo 54621" transform="translate(17.531 42.074)">
          <path id="Trazado_109129" data-name="Trazado 109129" d="M480.716,485.813h-9.35v-4.252a1.129,1.129,0,0,1,1.129-1.129h7.092a1.129,1.129,0,0,1,1.129,1.129Z" transform="translate(-471.366 -480.433)" fill="#99b4cd"/>
        </g>
        <g id="Grupo_54622" data-name="Grupo 54622" transform="translate(10.518 4.675)">
          <path id="Trazado_109130" data-name="Trazado 109130" d="M444.154,224.5l-1.964-.491a9.293,9.293,0,0,0-.431-1.045l1.041-1.734a1.169,1.169,0,0,0-.176-1.428l-2.015-2.015a1.169,1.169,0,0,0-1.428-.176l-1.734,1.041a9.291,9.291,0,0,0-1.045-.431l-.491-1.964a1.169,1.169,0,0,0-1.134-.885h-2.85a1.169,1.169,0,0,0-1.134.885l-.491,1.964a9.288,9.288,0,0,0-1.045.431l-1.734-1.041a1.169,1.169,0,0,0-1.428.176l-2.015,2.015a1.169,1.169,0,0,0-.176,1.428l1.041,1.734a9.293,9.293,0,0,0-.431,1.045l-1.964.491a1.169,1.169,0,0,0-.885,1.134v2.85a1.169,1.169,0,0,0,.885,1.134l1.964.491a9.294,9.294,0,0,0,.431,1.045l-1.041,1.734a1.169,1.169,0,0,0,.176,1.428l2.015,2.015a1.169,1.169,0,0,0,1.428.176l1.734-1.041a9.285,9.285,0,0,0,1.045.431l.491,1.964a1.169,1.169,0,0,0,1.134.885h2.85a1.169,1.169,0,0,0,1.134-.885l.491-1.964a9.284,9.284,0,0,0,1.045-.431l1.734,1.041a1.169,1.169,0,0,0,1.428-.176l2.015-2.015a1.169,1.169,0,0,0,.176-1.428l-1.041-1.734a9.289,9.289,0,0,0,.431-1.045l1.964-.491a1.169,1.169,0,0,0,.885-1.134v-2.85a1.169,1.169,0,0,0-.885-1.134Z" transform="translate(-421.665 -215.368)" fill="#99b4cd"/>
          <path id="Trazado_109131" data-name="Trazado 109131" d="M543.2,237.116l-1.964-.491a9.283,9.283,0,0,0-.432-1.045l1.041-1.734a1.169,1.169,0,0,0-.176-1.428l-2.015-2.015a1.169,1.169,0,0,0-1.428-.176l-1.246.748,1.444,1.444a1.169,1.169,0,0,1,.176,1.428l-1.041,1.734a9.294,9.294,0,0,1,.431,1.045l1.964.491a1.169,1.169,0,0,1,.885,1.134v2.85a1.169,1.169,0,0,1-.885,1.134l-1.964.491a9.294,9.294,0,0,1-.431,1.045L538.6,245.5a1.169,1.169,0,0,1-.176,1.428l-1.444,1.444,1.246.748a1.169,1.169,0,0,0,1.428-.176l2.015-2.015a1.169,1.169,0,0,0,.176-1.428l-1.041-1.734a9.283,9.283,0,0,0,.432-1.045l1.964-.491a1.169,1.169,0,0,0,.885-1.134v-2.85A1.169,1.169,0,0,0,543.2,237.116Z" transform="translate(-520.71 -227.988)" fill="#7fa4c7"/>
          <ellipse id="Elipse_4104" data-name="Elipse 4104" cx="2.338" cy="2.338" rx="2.338" ry="2.338" transform="translate(9.359 9.34)" fill="#ffcb5b"/>
        </g>
        <path id="Trazado_109132" data-name="Trazado 109132" d="M495.3,182.247a22.761,22.761,0,0,0-2.41.046,22.2,22.2,0,0,1,11.93,39.748,4.706,4.706,0,0,0-1.85,3.724v3.923h3.245v-3.923a4.706,4.706,0,0,1,1.85-3.724A22.206,22.206,0,0,0,495.3,182.247Z" transform="translate(-472.321 -182.234)" fill="#ffb85b"/>
        <g id="Grupo_54623" data-name="Grupo 54623" transform="translate(8.181 46.749)">
          <path id="Trazado_109133" data-name="Trazado 109133" d="M468.823,641.1H454.8v.865a4.515,4.515,0,0,0,4.515,4.515h4.995a4.515,4.515,0,0,0,4.515-4.515Z" transform="translate(-447.786 -623.105)" fill="#595a66"/>
          <path id="Trazado_109134" data-name="Trazado 109134" d="M503.713,641.1v.865a4.515,4.515,0,0,1-4.515,4.515h3.245a4.515,4.515,0,0,0,4.515-4.515V641.1Z" transform="translate(-485.921 -623.105)" fill="#50515c"/>
          <path id="Trazado_109135" data-name="Trazado 109135" d="M445.04,541.7H421.666v11.344a3.386,3.386,0,0,0,3.386,3.386h16.6a3.386,3.386,0,0,0,3.386-3.386Z" transform="translate(-419.328 -537.73)" fill="#99b4cd"/>
          <path id="Trazado_109136" data-name="Trazado 109136" d="M543.718,541.7v11.344a3.386,3.386,0,0,1-3.386,3.386h3.245a3.386,3.386,0,0,0,3.386-3.386V541.7Z" transform="translate(-521.251 -537.73)" fill="#7fa4c7"/>
          <path id="Trazado_109137" data-name="Trazado 109137" d="M430.811,518.241a2.337,2.337,0,1,0,0-4.675H407.436a2.337,2.337,0,1,0,0,4.675Z" transform="translate(-405.099 -513.566)" fill="#d3e2eb"/>
          <path id="Trazado_109138" data-name="Trazado 109138" d="M567.577,513.566h-3.245a2.337,2.337,0,1,1,0,4.675h3.245a2.337,2.337,0,1,0,0-4.675Z" transform="translate(-541.865 -513.566)" fill="#b0c4d8"/>
        </g>
      </g>
      <g id="Grupo_54625" data-name="Grupo 54625" transform="translate(0 0)">
        <path id="Trazado_109139" data-name="Trazado 109139" d="M377.063,216.437a23.264,23.264,0,0,0,.773-36.26,1.058,1.058,0,0,0-1.361,1.621,21.148,21.148,0,0,1-.7,32.963,5.728,5.728,0,0,0-2.263,4.563v2.159h-4.9v-2.488a2.189,2.189,0,0,0-2.187-2.187h-.15v-2.558h1.279a3.4,3.4,0,1,0-3.4-3.4v1.279H361.6v-1.279a3.4,3.4,0,1,0-3.4,3.4h1.279v2.559h-.15a2.189,2.189,0,0,0-2.187,2.187v2.488h-4.9v-2.159a5.733,5.733,0,0,0-2.266-4.565,21.15,21.15,0,0,1,23.039-35.321,1.058,1.058,0,1,0,1.017-1.856,23.272,23.272,0,0,0-32.009,30.749,23.471,23.471,0,0,0,6.662,8.105,3.632,3.632,0,0,1,1.441,2.889v2.329a3.395,3.395,0,0,0,0,6.452v9.75a4.45,4.45,0,0,0,4.444,4.444h.3a5.581,5.581,0,0,0,5.5,4.675h4.995a5.582,5.582,0,0,0,5.5-4.675h.3a4.45,4.45,0,0,0,4.444-4.444V228.1a3.395,3.395,0,0,0,0-6.452v-2.329a3.627,3.627,0,0,1,1.438-2.886Zm-10.788-5.584a1.279,1.279,0,1,1,1.279,1.279h-1.279Zm-8.07,1.279a1.279,1.279,0,1,1,1.279-1.279v1.279Zm3.4,2.116h2.558v2.558H361.6Zm-2.337,4.745a.071.071,0,0,1,.071-.071h7.092a.071.071,0,0,1,.071.071v2.488h-7.233Zm14.246,11.838H359.042a1.058,1.058,0,1,0,0,2.116h14.467v2.558H352.251v-2.558h2.558a1.058,1.058,0,1,0,0-2.116h-2.558v-2.558h21.258Zm-8.132,14.025h-4.995a3.463,3.463,0,0,1-3.338-2.558h11.672a3.464,3.464,0,0,1-3.339,2.558Zm5.8-4.675h-16.6a2.331,2.331,0,0,1-2.328-2.328v-.23h21.258v.23A2.331,2.331,0,0,1,371.181,240.182Zm3.386-14.025H351.193a1.279,1.279,0,0,1,0-2.558h23.374a1.279,1.279,0,0,1,0,2.558Z" transform="translate(-329.097 -174.733)"/>
        <path id="Trazado_109140" data-name="Trazado 109140" d="M271.857,333.175a1.058,1.058,0,0,0-1.058-1.058h-4.675a1.058,1.058,0,0,0,0,2.116H270.8A1.058,1.058,0,0,0,271.857,333.175Z" transform="translate(-265.066 -309.911)"/>
        <path id="Trazado_109141" data-name="Trazado 109141" d="M300.716,431.657l-4.049,2.338a1.058,1.058,0,1,0,1.058,1.833l4.049-2.337a1.058,1.058,0,0,0-1.058-1.833Z" transform="translate(-291.754 -395.284)"/>
        <path id="Trazado_109142" data-name="Trazado 109142" d="M674.8,433.993l-4.049-2.337a1.058,1.058,0,0,0-1.058,1.833l4.049,2.338a1.058,1.058,0,1,0,1.058-1.833Z" transform="translate(-612.147 -395.284)"/>
        <path id="Trazado_109143" data-name="Trazado 109143" d="M701.53,332.117h-4.675a1.058,1.058,0,1,0,0,2.116h4.675a1.058,1.058,0,0,0,0-2.116Z" transform="translate(-635.023 -309.911)"/>
        <path id="Trazado_109144" data-name="Trazado 109144" d="M670.222,220.605a1.053,1.053,0,0,0,.528-.142l4.049-2.337a1.058,1.058,0,1,0-1.058-1.833l-4.049,2.337a1.058,1.058,0,0,0,.53,1.975Z" transform="translate(-612.147 -210.307)"/>
        <path id="Trazado_109145" data-name="Trazado 109145" d="M296.667,218.124l4.049,2.337a1.058,1.058,0,0,0,1.058-1.833l-4.049-2.337a1.058,1.058,0,1,0-1.058,1.833Z" transform="translate(-291.754 -210.306)"/>
        <path id="Trazado_109146" data-name="Trazado 109146" d="M483.829,274.134a3.4,3.4,0,1,0,3.4,3.4A3.4,3.4,0,0,0,483.829,274.134Zm0,4.675a1.279,1.279,0,1,1,1.279-1.279A1.281,1.281,0,0,1,483.829,278.809Z" transform="translate(-450.046 -260.109)"/>
        <path id="Trazado_109147" data-name="Trazado 109147" d="M436.544,216.671l-.034-.083.756-1.26a2.224,2.224,0,0,0-.335-2.72l-2.015-2.015a2.224,2.224,0,0,0-2.72-.335l-1.26.756-.083-.034-.356-1.425a2.224,2.224,0,0,0-2.16-1.687h-2.85a2.224,2.224,0,0,0-2.16,1.687l-.356,1.425-.083.034-1.26-.756a2.224,2.224,0,0,0-2.72.335l-2.015,2.015a2.224,2.224,0,0,0-.335,2.72l.756,1.26-.034.083-1.426.356a2.224,2.224,0,0,0-1.687,2.16v2.85a2.224,2.224,0,0,0,1.687,2.16l1.426.356.034.083-.756,1.26a2.224,2.224,0,0,0,.335,2.72l2.015,2.015a2.224,2.224,0,0,0,2.72.335l1.26-.756.083.034.356,1.425a2.224,2.224,0,0,0,2.16,1.687h2.85a2.223,2.223,0,0,0,2.16-1.687l.356-1.425.083-.034,1.26.756a2.224,2.224,0,0,0,2.72-.335l2.015-2.015a2.224,2.224,0,0,0,.335-2.72l-.756-1.26.034-.083,1.426-.356a2.224,2.224,0,0,0,1.687-2.16v-2.85a2.224,2.224,0,0,0-1.687-2.16Zm1,5.367a.11.11,0,0,1-.084.107l-1.964.491a1.058,1.058,0,0,0-.744.681,8.291,8.291,0,0,1-.382.926,1.058,1.058,0,0,0,.044,1.009l1.041,1.734a.11.11,0,0,1-.017.135l-2.015,2.015a.11.11,0,0,1-.135.017l-1.734-1.041a1.058,1.058,0,0,0-1.008-.044,8.274,8.274,0,0,1-.926.382,1.058,1.058,0,0,0-.682.744l-.491,1.964a.11.11,0,0,1-.107.084h-2.85a.11.11,0,0,1-.107-.084l-.491-1.964a1.058,1.058,0,0,0-.682-.744,8.291,8.291,0,0,1-.926-.382,1.058,1.058,0,0,0-1.008.044l-1.734,1.041a.11.11,0,0,1-.135-.017l-2.015-2.015a.111.111,0,0,1-.017-.135l1.041-1.734a1.058,1.058,0,0,0,.044-1.009,8.268,8.268,0,0,1-.382-.926,1.059,1.059,0,0,0-.744-.681l-1.963-.491a.11.11,0,0,1-.084-.107v-2.85a.11.11,0,0,1,.084-.107l1.964-.491a1.059,1.059,0,0,0,.744-.681,8.276,8.276,0,0,1,.382-.926,1.058,1.058,0,0,0-.044-1.009l-1.041-1.734a.11.11,0,0,1,.017-.135l2.015-2.015a.11.11,0,0,1,.135-.017l1.734,1.041a1.058,1.058,0,0,0,1.008.044,8.291,8.291,0,0,1,.926-.382,1.058,1.058,0,0,0,.682-.744l.491-1.964a.11.11,0,0,1,.107-.084h2.85a.11.11,0,0,1,.107.084l.491,1.964a1.058,1.058,0,0,0,.682.744,8.3,8.3,0,0,1,.926.382,1.058,1.058,0,0,0,1.008-.044l1.734-1.041a.11.11,0,0,1,.135.017l2.015,2.015a.11.11,0,0,1,.017.135l-1.041,1.734a1.058,1.058,0,0,0-.044,1.009,8.3,8.3,0,0,1,.382.926,1.058,1.058,0,0,0,.744.681l1.964.491a.11.11,0,0,1,.084.107v2.85Z" transform="translate(-393.128 -203.192)"/>
      </g>
    </g>
  </g>
</svg>
