<svg xmlns="http://www.w3.org/2000/svg" width="128" height="129" viewBox="0 0 128 129">
  <g id="Grupo_54923" data-name="Grupo 54923" transform="translate(-1137 -1682)">
    <ellipse id="Elipse_154" data-name="Elipse 154" cx="54" cy="54.5" rx="54" ry="54.5" transform="translate(1147 1692)" fill="#fff"/>
    <g id="Elipse_157" data-name="Elipse 157" transform="translate(1147 1692)" fill="none" stroke="#fff" stroke-linejoin="round" stroke-width="10" opacity="0.29">
      <ellipse cx="54" cy="54.5" rx="54" ry="54.5" stroke="none"/>
      <ellipse cx="54" cy="54.5" rx="59" ry="59.5" fill="none"/>
    </g>
    <g id="Grupo_54660" data-name="Grupo 54660" transform="translate(1166 1711.38)">
      <g id="Grupo_54658" data-name="Grupo 54658" transform="translate(1.129 1.128)">
        <g id="Grupo_54646" data-name="Grupo 54646" transform="translate(18.06 4.515)">
          <path id="Trazado_109165" data-name="Trazado 109165" d="M401.38,92a1.947,1.947,0,0,0-.677.124L392,95.386l7.9,7.9,3.262-8.7a1.947,1.947,0,0,0,.124-.677A1.912,1.912,0,0,0,401.38,92Z" transform="translate(-392 -92)" fill="#aab2bd"/>
        </g>
        <g id="Grupo_54647" data-name="Grupo 54647" transform="translate(7.901 7.901)">
          <path id="Trazado_109166" data-name="Trazado 109166" d="M334.109,119.951l-6.208,6.208H320l3.386-3.386L330.159,116Z" transform="translate(-320 -116)" fill="#fcd770"/>
        </g>
        <g id="Grupo_54648" data-name="Grupo 54648" transform="translate(15.803 11.852)">
          <path id="Trazado_109167" data-name="Trazado 109167" d="M386.159,147.951l-2.258,2.258H376L382.208,144Z" transform="translate(-376 -144)" fill="#ff826e"/>
        </g>
        <g id="Grupo_54649" data-name="Grupo 54649" transform="translate(2.258)">
          <path id="Trazado_109168" data-name="Trazado 109168" d="M289.03,61.129V74.674l-3.386,3.386H280V61.129A1.132,1.132,0,0,1,281.129,60H287.9A1.132,1.132,0,0,1,289.03,61.129Z" transform="translate(-280 -60)" fill="#e6e9ed"/>
        </g>
        <g id="Grupo_54650" data-name="Grupo 54650" transform="translate(2.258 22.575)">
          <path id="Trazado_109169" data-name="Trazado 109169" d="M300.318,220v4.515h-3.386a1.132,1.132,0,0,0-1.129,1.129v1.129h-3.386a1.132,1.132,0,0,0-1.129,1.129v1.129H287.9a1.132,1.132,0,0,0-1.129,1.129v14.674h-2.258A4.514,4.514,0,0,1,280,240.318V220Z" transform="translate(-280 -220)" fill="#dfb28b"/>
        </g>
        <g id="Grupo_54651" data-name="Grupo 54651" transform="translate(0 18.06)">
          <path id="Trazado_109170" data-name="Trazado 109170" d="M288.833,189.129v2.258a1.132,1.132,0,0,1-1.129,1.129H265.129A1.132,1.132,0,0,1,264,191.386v-2.258A1.132,1.132,0,0,1,265.129,188H287.7A1.132,1.132,0,0,1,288.833,189.129Z" transform="translate(-264 -188)" fill="#cf9e76"/>
        </g>
        <g id="Grupo_54652" data-name="Grupo 54652" transform="translate(50.794 36.12)">
          <path id="Trazado_109171" data-name="Trazado 109171" d="M630.772,316l-.971,5.824a1.128,1.128,0,0,1-1.117.948h-2.6a1.128,1.128,0,0,1-1.117-.948L624,316Z" transform="translate(-624 -316)" fill="#aab2bd"/>
        </g>
        <g id="Grupo_54653" data-name="Grupo 54653" transform="translate(9.03 31.605)">
          <path id="Trazado_109172" data-name="Trazado 109172" d="M386.7,285.129v31.605a1.132,1.132,0,0,1-1.129,1.129H362.991l-.124.237a3.644,3.644,0,0,1-6.524,0l-.124-.237h-27.09A1.132,1.132,0,0,1,328,316.734V285.129A1.132,1.132,0,0,1,329.129,284h3.386v28.219a1.132,1.132,0,0,0,1.129,1.129h47.408a1.132,1.132,0,0,0,1.129-1.129V284h3.386A1.132,1.132,0,0,1,386.7,285.129Z" transform="translate(-328 -284)" fill="#b4dd7f"/>
        </g>
        <g id="Grupo_54654" data-name="Grupo 54654" transform="translate(13.545 29.348)">
          <path id="Trazado_109173" data-name="Trazado 109173" d="M387.09,297.348v2.258H361.129A1.132,1.132,0,0,1,360,298.476V269.129A1.132,1.132,0,0,1,361.129,268h3.386v27.09h17.507a6.764,6.764,0,0,1,4.8,1.987Z" transform="translate(-360 -268)" fill="#f0d0b4"/>
        </g>
        <g id="Grupo_54655" data-name="Grupo 54655" transform="translate(18.06 27.09)">
          <path id="Trazado_109174" data-name="Trazado 109174" d="M436.021,254.258H414.575l-.271-.271a6.764,6.764,0,0,0-4.8-1.987H393.129A1.132,1.132,0,0,0,392,253.129v28.219h17.507a6.764,6.764,0,0,1,4.8,1.987l.271.271v2.258h21.446a1.132,1.132,0,0,0,1.129-1.129V255.386A1.132,1.132,0,0,0,436.021,254.258Z" transform="translate(-392 -252)" fill="#e6e9ed"/>
        </g>
        <g id="Grupo_54656" data-name="Grupo 54656" transform="translate(22.575 31.605)">
          <path id="Trazado_109175" data-name="Trazado 109175" d="M424,284h13.545v6.773H424Z" transform="translate(-424 -284)" fill="#ff826e"/>
        </g>
        <g id="Grupo_54657" data-name="Grupo 54657" transform="translate(49.665)">
          <path id="Trazado_109176" data-name="Trazado 109176" d="M622.773,60h-4.515A2.264,2.264,0,0,0,616,62.258V94.991a1.132,1.132,0,0,0,1.129,1.129H623.9a1.132,1.132,0,0,0,1.129-1.129V62.258A2.264,2.264,0,0,0,622.773,60Z" transform="translate(-616 -60)" fill="#fcd770"/>
        </g>
      </g>
      <g id="Grupo_54659" data-name="Grupo 54659" transform="translate(0 0)">
        <path id="Trazado_109177" data-name="Trazado 109177" d="M323.725,83.605h-2.258a2.26,2.26,0,0,0-2.258-2.257h-2.258V71.886l1.633.817a1.122,1.122,0,0,1,.624,1.009v3.12h2.258v-3.12a3.368,3.368,0,0,0-1.871-3.028l-1.248-.624,1.247-.624a3.366,3.366,0,0,0,1.873-3.028V61.664a3.383,3.383,0,0,0-2.565-3.286l-1.951-.488v-2.5A3.39,3.39,0,0,0,313.566,52h-4.515a3.39,3.39,0,0,0-3.386,3.386V81.348h-7.434a7.849,7.849,0,0,0-5.53-2.257H280.833V76.833a2.26,2.26,0,0,0,2.258-2.258V72.318a2.241,2.241,0,0,0-.45-1.34l1.421-1.421,3.35-8.935a3.038,3.038,0,0,0-2.846-4.106,3.055,3.055,0,0,0-1.068.193l-8.934,3.351-5.018,5.018V54.258A2.26,2.26,0,0,0,267.288,52h-6.772a2.26,2.26,0,0,0-2.258,2.258v15.8A2.26,2.26,0,0,0,256,72.318v2.257a2.26,2.26,0,0,0,2.258,2.258V96.021a5.65,5.65,0,0,0,5.644,5.644h1.129v15.8a2.26,2.26,0,0,0,2.257,2.257H293.7a4.782,4.782,0,0,0,8.122,0h21.9a2.26,2.26,0,0,0,2.258-2.257V85.863a2.26,2.26,0,0,0-2.258-2.258ZM310.007,94.893l-.753-4.515h4.108l-.753,4.515ZM314.7,88.12h-6.774V67.8H314.7Zm3.658-27.552a1.129,1.129,0,0,1,.856,1.1v4.744a1.122,1.122,0,0,1-.624,1.009l-1.633.816V60.218Zm-9.3-6.311h4.515a1.131,1.131,0,0,1,1.129,1.129V65.545h-6.772V55.386A1.131,1.131,0,0,1,309.051,54.258Zm-2.125,35.878.854,5.128a2.25,2.25,0,0,0,2.227,1.886h.173v4.515h2.258V97.15h.173a2.25,2.25,0,0,0,2.227-1.887l.854-5.128a2.252,2.252,0,0,0,1.261-2.015V83.605h2.258v29.348H298.893V83.605h6.772V88.12A2.255,2.255,0,0,0,306.926,90.136ZM292.7,110.7a5.6,5.6,0,0,1,3.934,1.607v.65H271.8V83.605h2.258V110.7Zm3.934-27.741v26.538a7.849,7.849,0,0,0-3.934-1.054H276.318V81.348H292.7A5.6,5.6,0,0,1,296.635,82.954ZM277.226,61.471l3.425-1.285,3.281,3.281-1.284,3.425Zm.317,3.509-5.079,5.079h-4.709l7.434-7.434Zm1.6,1.6,2.355,2.355-1.129,1.129h-4.709Zm5.151-7.755a.8.8,0,0,1,1.058.733.791.791,0,0,1-.05.275l-.494,1.317-1.831-1.831ZM260.515,67.8h4.515V65.545h-4.515V63.288h2.258V61.03h-2.258V58.773h4.515V56.515h-4.515V54.258h6.772V67.335l-2.725,2.725h-4.048Zm-2.258,4.515h22.575v2.257H258.258Zm6.773,13.545V99.408H263.9a3.39,3.39,0,0,1-3.386-3.386V76.833h18.06V79.09h-2.257a2.26,2.26,0,0,0-2.258,2.257H271.8a2.26,2.26,0,0,0-2.258,2.257h-2.258a2.26,2.26,0,0,0-2.257,2.258Zm58.7,31.605H300.453l-.431.862a2.524,2.524,0,0,1-4.515,0l-.431-.862H267.288V85.863h2.258v27.09a2.26,2.26,0,0,0,2.258,2.257H319.21a2.26,2.26,0,0,0,2.258-2.257V85.863h2.258Z" transform="translate(-256 -52)"/>
        <path id="Trazado_109178" data-name="Trazado 109178" d="M431.8,276H416v9.03h15.8Zm-2.258,6.773H418.258v-4.515h11.288Z" transform="translate(-393.425 -244.395)"/>
        <path id="Trazado_109179" data-name="Trazado 109179" d="M416,356h4.515v2.258H416Z" transform="translate(-393.425 -313.107)"/>
        <path id="Trazado_109180" data-name="Trazado 109180" d="M464,356h9.03v2.258H464Z" transform="translate(-434.652 -313.107)"/>
        <path id="Trazado_109181" data-name="Trazado 109181" d="M416,388h15.8v2.258H416Z" transform="translate(-393.425 -340.592)"/>
        <path id="Trazado_109182" data-name="Trazado 109182" d="M416,420h15.8v2.258H416Z" transform="translate(-393.425 -368.077)"/>
        <path id="Trazado_109183" data-name="Trazado 109183" d="M576,420h15.8v2.258H576Z" transform="translate(-530.85 -368.077)"/>
        <path id="Trazado_109184" data-name="Trazado 109184" d="M576,452h15.8v2.258H576Z" transform="translate(-530.85 -395.562)"/>
        <path id="Trazado_109185" data-name="Trazado 109185" d="M576,388h6.773v2.258H576Z" transform="translate(-530.85 -340.592)"/>
        <path id="Trazado_109186" data-name="Trazado 109186" d="M576,356h4.515v2.258H576Z" transform="translate(-530.85 -313.107)"/>
      </g>
    </g>
  </g>
</svg>
